Poppins-MediumItalic.ufo
<glyph name="exclam" format="2">
  <advance width="321"/>
  <unicode hex="0021"/>
  <outline>
    <contour>
      <point x="168" y="695" type="line"/>
      <point x="95" y="210" type="line"/>
      <point x="190" y="210" type="line"/>
      <point x="289" y="695" type="line"/>
    </contour>
    <component base="period" xOffset="40"/>
  </outline>
</glyph>
<glyph name="quotedbl" format="2">
  <advance width="323"/>
  <unicode hex="0022"/>
  <outline>
    <contour>
      <point x="123" y="797" type="line"/>
      <point x="100" y="592" type="line"/>
      <point x="178" y="592" type="line"/>
      <point x="226" y="797" type="line"/>
    </contour>
    <contour>
      <point x="274" y="797" type="line"/>
      <point x="251" y="592" type="line"/>
      <point x="329" y="592" type="line"/>
      <point x="377" y="797" type="line"/>
    </contour>
  </outline>
</glyph>
<glyph name="numbersign" format="2">
  <advance width="872"/>
  <unicode hex="0023"/>
  <outline>
    <contour>
      <point x="383" y="740" type="line"/>
      <point x="94" y="0" type="line"/>
      <point x="203" y="0" type="line"/>
      <point x="492" y="740" type="line"/>
    </contour>
    <contour>
      <point x="688" y="740" type="line"/>
      <point x="399" y="0" type="line"/>
      <point x="508" y="0" type="line"/>
      <point x="797" y="740" type="line"/>
    </contour>
    <contour>
      <point x="30" y="285" type="line"/>
      <point x="12" y="185" type="line"/>
      <point x="734" y="185" type="line"/>
      <point x="752" y="285" type="line"/>
    </contour>
    <contour>
      <point x="137" y="558" type="line"/>
      <point x="119" y="458" type="line"/>
      <point x="841" y="458" type="line"/>
      <point x="859" y="558" type="line"/>
    </contour>
  </outline>
</glyph>
<glyph name="dollar" format="2">
  <advance width="650"/>
  <unicode hex="0024"/>
  <outline>
    <contour>
      <point x="358" y="784" type="line"/>
      <point x="204" y="-87" type="line"/>
      <point x="269" y="-87" type="line"/>
      <point x="423" y="784" type="line"/>
    </contour>
    <contour>
      <point x="183" y="332"/>
      <point x="214" y="508" type="curve" smooth="yes"/>
      <point x="226" y="579"/>
      <point x="285" y="611"/>
      <point x="353" y="611" type="curve" smooth="yes"/>
      <point x="424" y="611"/>
      <point x="458" y="567"/>
      <point x="454" y="517" type="curve"/>
      <point x="576" y="517" type="line"/>
      <point x="588" y="640"/>
      <point x="507" y="704"/>
      <point x="375" y="704" type="curve" smooth="yes"/>
      <point x="233" y="704"/>
      <point x="118" y="624"/>
      <point x="97" y="502" type="curve" smooth="yes"/>
      <point x="51" y="243"/>
      <point x="442" y="365"/>
      <point x="411" y="192" type="curve" smooth="yes"/>
      <point x="400" y="131"/>
      <point x="346" y="85"/>
      <point x="266" y="85" type="curve" smooth="yes"/>
      <point x="187" y="85"/>
      <point x="158" y="126"/>
      <point x="163" y="185" type="curve"/>
      <point x="41" y="185" type="line"/>
      <point x="19" y="62"/>
      <point x="111" y="-7"/>
      <point x="250" y="-7" type="curve" smooth="yes"/>
      <point x="405" y="-7"/>
      <point x="509" y="94"/>
      <point x="527" y="198" type="curve" smooth="yes"/>
      <point x="573" y="456"/>
    </contour>
  </outline>
</glyph>
<glyph name="ampersand" format="2">
  <advance width="775"/>
  <unicode hex="0026"/>
  <outline>
    <contour>
      <point x="455" y="550" type="curve"/>
      <point x="569" y="550" type="line"/>
      <point x="571" y="560"/>
      <point x="572" y="569"/>
      <point x="572" y="578" type="curve" smooth="yes"/>
      <point x="572" y="651"/>
      <point x="516" y="711"/>
      <point x="413" y="711" type="curve" smooth="yes"/>
      <point x="281" y="711"/>
      <point x="191" y="630"/>
      <point x="191" y="514" type="curve" smooth="yes"/>
      <point x="191" y="471"/>
      <point x="209" y="433"/>
      <point x="254" y="379" type="curve" smooth="yes"/>
      <point x="565" y="0" type="line"/>
      <point x="714" y="0" type="line"/>
      <point x="357" y="429" type="line" smooth="yes"/>
      <point x="324" y="474"/>
      <point x="307" y="503"/>
      <point x="307" y="534" type="curve" smooth="yes"/>
      <point x="307" y="578"/>
      <point x="343" y="618"/>
      <point x="395" y="618" type="curve" smooth="yes"/>
      <point x="433" y="618"/>
      <point x="456" y="597"/>
      <point x="456" y="564" type="curve" smooth="yes"/>
      <point x="456" y="559"/>
      <point x="456" y="555"/>
    </contour>
    <contour>
      <point x="353" y="369" type="line"/>
      <point x="305" y="444" type="line"/>
      <point x="262" y="431" type="line" smooth="yes"/>
      <point x="121" y="389"/>
      <point x="19" y="292"/>
      <point x="19" y="165" type="curve" smooth="yes"/>
      <point x="19" y="53"/>
      <point x="102" y="-13"/>
      <point x="236" y="-13" type="curve" smooth="yes"/>
      <point x="381" y="-13"/>
      <point x="493" y="59"/>
      <point x="607" y="209" type="curve" smooth="yes"/>
      <point x="724" y="363" type="line"/>
      <point x="601" y="363" type="line"/>
      <point x="504" y="240" type="line" smooth="yes"/>
      <point x="423" y="136"/>
      <point x="345" y="84"/>
      <point x="253" y="84" type="curve" smooth="yes"/>
      <point x="180" y="84"/>
      <point x="136" y="126"/>
      <point x="136" y="183" type="curve" smooth="yes"/>
      <point x="136" y="265"/>
      <point x="205" y="322"/>
      <point x="302" y="353" type="curve" smooth="yes"/>
    </contour>
  </outline>
</glyph>
<glyph name="quotesingle" format="2">
  <advance width="172"/>
  <unicode hex="0027"/>
  <outline>
    <contour>
      <point x="123" y="797" type="line"/>
      <point x="100" y="592" type="line"/>
      <point x="178" y="592" type="line"/>
      <point x="226" y="797" type="line"/>
    </contour>
  </outline>
</glyph>
<glyph name="parenleft" format="2">
  <advance width="492"/>
  <unicode hex="0028"/>
  <outline>
    <contour>
      <point x="246" y="-186" type="curve"/>
      <point x="364" y="-186" type="line"/>
      <point x="366" y="-175" type="line"/>
      <point x="279" y="-66"/>
      <point x="237" y="73"/>
      <point x="237" y="220" type="curve" smooth="yes"/>
      <point x="237" y="485"/>
      <point x="371" y="758"/>
      <point x="579" y="923" type="curve"/>
      <point x="581" y="934" type="line"/>
      <point x="463" y="934" type="line"/>
      <point x="251" y="771"/>
      <point x="125" y="475"/>
      <point x="125" y="196" type="curve" smooth="yes"/>
      <point x="125" y="44"/>
      <point x="165" y="-92"/>
    </contour>
  </outline>
</glyph>
<glyph name="parenright" format="2">
  <advance width="492"/>
  <unicode hex="0029"/>
  <outline>
    <contour>
      <point x="84" y="-186" type="line"/>
      <point x="278" y="-26"/>
      <point x="399" y="263"/>
      <point x="399" y="530" type="curve" smooth="yes"/>
      <point x="399" y="688"/>
      <point x="356" y="834"/>
      <point x="261" y="934" type="curve"/>
      <point x="143" y="934" type="line"/>
      <point x="141" y="923" type="line"/>
      <point x="243" y="811"/>
      <point x="287" y="661"/>
      <point x="287" y="509" type="curve" smooth="yes"/>
      <point x="287" y="256"/>
      <point x="166" y="-3"/>
      <point x="-32" y="-175" type="curve"/>
      <point x="-34" y="-186" type="line"/>
    </contour>
  </outline>
</glyph>
<glyph name="asterisk" format="2">
  <advance width="504"/>
  <unicode hex="002A"/>
  <outline>
    <contour>
      <point x="329" y="590" type="line"/>
      <point x="377" y="736" type="line"/>
      <point x="284" y="736" type="line"/>
      <point x="278" y="590" type="line"/>
      <point x="177" y="680" type="line"/>
      <point x="117" y="598" type="line"/>
      <point x="244" y="549" type="line"/>
      <point x="99" y="498" type="line"/>
      <point x="132" y="413" type="line"/>
      <point x="262" y="505" type="line"/>
      <point x="218" y="360" type="line"/>
      <point x="310" y="360" type="line"/>
      <point x="314" y="505" type="line"/>
      <point x="413" y="415" type="line"/>
      <point x="473" y="497" type="line"/>
      <point x="345" y="548" type="line"/>
      <point x="491" y="599" type="line"/>
      <point x="460" y="679" type="line"/>
    </contour>
  </outline>
</glyph>
<glyph name="plus" format="2">
  <advance width="714"/>
  <unicode hex="002B"/>
  <outline>
    <contour>
      <point x="468" y="616" type="line"/>
      <point x="360" y="616" type="line"/>
      <point x="270" y="106" type="line"/>
      <point x="378" y="106" type="line"/>
    </contour>
    <contour>
      <point x="123" y="412" type="line"/>
      <point x="105" y="310" type="line"/>
      <point x="615" y="310" type="line"/>
      <point x="633" y="412" type="line"/>
    </contour>
  </outline>
</glyph>
<glyph name="comma" format="2">
  <advance width="225"/>
  <unicode hex="002C"/>
  <outline>
    <contour>
      <point x="48" y="137" type="line"/>
      <point x="-71" y="-139" type="line"/>
      <point x="3" y="-139" type="line"/>
      <point x="172" y="137" type="line"/>
    </contour>
  </outline>
</glyph>
<glyph name="period" format="2">
  <advance width="241"/>
  <unicode hex="002E"/>
  <outline>
    <contour>
      <point x="68" y="-7" type="curve" smooth="yes"/>
      <point x="108" y="-7"/>
      <point x="146" y="25"/>
      <point x="153" y="66" type="curve" smooth="yes"/>
      <point x="160" y="107"/>
      <point x="134" y="139"/>
      <point x="94" y="139" type="curve" smooth="yes"/>
      <point x="53" y="139"/>
      <point x="15" y="107"/>
      <point x="8" y="66" type="curve" smooth="yes"/>
      <point x="1" y="25"/>
      <point x="27" y="-7"/>
    </contour>
  </outline>
</glyph>
<glyph name="slash" format="2">
  <advance width="514"/>
  <unicode hex="002F"/>
  <unicode hex="2215"/>
  <outline>
    <contour>
      <point x="447" y="944" type="line"/>
      <point x="-22" y="-175" type="line"/>
      <point x="90" y="-175" type="line"/>
      <point x="560" y="944" type="line"/>
    </contour>
  </outline>
</glyph>
<glyph name="zero" format="2">
  <advance width="641"/>
  <unicode hex="0030"/>
  <outline>
    <contour>
      <point x="193" y="729"/>
      <point x="109" y="569"/>
      <point x="73" y="366" type="curve"/>
      <point x="37" y="162"/>
      <point x="65" y="2"/>
      <point x="269" y="2" type="curve" smooth="yes"/>
      <point x="473" y="2"/>
      <point x="557" y="162"/>
      <point x="593" y="366" type="curve"/>
      <point x="629" y="569"/>
      <point x="601" y="729"/>
      <point x="397" y="729" type="curve" smooth="yes"/>
    </contour>
    <contour>
      <point x="512" y="625"/>
      <point x="504" y="500"/>
      <point x="481" y="366" type="curve"/>
      <point x="457" y="231"/>
      <point x="420" y="106"/>
      <point x="287" y="106" type="curve" smooth="yes"/>
      <point x="154" y="106"/>
      <point x="161" y="231"/>
      <point x="185" y="366" type="curve" smooth="yes"/>
      <point x="208" y="500"/>
      <point x="246" y="625"/>
      <point x="379" y="625" type="curve" smooth="yes"/>
    </contour>
  </outline>
</glyph>
<glyph name="one" format="2">
  <advance width="350"/>
  <unicode hex="0031"/>
  <outline>
    <contour>
      <point x="193" y="606" type="line"/>
      <point x="86" y="0" type="line"/>
      <point x="201" y="0" type="line"/>
      <point x="327" y="710" type="line"/>
      <point x="119" y="710" type="line"/>
      <point x="100" y="606" type="line"/>
    </contour>
  </outline>
</glyph>
<glyph name="two" format="2">
  <advance width="577"/>
  <unicode hex="0032"/>
  <outline>
    <contour>
      <point x="16" y="93" type="curve"/>
      <point x="1" y="10" type="line"/>
      <point x="487" y="10" type="line"/>
      <point x="504" y="105" type="line"/>
      <point x="187" y="105" type="line"/>
      <point x="323" y="212"/>
      <point x="527" y="347"/>
      <point x="557" y="518" type="curve" smooth="yes"/>
      <point x="579" y="644"/>
      <point x="511" y="733"/>
      <point x="363" y="733" type="curve" smooth="yes"/>
      <point x="234" y="733"/>
      <point x="118" y="656"/>
      <point x="86" y="498" type="curve"/>
      <point x="196" y="498" type="line"/>
      <point x="214" y="580"/>
      <point x="266" y="636"/>
      <point x="346" y="636" type="curve" smooth="yes"/>
      <point x="431" y="636"/>
      <point x="455" y="584"/>
      <point x="443" y="513" type="curve" smooth="yes"/>
      <point x="419" y="376"/>
      <point x="214" y="244"/>
    </contour>
  </outline>
</glyph>
<glyph name="three" format="2">
  <advance width="594"/>
  <unicode hex="0033"/>
  <outline>
    <contour>
      <point x="133" y="675"/>
      <point x="103" y="549" type="curve"/>
      <point x="214" y="549" type="line"/>
      <point x="230" y="600"/>
      <point x="276" y="648"/>
      <point x="356" y="648" type="curve" smooth="yes"/>
      <point x="434" y="648"/>
      <point x="467" y="606"/>
      <point x="456" y="543" type="curve" smooth="yes"/>
      <point x="442" y="465"/>
      <point x="374" y="435"/>
      <point x="271" y="434" type="curve" smooth="yes"/>
      <point x="244" y="434" type="line"/>
      <point x="227" y="340" type="line"/>
      <point x="253" y="340" type="line" smooth="yes"/>
      <point x="372" y="340"/>
      <point x="428" y="307"/>
      <point x="412" y="211" type="curve" smooth="yes"/>
      <point x="400" y="143"/>
      <point x="348" y="91"/>
      <point x="263" y="91" type="curve" smooth="yes"/>
      <point x="177" y="91"/>
      <point x="137" y="143"/>
      <point x="144" y="211" type="curve"/>
      <point x="34" y="211" type="line"/>
      <point x="15" y="68"/>
      <point x="110" y="-4"/>
      <point x="248" y="-4" type="curve" smooth="yes"/>
      <point x="400" y="-4"/>
      <point x="497" y="84"/>
      <point x="518" y="200" type="curve" smooth="yes"/>
      <point x="535" y="301"/>
      <point x="498" y="364"/>
      <point x="426" y="387" type="curve"/>
      <point x="426" y="391" type="line"/>
      <point x="487" y="410"/>
      <point x="552" y="469"/>
      <point x="567" y="556" type="curve" smooth="yes"/>
      <point x="586" y="662"/>
      <point x="522" y="746"/>
      <point x="377" y="746" type="curve" smooth="yes"/>
      <point x="244" y="746"/>
    </contour>
  </outline>
</glyph>
<glyph name="four" format="2">
  <advance width="647"/>
  <unicode hex="0034"/>
  <outline>
    <contour>
      <point x="383" y="152" type="line"/>
      <point x="356" y="0" type="line"/>
      <point x="468" y="0" type="line"/>
      <point x="495" y="152" type="line"/>
      <point x="588" y="152" type="line"/>
      <point x="606" y="251" type="line"/>
      <point x="513" y="251" type="line"/>
      <point x="595" y="720" type="line"/>
      <point x="457" y="720" type="line"/>
      <point x="36" y="238" type="line"/>
      <point x="21" y="152" type="line"/>
    </contour>
    <contour>
      <point x="406" y="251" type="line"/>
      <point x="170" y="251" type="line"/>
      <point x="468" y="604" type="line"/>
    </contour>
  </outline>
</glyph>
<glyph name="five" format="2">
  <advance width="639"/>
  <unicode hex="0035"/>
  <outline>
    <contour>
      <point x="607" y="731" type="line"/>
      <point x="167" y="731" type="line"/>
      <point x="93" y="310" type="line"/>
      <point x="201" y="310" type="line"/>
      <point x="230" y="364"/>
      <point x="281" y="401"/>
      <point x="348" y="401" type="curve" smooth="yes"/>
      <point x="443" y="401"/>
      <point x="481" y="347"/>
      <point x="464" y="252" type="curve" smooth="yes"/>
      <point x="448" y="162"/>
      <point x="392" y="95"/>
      <point x="294" y="95" type="curve" smooth="yes"/>
      <point x="217" y="95"/>
      <point x="172" y="135"/>
      <point x="168" y="197" type="curve"/>
      <point x="57" y="197" type="line"/>
      <point x="54" y="83"/>
      <point x="126" y="0"/>
      <point x="276" y="0" type="curve" smooth="yes"/>
      <point x="445" y="0"/>
      <point x="548" y="110"/>
      <point x="573" y="255" type="curve" smooth="yes"/>
      <point x="593" y="365"/>
      <point x="561" y="498"/>
      <point x="382" y="498" type="curve" smooth="yes"/>
      <point x="317" y="498"/>
      <point x="253" y="468"/>
      <point x="220" y="432" type="curve"/>
      <point x="255" y="631" type="line"/>
      <point x="590" y="631" type="line"/>
    </contour>
  </outline>
</glyph>
<glyph name="six" format="2">
  <advance width="642"/>
  <unicode hex="0036"/>
  <outline>
    <contour>
      <point x="499" y="560" type="curve"/>
      <point x="604" y="560" type="line"/>
      <point x="609" y="657"/>
      <point x="554" y="747"/>
      <point x="412" y="747" type="curve" smooth="yes"/>
      <point x="230" y="747"/>
      <point x="130" y="609"/>
      <point x="90" y="381" type="curve" smooth="yes"/>
      <point x="49" y="149"/>
      <point x="77" y="0"/>
      <point x="289" y="0" type="curve" smooth="yes"/>
      <point x="445" y="0"/>
      <point x="547" y="105"/>
      <point x="571" y="243" type="curve" smooth="yes"/>
      <point x="598" y="395"/>
      <point x="521" y="483"/>
      <point x="390" y="483" type="curve" smooth="yes"/>
      <point x="314" y="483"/>
      <point x="236" y="451"/>
      <point x="189" y="391" type="curve"/>
      <point x="226" y="582"/>
      <point x="291" y="652"/>
      <point x="394" y="652" type="curve" smooth="yes"/>
      <point x="466" y="652"/>
      <point x="495" y="619"/>
    </contour>
    <contour>
      <point x="273" y="387"/>
      <point x="348" y="387" type="curve" smooth="yes"/>
      <point x="444" y="387"/>
      <point x="477" y="325"/>
      <point x="461" y="238" type="curve" smooth="yes"/>
      <point x="446" y="152"/>
      <point x="384" y="95"/>
      <point x="300" y="95" type="curve" smooth="yes"/>
      <point x="203" y="95"/>
      <point x="161" y="155"/>
      <point x="177" y="245" type="curve" smooth="yes"/>
      <point x="194" y="342"/>
    </contour>
  </outline>
</glyph>
<glyph name="seven" format="2">
  <advance width="560"/>
  <unicode hex="0037"/>
  <outline>
    <contour>
      <point x="598" y="726" type="line"/>
      <point x="116" y="726" type="line"/>
      <point x="100" y="631" type="line"/>
      <point x="470" y="631" type="line"/>
      <point x="67" y="0" type="line"/>
      <point x="192" y="0" type="line"/>
      <point x="583" y="641" type="line"/>
    </contour>
  </outline>
</glyph>
<glyph name="eight" format="2">
  <advance width="638"/>
  <unicode hex="0038"/>
  <outline>
    <contour>
      <point x="144" y="422"/>
      <point x="200" y="391" type="curve"/>
      <point x="123" y="364"/>
      <point x="62" y="299"/>
      <point x="46" y="206" type="curve" smooth="yes"/>
      <point x="21" y="68"/>
      <point x="114" y="-18"/>
      <point x="264" y="-18" type="curve" smooth="yes"/>
      <point x="415" y="-18"/>
      <point x="538" y="68"/>
      <point x="563" y="206" type="curve" smooth="yes"/>
      <point x="579" y="298"/>
      <point x="541" y="363"/>
      <point x="472" y="391" type="curve"/>
      <point x="536" y="420"/>
      <point x="591" y="477"/>
      <point x="605" y="555" type="curve" smooth="yes"/>
      <point x="624" y="660"/>
      <point x="561" y="752"/>
      <point x="400" y="752" type="curve"/>
      <point x="239" y="752"/>
      <point x="144" y="661"/>
      <point x="125" y="555" type="curve" smooth="yes"/>
      <point x="111" y="474"/>
    </contour>
    <contour>
      <point x="305" y="657"/>
      <point x="383" y="657" type="curve" smooth="yes"/>
      <point x="463" y="657"/>
      <point x="507" y="616"/>
      <point x="494" y="541" type="curve" smooth="yes"/>
      <point x="482" y="475"/>
      <point x="419" y="427"/>
      <point x="343" y="427" type="curve"/>
      <point x="267" y="427"/>
      <point x="221" y="474"/>
      <point x="233" y="540" type="curve" smooth="yes"/>
      <point x="246" y="617"/>
    </contour>
    <contour>
      <point x="243" y="341"/>
      <point x="327" y="341" type="curve" smooth="yes"/>
      <point x="413" y="341"/>
      <point x="467" y="297"/>
      <point x="451" y="210" type="curve" smooth="yes"/>
      <point x="438" y="132"/>
      <point x="373" y="77"/>
      <point x="281" y="77" type="curve"/>
      <point x="188" y="77"/>
      <point x="141" y="131"/>
      <point x="155" y="210" type="curve" smooth="yes"/>
      <point x="171" y="300"/>
    </contour>
  </outline>
</glyph>
<glyph name="nine" format="2">
  <advance width="635"/>
  <unicode hex="0039"/>
  <outline>
    <contour>
      <point x="185" y="198" type="curve"/>
      <point x="80" y="198" type="line"/>
      <point x="71" y="94"/>
      <point x="125" y="1"/>
      <point x="276" y="1" type="curve" smooth="yes"/>
      <point x="467" y="1"/>
      <point x="542" y="132"/>
      <point x="585" y="378" type="curve" smooth="yes"/>
      <point x="627" y="617"/>
      <point x="587" y="746"/>
      <point x="399" y="746" type="curve" smooth="yes"/>
      <point x="246" y="746"/>
      <point x="140" y="650"/>
      <point x="114" y="505" type="curve" smooth="yes"/>
      <point x="87" y="351"/>
      <point x="177" y="272"/>
      <point x="305" y="272" type="curve" smooth="yes"/>
      <point x="371" y="272"/>
      <point x="439" y="297"/>
      <point x="480" y="343" type="curve"/>
      <point x="447" y="157"/>
      <point x="390" y="96"/>
      <point x="299" y="96" type="curve" smooth="yes"/>
      <point x="223" y="96"/>
      <point x="187" y="133"/>
    </contour>
    <contour>
      <point x="423" y="368"/>
      <point x="342" y="368" type="curve" smooth="yes"/>
      <point x="241" y="368"/>
      <point x="211" y="433"/>
      <point x="224" y="508" type="curve" smooth="yes"/>
      <point x="239" y="592"/>
      <point x="300" y="651"/>
      <point x="385" y="651" type="curve" smooth="yes"/>
      <point x="468" y="651"/>
      <point x="512" y="598"/>
      <point x="495" y="505" type="curve" smooth="yes"/>
      <point x="481" y="423"/>
    </contour>
  </outline>
</glyph>
<glyph name="less" format="2">
  <advance width="612"/>
  <unicode hex="003C"/>
  <outline>
    <contour>
      <point x="444" y="134" type="line"/>
      <point x="253" y="361" type="line"/>
      <point x="524" y="588" type="line"/>
      <point x="380" y="588" type="line"/>
      <point x="110" y="361" type="line"/>
      <point x="300" y="134" type="line"/>
    </contour>
  </outline>
</glyph>
<glyph name="equal" format="2">
  <advance width="774"/>
  <unicode hex="003D"/>
  <outline>
    <contour>
      <point x="122" y="298" type="line"/>
      <point x="104" y="197" type="line"/>
      <point x="636" y="197" type="line"/>
      <point x="654" y="298" type="line"/>
    </contour>
    <contour>
      <point x="162" y="525" type="line"/>
      <point x="144" y="424" type="line"/>
      <point x="676" y="424" type="line"/>
      <point x="694" y="525" type="line"/>
    </contour>
  </outline>
</glyph>
<glyph name="greater" format="2">
  <advance width="590"/>
  <unicode hex="003E"/>
  <outline>
    <contour>
      <point x="355" y="361" type="line"/>
      <point x="84" y="134" type="line"/>
      <point x="228" y="134" type="line"/>
      <point x="498" y="361" type="line"/>
      <point x="308" y="588" type="line"/>
      <point x="164" y="588" type="line"/>
    </contour>
  </outline>
</glyph>
<glyph name="question" format="2">
  <advance width="538"/>
  <unicode hex="003F"/>
  <outline>
    <contour>
      <point x="335" y="705" type="curve" smooth="yes"/>
      <point x="199" y="705"/>
      <point x="97" y="620"/>
      <point x="76" y="499" type="curve"/>
      <point x="183" y="499" type="line"/>
      <point x="196" y="569"/>
      <point x="248" y="609"/>
      <point x="319" y="609" type="curve" smooth="yes"/>
      <point x="391" y="609"/>
      <point x="426" y="566"/>
      <point x="414" y="496" type="curve" smooth="yes"/>
      <point x="395" y="391"/>
      <point x="305" y="371"/>
      <point x="192" y="371" type="curve" smooth="yes"/>
      <point x="159" y="371" type="line"/>
      <point x="136" y="214" type="line"/>
      <point x="235" y="214" type="line"/>
      <point x="253" y="293" type="line"/>
      <point x="387" y="293"/>
      <point x="498" y="355"/>
      <point x="523" y="496" type="curve" smooth="yes"/>
      <point x="546" y="626"/>
      <point x="469" y="705"/>
    </contour>
    <component base="period" xOffset="77"/>
  </outline>
</glyph>
<glyph name="at" format="2">
  <advance width="1026"/>
  <unicode hex="0040"/>
  <outline>
    <contour>
      <point x="610" y="118" type="line"/>
      <point x="605" y="42"/>
      <point x="642" y="-7"/>
      <point x="727" y="-7" type="curve" smooth="yes"/>
      <point x="873" y="-7"/>
      <point x="955" y="156"/>
      <point x="955" y="311" type="curve" smooth="yes"/>
      <point x="955" y="510"/>
      <point x="820" y="646"/>
      <point x="588" y="646" type="curve" smooth="yes"/>
      <point x="285" y="646"/>
      <point x="70" y="419"/>
      <point x="70" y="130" type="curve" smooth="yes"/>
      <point x="70" y="-73"/>
      <point x="213" y="-203"/>
      <point x="433" y="-203" type="curve" smooth="yes"/>
      <point x="505" y="-203"/>
      <point x="574" y="-191"/>
      <point x="637" y="-164" type="curve"/>
      <point x="622" y="-88" type="line"/>
      <point x="571" y="-113"/>
      <point x="510" y="-123"/>
      <point x="456" y="-123" type="curve" smooth="yes"/>
      <point x="270" y="-123"/>
      <point x="163" y="-33"/>
      <point x="163" y="139" type="curve" smooth="yes"/>
      <point x="163" y="382"/>
      <point x="335" y="567"/>
      <point x="574" y="567" type="curve" smooth="yes"/>
      <point x="762" y="567"/>
      <point x="863" y="475"/>
      <point x="863" y="306" type="curve" smooth="yes"/>
      <point x="863" y="210"/>
      <point x="826" y="69"/>
      <point x="744" y="69" type="curve" smooth="yes"/>
      <point x="694" y="69"/>
      <point x="691" y="104"/>
      <point x="699" y="158" type="curve" smooth="yes"/>
      <point x="749" y="444" type="line"/>
      <point x="650" y="444" type="line"/>
      <point x="630" y="330" type="line"/>
      <point x="660" y="345" type="line"/>
      <point x="643" y="417"/>
      <point x="599" y="453"/>
      <point x="519" y="453" type="curve" smooth="yes"/>
      <point x="372" y="453"/>
      <point x="271" y="317"/>
      <point x="271" y="166" type="curve" smooth="yes"/>
      <point x="271" y="61"/>
      <point x="331" y="-7"/>
      <point x="435" y="-7" type="curve" smooth="yes"/>
      <point x="518" y="-7"/>
      <point x="597" y="42"/>
      <point x="633" y="113" type="curve"/>
      <point x="610" y="150" type="line"/>
    </contour>
    <contour>
      <point x="520" y="366" type="curve" smooth="yes"/>
      <point x="587" y="366"/>
      <point x="621" y="318"/>
      <point x="621" y="257" type="curve" smooth="yes"/>
      <point x="621" y="165"/>
      <point x="556" y="81"/>
      <point x="470" y="81" type="curve" smooth="yes"/>
      <point x="405" y="81"/>
      <point x="377" y="124"/>
      <point x="377" y="183" type="curve" smooth="yes"/>
      <point x="377" y="273"/>
      <point x="430" y="366"/>
    </contour>
  </outline>
</glyph>
<glyph name="A" format="2">
  <advance width="697"/>
  <unicode hex="0041"/>
  <anchor x="612" y="0" name="ogonek"/>
  <anchor x="420" y="696" name="top"/>
  <outline>
    <contour>
      <point x="486" y="696" type="line"/>
      <point x="354" y="696" type="line"/>
      <point x="-18" y="0" type="line"/>
      <point x="101" y="0" type="line"/>
      <point x="435" y="634" type="line"/>
      <point x="382" y="634" type="line"/>
      <point x="492" y="0" type="line"/>
      <point x="612" y="0" type="line"/>
    </contour>
    <contour>
      <point x="156" y="231" type="line"/>
      <point x="111" y="142" type="line"/>
      <point x="527" y="142" type="line"/>
      <point x="513" y="231" type="line"/>
    </contour>
  </outline>
</glyph>
<glyph name="B" format="2">
  <advance width="630"/>
  <unicode hex="0042"/>
  <outline>
    <contour>
      <point x="497" y="567"/>
      <point x="486" y="502" type="curve" smooth="yes"/>
      <point x="475" y="438"/>
      <point x="423" y="400"/>
      <point x="349" y="400" type="curve" smooth="yes"/>
      <point x="208" y="400" type="line"/>
      <point x="244" y="606" type="line"/>
      <point x="385" y="606" type="line" smooth="yes"/>
      <point x="459" y="606"/>
    </contour>
    <contour>
      <point x="544" y="81"/>
      <point x="562" y="187" type="curve" smooth="yes"/>
      <point x="578" y="277"/>
      <point x="522" y="356"/>
      <point x="440" y="359" type="curve"/>
      <point x="421" y="347" type="line"/>
      <point x="508" y="364"/>
      <point x="587" y="417"/>
      <point x="604" y="516" type="curve" smooth="yes"/>
      <point x="622" y="614"/>
      <point x="558" y="695"/>
      <point x="411" y="695" type="curve" smooth="yes"/>
      <point x="146" y="695" type="line"/>
      <point x="23" y="0" type="line"/>
      <point x="301" y="0" type="line" smooth="yes"/>
      <point x="443" y="0"/>
    </contour>
    <contour>
      <point x="463" y="268"/>
      <point x="450" y="199" type="curve" smooth="yes"/>
      <point x="438" y="130"/>
      <point x="384" y="89"/>
      <point x="307" y="89" type="curve" smooth="yes"/>
      <point x="153" y="89" type="line"/>
      <point x="192" y="311" type="line"/>
      <point x="342" y="311" type="line" smooth="yes"/>
      <point x="418" y="311"/>
    </contour>
  </outline>
</glyph>
<glyph name="C" format="2">
  <advance width="773"/>
  <unicode hex="0043"/>
  <anchor x="334" y="0" name="bottom"/>
  <anchor x="457" y="696" name="top"/>
  <outline>
    <contour>
      <point x="84" y="557"/>
      <point x="47" y="349" type="curve" smooth="yes"/>
      <point x="10" y="140"/>
      <point x="143" y="-6"/>
      <point x="339" y="-6" type="curve" smooth="yes"/>
      <point x="484" y="-6"/>
      <point x="622" y="66"/>
      <point x="699" y="202" type="curve"/>
      <point x="562" y="202" type="line"/>
      <point x="513" y="132"/>
      <point x="440" y="97"/>
      <point x="357" y="97" type="curve" smooth="yes"/>
      <point x="219" y="97"/>
      <point x="137" y="196"/>
      <point x="164" y="349" type="curve" smooth="yes"/>
      <point x="191" y="502"/>
      <point x="308" y="600"/>
      <point x="446" y="600" type="curve" smooth="yes"/>
      <point x="529" y="600"/>
      <point x="589" y="565"/>
      <point x="614" y="495" type="curve"/>
      <point x="751" y="495" type="line"/>
      <point x="722" y="631"/>
      <point x="609" y="704"/>
      <point x="464" y="704" type="curve" smooth="yes"/>
      <point x="268" y="704"/>
    </contour>
  </outline>
</glyph>
<glyph name="D" format="2">
  <advance width="709"/>
  <unicode hex="0044"/>
  <anchor x="426" y="696" name="top"/>
  <outline>
    <contour>
      <point x="596" y="695"/>
      <point x="373" y="695" type="curve" smooth="yes"/>
      <point x="146" y="695" type="line"/>
      <point x="23" y="0" type="line"/>
      <point x="250" y="0" type="line" smooth="yes"/>
      <point x="473" y="0"/>
      <point x="642" y="131"/>
      <point x="680" y="345" type="curve" smooth="yes"/>
      <point x="718" y="560"/>
    </contour>
    <contour>
      <point x="266" y="87" type="curve" smooth="yes"/>
      <point x="153" y="87" type="line"/>
      <point x="244" y="603" type="line"/>
      <point x="357" y="603" type="line" smooth="yes"/>
      <point x="521" y="603"/>
      <point x="591" y="504"/>
      <point x="563" y="345" type="curve" smooth="yes"/>
      <point x="535" y="187"/>
      <point x="430" y="87"/>
    </contour>
  </outline>
</glyph>
<glyph name="E" format="2">
  <advance width="524"/>
  <unicode hex="0045"/>
  <anchor x="210" y="0" name="bottom"/>
  <anchor x="407" y="0" name="ogonek"/>
  <anchor x="333" y="696" name="top"/>
  <outline>
    <contour>
      <point x="514" y="607" type="line"/>
      <point x="530" y="696" type="line"/>
      <point x="146" y="696" type="line"/>
      <point x="23" y="0" type="line"/>
      <point x="407" y="0" type="line"/>
      <point x="423" y="89" type="line"/>
      <point x="153" y="89" type="line"/>
      <point x="192" y="308" type="line"/>
      <point x="432" y="308" type="line"/>
      <point x="447" y="396" type="line"/>
      <point x="207" y="396" type="line"/>
      <point x="244" y="607" type="line"/>
    </contour>
  </outline>
</glyph>
<glyph name="F" format="2">
  <advance width="515"/>
  <unicode hex="0046"/>
  <outline>
    <contour>
      <point x="146" y="695" type="line"/>
      <point x="23" y="0" type="line"/>
      <point x="137" y="0" type="line"/>
      <point x="191" y="307" type="line"/>
      <point x="421" y="307" type="line"/>
      <point x="437" y="395" type="line"/>
      <point x="207" y="395" type="line"/>
      <point x="244" y="606" type="line"/>
      <point x="539" y="606" type="line"/>
      <point x="555" y="695" type="line"/>
    </contour>
  </outline>
</glyph>
<glyph name="G" format="2">
  <advance width="773"/>
  <unicode hex="0047"/>
  <anchor x="334" y="0" name="bottom"/>
  <anchor x="457" y="696" name="top"/>
  <outline>
    <contour>
      <point x="751" y="495" type="line"/>
      <point x="722" y="631"/>
      <point x="609" y="704"/>
      <point x="464" y="704" type="curve" smooth="yes"/>
      <point x="268" y="704"/>
      <point x="84" y="557"/>
      <point x="47" y="349" type="curve" smooth="yes"/>
      <point x="10" y="140"/>
      <point x="143" y="-6"/>
      <point x="339" y="-6" type="curve" smooth="yes"/>
      <point x="526" y="-6"/>
      <point x="686" y="131"/>
      <point x="736" y="292" type="curve"/>
      <point x="752" y="381" type="line"/>
      <point x="369" y="381" type="line"/>
      <point x="353" y="292" type="line"/>
      <point x="614" y="292" type="line"/>
      <point x="577" y="174"/>
      <point x="483" y="97"/>
      <point x="357" y="97" type="curve" smooth="yes"/>
      <point x="219" y="97"/>
      <point x="137" y="196"/>
      <point x="164" y="349" type="curve" smooth="yes"/>
      <point x="191" y="502"/>
      <point x="308" y="600"/>
      <point x="446" y="600" type="curve" smooth="yes"/>
      <point x="529" y="600"/>
      <point x="589" y="565"/>
      <point x="614" y="495" type="curve"/>
    </contour>
  </outline>
</glyph>
<glyph name="H" format="2">
  <advance width="705"/>
  <unicode hex="0048"/>
  <guideline x="471" y="675" angle="0"/>
  <outline>
    <contour>
      <point x="146" y="695" type="line"/>
      <point x="23" y="0" type="line"/>
      <point x="137" y="0" type="line"/>
      <point x="260" y="695" type="line"/>
    </contour>
    <contour>
      <point x="587" y="695" type="line"/>
      <point x="464" y="0" type="line"/>
      <point x="578" y="0" type="line"/>
      <point x="701" y="695" type="line"/>
    </contour>
    <contour>
      <point x="187" y="395" type="line"/>
      <point x="171" y="307" type="line"/>
      <point x="545" y="307" type="line"/>
      <point x="561" y="395" type="line"/>
    </contour>
  </outline>
</glyph>
<glyph name="I" format="2">
  <advance width="264"/>
  <unicode hex="0049"/>
  <anchor x="138" y="1" name="ogonek"/>
  <anchor x="203" y="696" name="top"/>
  <outline>
    <contour>
      <point x="146" y="695" type="line"/>
      <point x="23" y="0" type="line"/>
      <point x="137" y="0" type="line"/>
      <point x="260" y="695" type="line"/>
    </contour>
  </outline>
</glyph>
<glyph name="J" format="2">
  <advance width="564"/>
  <unicode hex="004A"/>
  <outline>
    <contour>
      <point x="410" y="695" type="line"/>
      <point x="322" y="194" type="line" smooth="yes"/>
      <point x="311" y="136"/>
      <point x="275" y="94"/>
      <point x="214" y="94" type="curve" smooth="yes"/>
      <point x="153" y="94"/>
      <point x="132" y="136"/>
      <point x="142" y="194" type="curve"/>
      <point x="27" y="194" type="line"/>
      <point x="4" y="68"/>
      <point x="76" y="-7"/>
      <point x="196" y="-7" type="curve" smooth="yes"/>
      <point x="316" y="-7"/>
      <point x="414" y="68"/>
      <point x="437" y="194" type="curve" smooth="yes"/>
      <point x="525" y="695" type="line"/>
    </contour>
  </outline>
</glyph>
<glyph name="K" format="2">
  <advance width="633"/>
  <unicode hex="004B"/>
  <anchor x="265" y="0" name="bottom"/>
  <anchor x="388" y="696" name="top"/>
  <outline>
    <contour>
      <point x="146" y="695" type="line"/>
      <point x="23" y="0" type="line"/>
      <point x="137" y="0" type="line"/>
      <point x="260" y="695" type="line"/>
    </contour>
    <contour>
      <point x="530" y="695" type="line"/>
      <point x="169" y="344" type="line"/>
      <point x="406" y="0" type="line"/>
      <point x="555" y="0" type="line"/>
      <point x="300" y="360" type="line"/>
      <point x="282" y="321" type="line"/>
      <point x="673" y="695" type="line"/>
    </contour>
  </outline>
</glyph>
<glyph name="L" format="2">
  <advance width="444"/>
  <unicode hex="004C"/>
  <anchor x="196" y="0" name="bottom"/>
  <anchor x="198" y="10" name="commaaccent"/>
  <anchor x="293" y="696" name="top"/>
  <anchor x="495" y="696" name="topright"/>
  <outline>
    <contour>
      <point x="260" y="695" type="line"/>
      <point x="146" y="695" type="line"/>
      <point x="23" y="0" type="line"/>
      <point x="372" y="0" type="line"/>
      <point x="388" y="87" type="line"/>
      <point x="153" y="87" type="line"/>
    </contour>
  </outline>
</glyph>
<glyph name="M" format="2">
  <advance width="882"/>
  <unicode hex="004D"/>
  <outline>
    <contour>
      <point x="146" y="695" type="line"/>
      <point x="23" y="0" type="line"/>
      <point x="137" y="0" type="line"/>
      <point x="240" y="584" type="line"/>
      <point x="193" y="579" type="line"/>
      <point x="350" y="0" type="line"/>
      <point x="429" y="0" type="line"/>
      <point x="789" y="579" type="line"/>
      <point x="744" y="584" type="line"/>
      <point x="641" y="0" type="line"/>
      <point x="755" y="0" type="line"/>
      <point x="878" y="695" type="line"/>
      <point x="756" y="695" type="line"/>
      <point x="388" y="104" type="line"/>
      <point x="429" y="104" type="line"/>
      <point x="269" y="695" type="line"/>
    </contour>
  </outline>
</glyph>
<glyph name="N" format="2">
  <advance width="721"/>
  <unicode hex="004E"/>
  <anchor x="309" y="0" name="bottom"/>
  <anchor x="432" y="696" name="top"/>
  <outline>
    <contour>
      <point x="717" y="696" type="line"/>
      <point x="603" y="696" type="line"/>
      <point x="512" y="178" type="line"/>
      <point x="260" y="696" type="line"/>
      <point x="146" y="696" type="line"/>
      <point x="23" y="0" type="line"/>
      <point x="137" y="0" type="line"/>
      <point x="229" y="519" type="line"/>
      <point x="480" y="0" type="line"/>
      <point x="594" y="0" type="line"/>
    </contour>
  </outline>
</glyph>
<glyph name="O" format="2">
  <advance width="784"/>
  <unicode hex="004F"/>
  <anchor x="460" y="704" name="top"/>
  <outline>
    <contour>
      <point x="343" y="-7" type="curve" smooth="yes"/>
      <point x="582" y="-7"/>
      <point x="757" y="170"/>
      <point x="757" y="412" type="curve" smooth="yes"/>
      <point x="757" y="583"/>
      <point x="640" y="704"/>
      <point x="460" y="704" type="curve" smooth="yes"/>
      <point x="223" y="704"/>
      <point x="47" y="527"/>
      <point x="47" y="286" type="curve" smooth="yes"/>
      <point x="47" y="114"/>
      <point x="165" y="-7"/>
    </contour>
    <contour>
      <point x="359" y="96" type="curve" smooth="yes"/>
      <point x="237" y="96"/>
      <point x="165" y="172"/>
      <point x="165" y="293" type="curve" smooth="yes"/>
      <point x="165" y="460"/>
      <point x="276" y="600"/>
      <point x="444" y="600" type="curve" smooth="yes"/>
      <point x="567" y="600"/>
      <point x="639" y="525"/>
      <point x="639" y="404" type="curve" smooth="yes"/>
      <point x="639" y="238"/>
      <point x="527" y="96"/>
    </contour>
  </outline>
</glyph>
<glyph name="P" format="2">
  <advance width="595"/>
  <unicode hex="0050"/>
  <outline>
    <contour>
      <point x="329" y="371" type="curve" smooth="yes"/>
      <point x="203" y="371" type="line"/>
      <point x="244" y="606" type="line"/>
      <point x="370" y="606" type="line" smooth="yes"/>
      <point x="459" y="606"/>
      <point x="491" y="560"/>
      <point x="478" y="488" type="curve" smooth="yes"/>
      <point x="466" y="418"/>
      <point x="418" y="371"/>
    </contour>
    <contour>
      <point x="578" y="389"/>
      <point x="595" y="488" type="curve" smooth="yes"/>
      <point x="615" y="601"/>
      <point x="551" y="695"/>
      <point x="386" y="695" type="curve" smooth="yes"/>
      <point x="146" y="695" type="line"/>
      <point x="23" y="0" type="line"/>
      <point x="137" y="0" type="line"/>
      <point x="187" y="282" type="line"/>
      <point x="313" y="282" type="line" smooth="yes"/>
      <point x="494" y="282"/>
    </contour>
  </outline>
</glyph>
<glyph name="Q" format="2">
  <advance width="787"/>
  <unicode hex="0051"/>
  <outline>
    <contour>
      <point x="522" y="85" type="line"/>
      <point x="408" y="50" type="line"/>
      <point x="539" y="-126" type="line"/>
      <point x="684" y="-126" type="line"/>
    </contour>
    <component base="O"/>
  </outline>
</glyph>
<glyph name="R" format="2">
  <advance width="632"/>
  <unicode hex="0052"/>
  <anchor x="264" y="0" name="bottom"/>
  <anchor x="387" y="696" name="top"/>
  <outline>
    <contour>
      <point x="491" y="559"/>
      <point x="478" y="487" type="curve" smooth="yes"/>
      <point x="466" y="417"/>
      <point x="417" y="368"/>
      <point x="328" y="368" type="curve" smooth="yes"/>
      <point x="202" y="368" type="line"/>
      <point x="244" y="606" type="line"/>
      <point x="370" y="606" type="line" smooth="yes"/>
      <point x="459" y="606"/>
    </contour>
    <contour>
      <point x="386" y="695" type="curve" smooth="yes"/>
      <point x="146" y="695" type="line"/>
      <point x="23" y="0" type="line"/>
      <point x="137" y="0" type="line"/>
      <point x="186" y="278" type="line"/>
      <point x="312" y="278" type="line" smooth="yes"/>
      <point x="493" y="278"/>
      <point x="578" y="388"/>
      <point x="595" y="487" type="curve" smooth="yes"/>
      <point x="615" y="600"/>
      <point x="551" y="695"/>
    </contour>
    <contour>
      <point x="388" y="315" type="line"/>
      <point x="259" y="315" type="line"/>
      <point x="384" y="0" type="line"/>
      <point x="520" y="0" type="line"/>
    </contour>
  </outline>
</glyph>
<glyph name="T" format="2">
  <advance width="564"/>
  <unicode hex="0054"/>
  <anchor x="228" y="0" name="bottom"/>
  <anchor x="353" y="696" name="top"/>
  <outline>
    <contour>
      <point x="110" y="695" type="line"/>
      <point x="94" y="606" type="line"/>
      <point x="280" y="606" type="line"/>
      <point x="173" y="0" type="line"/>
      <point x="287" y="0" type="line"/>
      <point x="394" y="606" type="line"/>
      <point x="579" y="606" type="line"/>
      <point x="595" y="695" type="line"/>
    </contour>
  </outline>
</glyph>
<glyph name="U" format="2">
  <advance width="690"/>
  <unicode hex="0055"/>
  <anchor x="366" y="0" name="ogonek"/>
  <anchor x="416" y="696" name="top"/>
  <outline>
    <contour>
      <point x="145" y="695" type="line"/>
      <point x="67" y="254" type="line" smooth="yes"/>
      <point x="36" y="77"/>
      <point x="145" y="-7"/>
      <point x="291" y="-7" type="curve" smooth="yes"/>
      <point x="436" y="-7"/>
      <point x="579" y="77"/>
      <point x="610" y="254" type="curve" smooth="yes"/>
      <point x="688" y="695" type="line"/>
      <point x="574" y="695" type="line"/>
      <point x="496" y="254" type="line" smooth="yes"/>
      <point x="477" y="146"/>
      <point x="407" y="95"/>
      <point x="310" y="95" type="curve" smooth="yes"/>
      <point x="214" y="95"/>
      <point x="162" y="146"/>
      <point x="181" y="254" type="curve" smooth="yes"/>
      <point x="259" y="695" type="line"/>
    </contour>
  </outline>
</glyph>
<glyph name="V" format="2">
  <advance width="694"/>
  <unicode hex="0056"/>
  <outline>
    <contour>
      <point x="90" y="695" type="line"/>
      <point x="229" y="0" type="line"/>
      <point x="361" y="0" type="line"/>
      <point x="745" y="695" type="line"/>
      <point x="624" y="695" type="line"/>
      <point x="315" y="118" type="line"/>
      <point x="212" y="695" type="line"/>
    </contour>
  </outline>
</glyph>
<glyph name="W" format="2">
  <advance width="999"/>
  <unicode hex="0057"/>
  <outline>
    <contour>
      <point x="90" y="695" type="line"/>
      <point x="164" y="-1" type="line"/>
      <point x="292" y="0" type="line"/>
      <point x="564" y="578" type="line"/>
      <point x="534" y="578" type="line"/>
      <point x="593" y="0" type="line"/>
      <point x="722" y="0" type="line"/>
      <point x="1051" y="695" type="line"/>
      <point x="929" y="695" type="line"/>
      <point x="656" y="66" type="line"/>
      <point x="690" y="65" type="line"/>
      <point x="639" y="695" type="line"/>
      <point x="511" y="695" type="line"/>
      <point x="227" y="67" type="line"/>
      <point x="260" y="67" type="line"/>
      <point x="211" y="695" type="line"/>
    </contour>
  </outline>
</glyph>
<glyph name="X" format="2">
  <advance width="660"/>
  <unicode hex="0058"/>
  <outline>
    <contour>
      <point x="121" y="695" type="line"/>
      <point x="430" y="0" type="line"/>
      <point x="558" y="0" type="line"/>
      <point x="249" y="695" type="line"/>
    </contour>
    <contour>
      <point x="346" y="290" type="line"/>
      <point x="300" y="378" type="line"/>
      <point x="-2" y="0" type="line"/>
      <point x="126" y="0" type="line"/>
    </contour>
    <contour>
      <point x="334" y="405" type="line"/>
      <point x="380" y="317" type="line"/>
      <point x="682" y="695" type="line"/>
      <point x="554" y="695" type="line"/>
    </contour>
  </outline>
</glyph>
<glyph name="Y" format="2">
  <advance width="605"/>
  <unicode hex="0059"/>
  <anchor x="374" y="696" name="top"/>
  <outline>
    <contour>
      <point x="86" y="695" type="line"/>
      <point x="239" y="252" type="line"/>
      <point x="194" y="0" type="line"/>
      <point x="308" y="0" type="line"/>
      <point x="353" y="252" type="line"/>
      <point x="661" y="695" type="line"/>
      <point x="533" y="695" type="line"/>
      <point x="277" y="300" type="line"/>
      <point x="330" y="300" type="line"/>
      <point x="213" y="695" type="line"/>
    </contour>
  </outline>
</glyph>
<glyph name="Z" format="2">
  <advance width="558"/>
  <unicode hex="005A"/>
  <anchor x="350" y="696" name="top"/>
  <outline>
    <contour>
      <point x="563" y="606" type="line"/>
      <point x="579" y="695" type="line"/>
      <point x="121" y="695" type="line"/>
      <point x="103" y="596" type="line"/>
      <point x="425" y="596" type="line"/>
      <point x="14" y="89" type="line"/>
      <point x="-2" y="0" type="line"/>
      <point x="456" y="0" type="line"/>
      <point x="474" y="99" type="line"/>
      <point x="151" y="99" type="line"/>
    </contour>
  </outline>
</glyph>
<glyph name="bracketleft" format="2">
  <advance width="485"/>
  <unicode hex="005B"/>
  <outline>
    <contour>
      <point x="263" y="944" type="line"/>
      <point x="65" y="-176" type="line"/>
      <point x="273" y="-176" type="line"/>
      <point x="290" y="-81" type="line"/>
      <point x="189" y="-81" type="line"/>
      <point x="353" y="850" type="line"/>
      <point x="454" y="850" type="line"/>
      <point x="471" y="944" type="line"/>
    </contour>
  </outline>
</glyph>
<glyph name="backslash" format="2">
  <advance width="532"/>
  <unicode hex="005C"/>
  <outline>
    <contour>
      <point x="369" y="-175" type="line"/>
      <point x="307" y="944" type="line"/>
      <point x="195" y="944" type="line"/>
      <point x="257" y="-175" type="line"/>
    </contour>
  </outline>
</glyph>
<glyph name="bracketright" format="2">
  <advance width="484"/>
  <unicode hex="005D"/>
  <outline>
    <contour>
      <point x="452" y="934" type="line"/>
      <point x="244" y="934" type="line"/>
      <point x="228" y="840" type="line"/>
      <point x="329" y="840" type="line"/>
      <point x="164" y="-91" type="line"/>
      <point x="63" y="-91" type="line"/>
      <point x="47" y="-186" type="line"/>
      <point x="255" y="-186" type="line"/>
    </contour>
  </outline>
</glyph>
<glyph name="asciicircum" format="2">
  <advance width="654"/>
  <unicode hex="005E"/>
  <outline>
    <contour>
      <point x="375" y="558" type="line"/>
      <point x="478" y="168" type="line"/>
      <point x="597" y="168" type="line"/>
      <point x="452" y="696" type="line"/>
      <point x="344" y="696" type="line"/>
      <point x="14" y="168" type="line"/>
      <point x="132" y="168" type="line"/>
    </contour>
  </outline>
</glyph>
<glyph name="underscore" format="2">
  <advance width="798"/>
  <unicode hex="005F"/>
  <outline>
    <contour>
      <point x="67" y="-40" type="line"/>
      <point x="49" y="-146" type="line"/>
      <point x="607" y="-146" type="line"/>
      <point x="625" y="-40" type="line"/>
    </contour>
  </outline>
</glyph>
<glyph name="gravecomb" format="2">
  <advance width="254"/>
  <unicode hex="0060"/>
  <anchor x="173" y="551" name="_top"/>
  <outline>
    <contour>
      <point x="99" y="796" type="line"/>
      <point x="82" y="699" type="line"/>
      <point x="283" y="590" type="line"/>
      <point x="298" y="674" type="line"/>
    </contour>
  </outline>
</glyph>
<glyph name="a" format="2">
  <advance width="678"/>
  <unicode hex="0061"/>
  <guideline x="351" y="66" angle="0"/>
  <guideline x="544" y="446" angle="0"/>
  <anchor x="551" y="0" name="ogonek"/>
  <anchor x="384" y="551" name="top"/>
  <outline>
    <contour>
      <point x="64" y="448"/>
      <point x="34" y="278" type="curve" smooth="yes"/>
      <point x="4" y="108"/>
      <point x="99" y="-9"/>
      <point x="242" y="-9" type="curve" smooth="yes"/>
      <point x="334" y="-9"/>
      <point x="408" y="35"/>
      <point x="451" y="82" type="curve"/>
      <point x="436" y="0" type="line"/>
      <point x="551" y="0" type="line"/>
      <point x="648" y="551" type="line"/>
      <point x="533" y="551" type="line"/>
      <point x="519" y="471" type="line"/>
      <point x="493" y="516"/>
      <point x="437" y="560"/>
      <point x="344" y="560" type="curve" smooth="yes"/>
      <point x="199" y="560"/>
    </contour>
    <contour>
      <point x="506" y="394"/>
      <point x="485" y="276" type="curve" smooth="yes"/>
      <point x="464" y="157"/>
      <point x="371" y="90"/>
      <point x="285" y="90" type="curve" smooth="yes"/>
      <point x="200" y="90"/>
      <point x="130" y="159"/>
      <point x="151" y="278" type="curve" smooth="yes"/>
      <point x="172" y="397"/>
      <point x="266" y="461"/>
      <point x="351" y="461" type="curve" smooth="yes"/>
      <point x="437" y="461"/>
    </contour>
  </outline>
</glyph>
<glyph name="c" format="2">
  <advance width="600"/>
  <unicode hex="0063"/>
  <anchor x="248" y="0" name="bottom"/>
  <anchor x="345" y="551" name="top"/>
  <outline>
    <contour>
      <point x="64" y="448"/>
      <point x="34" y="276" type="curve" smooth="yes"/>
      <point x="3" y="103"/>
      <point x="96" y="-9"/>
      <point x="254" y="-9" type="curve" smooth="yes"/>
      <point x="389" y="-9"/>
      <point x="490" y="66"/>
      <point x="540" y="174" type="curve"/>
      <point x="417" y="174" type="line"/>
      <point x="386" y="117"/>
      <point x="339" y="87"/>
      <point x="271" y="87" type="curve" smooth="yes"/>
      <point x="179" y="87"/>
      <point x="130" y="155"/>
      <point x="151" y="276" type="curve" smooth="yes"/>
      <point x="172" y="396"/>
      <point x="245" y="464"/>
      <point x="337" y="464" type="curve" smooth="yes"/>
      <point x="405" y="464"/>
      <point x="443" y="430"/>
      <point x="453" y="377" type="curve"/>
      <point x="576" y="377" type="line"/>
      <point x="565" y="493"/>
      <point x="489" y="560"/>
      <point x="354" y="560" type="curve" smooth="yes"/>
      <point x="196" y="560"/>
    </contour>
  </outline>
</glyph>
<glyph name="d" format="2">
  <advance width="678"/>
  <unicode hex="0064"/>
  <anchor x="682" y="740" name="topright"/>
  <outline>
    <contour>
      <point x="64" y="448"/>
      <point x="34" y="278" type="curve" smooth="yes"/>
      <point x="4" y="108"/>
      <point x="99" y="-9"/>
      <point x="244" y="-9" type="curve" smooth="yes"/>
      <point x="334" y="-9"/>
      <point x="407" y="33"/>
      <point x="451" y="83" type="curve"/>
      <point x="436" y="0" type="line"/>
      <point x="551" y="0" type="line"/>
      <point x="682" y="740" type="line"/>
      <point x="567" y="740" type="line"/>
      <point x="520" y="474" type="line"/>
      <point x="487" y="526"/>
      <point x="417" y="560"/>
      <point x="345" y="560" type="curve" smooth="yes"/>
      <point x="199" y="560"/>
    </contour>
    <contour>
      <point x="506" y="394"/>
      <point x="485" y="276" type="curve" smooth="yes"/>
      <point x="464" y="157"/>
      <point x="371" y="90"/>
      <point x="285" y="90" type="curve" smooth="yes"/>
      <point x="200" y="90"/>
      <point x="130" y="159"/>
      <point x="151" y="278" type="curve" smooth="yes"/>
      <point x="172" y="397"/>
      <point x="266" y="461"/>
      <point x="351" y="461" type="curve" smooth="yes"/>
      <point x="437" y="461"/>
    </contour>
  </outline>
</glyph>
<glyph name="e" format="2">
  <advance width="617"/>
  <unicode hex="0065"/>
  <anchor x="257" y="0" name="bottom"/>
  <anchor x="369" y="14" name="ogonek"/>
  <anchor x="354" y="551" name="top"/>
  <outline>
    <contour>
      <point x="141" y="319" type="line"/>
      <point x="125" y="237" type="line"/>
      <point x="566" y="237" type="line"/>
      <point x="572" y="256"/>
      <point x="577" y="274"/>
      <point x="580" y="291" type="curve" smooth="yes"/>
      <point x="608" y="451"/>
      <point x="516" y="560"/>
      <point x="359" y="560" type="curve" smooth="yes"/>
      <point x="196" y="560"/>
      <point x="65" y="449"/>
      <point x="34" y="276" type="curve" smooth="yes"/>
      <point x="3" y="103"/>
      <point x="101" y="-9"/>
      <point x="259" y="-9" type="curve" smooth="yes"/>
      <point x="394" y="-9"/>
      <point x="494" y="68"/>
      <point x="542" y="164" type="curve"/>
      <point x="419" y="164" type="line"/>
      <point x="391" y="121"/>
      <point x="346" y="87"/>
      <point x="276" y="87" type="curve" smooth="yes"/>
      <point x="187" y="87"/>
      <point x="129" y="150"/>
      <point x="147" y="251" type="curve" smooth="yes"/>
      <point x="154" y="295" type="line" smooth="yes"/>
      <point x="173" y="400"/>
      <point x="251" y="464"/>
      <point x="337" y="464" type="curve" smooth="yes"/>
      <point x="422" y="464"/>
      <point x="480" y="410"/>
      <point x="466" y="319" type="curve"/>
    </contour>
  </outline>
</glyph>
<glyph name="f" format="2">
  <advance width="332"/>
  <unicode hex="0066"/>
  <outline>
    <contour>
      <point x="141" y="590" type="curve" smooth="yes"/>
      <point x="37" y="0" type="line"/>
      <point x="152" y="0" type="line"/>
      <point x="256" y="590" type="line" smooth="yes"/>
      <point x="267" y="653"/>
      <point x="296" y="677"/>
      <point x="366" y="677" type="curve"/>
      <point x="382" y="772" type="line"/>
      <point x="238" y="772"/>
      <point x="164" y="717"/>
    </contour>
    <contour>
      <point x="69" y="551" type="line"/>
      <point x="53" y="458" type="line"/>
      <point x="335" y="458" type="line"/>
      <point x="351" y="551" type="line"/>
    </contour>
  </outline>
</glyph>
<glyph name="g" format="2">
  <advance width="678"/>
  <unicode hex="0067"/>
  <anchor x="384" y="551" name="top"/>
  <outline>
    <contour>
      <point x="344" y="560" type="curve" smooth="yes"/>
      <point x="199" y="560"/>
      <point x="64" y="448"/>
      <point x="34" y="278" type="curve" smooth="yes"/>
      <point x="4" y="108"/>
      <point x="99" y="-9"/>
      <point x="244" y="-9" type="curve" smooth="yes"/>
      <point x="334" y="-9"/>
      <point x="408" y="36"/>
      <point x="451" y="83" type="curve"/>
      <point x="435" y="-9" type="line" smooth="yes"/>
      <point x="415" y="-119"/>
      <point x="340" y="-173"/>
      <point x="252" y="-173" type="curve" smooth="yes"/>
      <point x="173" y="-173"/>
      <point x="119" y="-134"/>
      <point x="112" y="-77" type="curve"/>
      <point x="-1" y="-77" type="line"/>
      <point x="-9" y="-199"/>
      <point x="87" y="-272"/>
      <point x="234" y="-272" type="curve" smooth="yes"/>
      <point x="406" y="-272"/>
      <point x="523" y="-159"/>
      <point x="550" y="-9" type="curve" smooth="yes"/>
      <point x="648" y="551" type="line"/>
      <point x="533" y="551" type="line"/>
      <point x="519" y="471" type="line"/>
      <point x="494" y="518"/>
      <point x="434" y="560"/>
    </contour>
    <contour>
      <point x="506" y="394"/>
      <point x="485" y="276" type="curve" smooth="yes"/>
      <point x="464" y="157"/>
      <point x="371" y="90"/>
      <point x="285" y="90" type="curve" smooth="yes"/>
      <point x="200" y="90"/>
      <point x="130" y="159"/>
      <point x="151" y="278" type="curve" smooth="yes"/>
      <point x="172" y="397"/>
      <point x="266" y="461"/>
      <point x="351" y="461" type="curve" smooth="yes"/>
      <point x="437" y="461"/>
    </contour>
  </outline>
</glyph>
<glyph name="h" format="2">
  <advance width="649"/>
  <unicode hex="0068"/>
  <outline>
    <contour>
      <point x="154" y="740" type="line"/>
      <point x="23" y="0" type="line"/>
      <point x="137" y="0" type="line"/>
      <point x="268" y="740" type="line"/>
    </contour>
    <contour>
      <point x="469" y="308" type="curve" smooth="yes"/>
      <point x="414" y="0" type="line"/>
      <point x="527" y="0" type="line"/>
      <point x="585" y="325" type="line" smooth="yes"/>
      <point x="612" y="479"/>
      <point x="530" y="560"/>
      <point x="407" y="560" type="curve" smooth="yes"/>
      <point x="311" y="560"/>
      <point x="221" y="510"/>
      <point x="184" y="432" type="curve"/>
      <point x="192" y="308" type="line"/>
      <point x="209" y="409"/>
      <point x="274" y="461"/>
      <point x="358" y="461" type="curve" smooth="yes"/>
      <point x="441" y="461"/>
      <point x="486" y="409"/>
    </contour>
  </outline>
</glyph>
<glyph name="i" format="2">
  <advance width="264"/>
  <unicode hex="0069"/>
  <anchor x="138" y="1" name="ogonek"/>
  <outline>
    <contour>
      <point x="120" y="551" type="line"/>
      <point x="23" y="0" type="line"/>
      <point x="137" y="0" type="line"/>
      <point x="234" y="551" type="line"/>
    </contour>
    <contour>
      <point x="150" y="624"/>
      <point x="191" y="624" type="curve" smooth="yes"/>
      <point x="231" y="624"/>
      <point x="269" y="656"/>
      <point x="276" y="697" type="curve" smooth="yes"/>
      <point x="283" y="738"/>
      <point x="257" y="770"/>
      <point x="217" y="770" type="curve" smooth="yes"/>
      <point x="176" y="770"/>
      <point x="138" y="738"/>
      <point x="131" y="697" type="curve" smooth="yes"/>
      <point x="124" y="656"/>
    </contour>
  </outline>
</glyph>
<glyph name="j" format="2">
  <advance width="264"/>
  <unicode hex="006A"/>
  <outline>
    <contour>
      <point x="150" y="624"/>
      <point x="191" y="624" type="curve" smooth="yes"/>
      <point x="231" y="624"/>
      <point x="269" y="656"/>
      <point x="276" y="697" type="curve" smooth="yes"/>
      <point x="283" y="738"/>
      <point x="257" y="770"/>
      <point x="217" y="770" type="curve" smooth="yes"/>
      <point x="176" y="770"/>
      <point x="138" y="738"/>
      <point x="131" y="697" type="curve" smooth="yes"/>
      <point x="124" y="656"/>
    </contour>
    <contour>
      <point x="234" y="551" type="line"/>
      <point x="120" y="551" type="line"/>
      <point x="4" y="-108" type="line" smooth="yes"/>
      <point x="-3" y="-149"/>
      <point x="-22" y="-166"/>
      <point x="-70" y="-166" type="curve" smooth="yes"/>
      <point x="-109" y="-166" type="line"/>
      <point x="-126" y="-262" type="line"/>
      <point x="-67" y="-262" type="line" smooth="yes"/>
      <point x="31" y="-262"/>
      <point x="99" y="-220"/>
      <point x="118" y="-108" type="curve" smooth="yes"/>
    </contour>
  </outline>
</glyph>
<glyph name="k" format="2">
  <advance width="554"/>
  <unicode hex="006B"/>
  <anchor x="225" y="0" name="bottom"/>
  <outline>
    <contour>
      <point x="154" y="740" type="line"/>
      <point x="23" y="0" type="line"/>
      <point x="137" y="0" type="line"/>
      <point x="268" y="740" type="line"/>
    </contour>
    <contour>
      <point x="434" y="551" type="line"/>
      <point x="154" y="273" type="line"/>
      <point x="341" y="0" type="line"/>
      <point x="495" y="0" type="line"/>
      <point x="280" y="288" type="line"/>
      <point x="267" y="255" type="line"/>
      <point x="592" y="551" type="line"/>
    </contour>
  </outline>
</glyph>
<glyph name="l" format="2">
  <advance width="264"/>
  <unicode hex="006C"/>
  <anchor x="80" y="0" name="bottom"/>
  <anchor x="82" y="10" name="commaaccent"/>
  <anchor x="211" y="740" name="top"/>
  <anchor x="289" y="551" name="topright"/>
  <outline>
    <contour>
      <point x="154" y="740" type="line"/>
      <point x="23" y="0" type="line"/>
      <point x="137" y="0" type="line"/>
      <point x="268" y="740" type="line"/>
    </contour>
  </outline>
</glyph>
<glyph name="m" format="2">
  <advance width="1039"/>
  <unicode hex="006D"/>
  <outline>
    <contour>
      <point x="120" y="551" type="line"/>
      <point x="23" y="0" type="line"/>
      <point x="137" y="0" type="line"/>
      <point x="234" y="551" type="line"/>
    </contour>
    <contour>
      <point x="469" y="308" type="curve" smooth="yes"/>
      <point x="414" y="0" type="line"/>
      <point x="527" y="0" type="line"/>
      <point x="585" y="325" type="line" smooth="yes"/>
      <point x="612" y="479"/>
      <point x="528" y="560"/>
      <point x="399" y="560" type="curve" smooth="yes"/>
      <point x="309" y="560"/>
      <point x="221" y="510"/>
      <point x="184" y="432" type="curve"/>
      <point x="192" y="308" type="line"/>
      <point x="209" y="409"/>
      <point x="274" y="461"/>
      <point x="358" y="461" type="curve" smooth="yes"/>
      <point x="441" y="461"/>
      <point x="486" y="409"/>
    </contour>
    <contour>
      <point x="859" y="308" type="curve" smooth="yes"/>
      <point x="804" y="0" type="line"/>
      <point x="917" y="0" type="line"/>
      <point x="975" y="325" type="line" smooth="yes"/>
      <point x="1002" y="479"/>
      <point x="918" y="560"/>
      <point x="789" y="560" type="curve" smooth="yes"/>
      <point x="701" y="560"/>
      <point x="608" y="510"/>
      <point x="567" y="432" type="curve"/>
      <point x="582" y="308" type="line"/>
      <point x="599" y="409"/>
      <point x="664" y="461"/>
      <point x="748" y="461" type="curve" smooth="yes"/>
      <point x="831" y="461"/>
      <point x="876" y="409"/>
    </contour>
  </outline>
</glyph>
<glyph name="n" format="2">
  <advance width="649"/>
  <unicode hex="006E"/>
  <anchor x="273" y="0" name="bottom"/>
  <anchor x="380" y="551" name="top"/>
  <outline>
    <contour>
      <point x="120" y="551" type="line"/>
      <point x="23" y="0" type="line"/>
      <point x="137" y="0" type="line"/>
      <point x="234" y="551" type="line"/>
    </contour>
    <contour>
      <point x="469" y="308" type="curve" smooth="yes"/>
      <point x="414" y="0" type="line"/>
      <point x="527" y="0" type="line"/>
      <point x="585" y="325" type="line" smooth="yes"/>
      <point x="612" y="479"/>
      <point x="529" y="560"/>
      <point x="400" y="560" type="curve" smooth="yes"/>
      <point x="310" y="560"/>
      <point x="221" y="510"/>
      <point x="184" y="432" type="curve"/>
      <point x="192" y="308" type="line"/>
      <point x="209" y="409"/>
      <point x="274" y="461"/>
      <point x="358" y="461" type="curve" smooth="yes"/>
      <point x="441" y="461"/>
      <point x="486" y="409"/>
    </contour>
  </outline>
</glyph>
<glyph name="o" format="2">
  <advance width="638"/>
  <unicode hex="006F"/>
  <anchor x="363" y="560" name="top"/>
  <outline>
    <contour>
      <point x="264" y="-9" type="curve" smooth="yes"/>
      <point x="454" y="-9"/>
      <point x="602" y="138"/>
      <point x="602" y="327" type="curve" smooth="yes"/>
      <point x="602" y="466"/>
      <point x="504" y="560"/>
      <point x="363" y="560" type="curve" smooth="yes"/>
      <point x="171" y="560"/>
      <point x="29" y="410"/>
      <point x="29" y="223" type="curve" smooth="yes"/>
      <point x="29" y="85"/>
      <point x="123" y="-9"/>
    </contour>
    <contour>
      <point x="278" y="87" type="curve" smooth="yes"/>
      <point x="204" y="87"/>
      <point x="147" y="135"/>
      <point x="147" y="228" type="curve" smooth="yes"/>
      <point x="147" y="352"/>
      <point x="227" y="464"/>
      <point x="347" y="464" type="curve" smooth="yes"/>
      <point x="421" y="464"/>
      <point x="484" y="416"/>
      <point x="484" y="320" type="curve" smooth="yes"/>
      <point x="484" y="198"/>
      <point x="396" y="87"/>
    </contour>
  </outline>
</glyph>
<glyph name="p" format="2">
  <advance width="678"/>
  <unicode hex="0070"/>
  <guideline x="-424" y="64" angle="0"/>
  <outline>
    <contour>
      <point x="263" y="516"/>
      <point x="220" y="470" type="curve"/>
      <point x="234" y="551" type="line"/>
      <point x="120" y="551" type="line"/>
      <point x="-23" y="-262" type="line"/>
      <point x="91" y="-262" type="line"/>
      <point x="151" y="80" type="line"/>
      <point x="180" y="37"/>
      <point x="237" y="-9"/>
      <point x="328" y="-9" type="curve" smooth="yes"/>
      <point x="473" y="-9"/>
      <point x="607" y="108"/>
      <point x="637" y="278" type="curve" smooth="yes"/>
      <point x="667" y="448"/>
      <point x="573" y="560"/>
      <point x="428" y="560" type="curve" smooth="yes"/>
      <point x="338" y="560"/>
    </contour>
    <contour>
      <point x="542" y="397"/>
      <point x="521" y="278" type="curve" smooth="yes"/>
      <point x="500" y="159"/>
      <point x="406" y="90"/>
      <point x="320" y="90" type="curve" smooth="yes"/>
      <point x="235" y="90"/>
      <point x="165" y="157"/>
      <point x="186" y="276" type="curve" smooth="yes"/>
      <point x="207" y="394"/>
      <point x="301" y="461"/>
      <point x="386" y="461" type="curve" smooth="yes"/>
      <point x="472" y="461"/>
    </contour>
  </outline>
</glyph>
<glyph name="q" format="2">
  <advance width="678"/>
  <unicode hex="0071"/>
  <guideline x="-451" y="64" angle="0"/>
  <outline>
    <contour>
      <point x="64" y="448"/>
      <point x="34" y="278" type="curve" smooth="yes"/>
      <point x="4" y="108"/>
      <point x="99" y="-9"/>
      <point x="241" y="-9" type="curve" smooth="yes"/>
      <point x="334" y="-9"/>
      <point x="411" y="37"/>
      <point x="450" y="80" type="curve"/>
      <point x="390" y="-262" type="line"/>
      <point x="505" y="-262" type="line"/>
      <point x="648" y="551" type="line"/>
      <point x="533" y="551" type="line"/>
      <point x="519" y="471" type="line"/>
      <point x="495" y="516"/>
      <point x="436" y="560"/>
      <point x="345" y="560" type="curve" smooth="yes"/>
      <point x="199" y="560"/>
    </contour>
    <contour>
      <point x="506" y="394"/>
      <point x="485" y="276" type="curve" smooth="yes"/>
      <point x="464" y="157"/>
      <point x="371" y="90"/>
      <point x="285" y="90" type="curve" smooth="yes"/>
      <point x="200" y="90"/>
      <point x="130" y="159"/>
      <point x="151" y="278" type="curve" smooth="yes"/>
      <point x="172" y="397"/>
      <point x="266" y="461"/>
      <point x="351" y="461" type="curve" smooth="yes"/>
      <point x="437" y="461"/>
    </contour>
  </outline>
</glyph>
<glyph name="r" format="2">
  <advance width="384"/>
  <unicode hex="0072"/>
  <anchor x="80" y="0" name="bottom"/>
  <anchor x="286" y="551" name="top"/>
  <outline>
    <contour>
      <point x="154" y="290" type="curve"/>
      <point x="188" y="290" type="line"/>
      <point x="209" y="407"/>
      <point x="267" y="442"/>
      <point x="351" y="442" type="curve" smooth="yes"/>
      <point x="380" y="442" type="line"/>
      <point x="401" y="560" type="line"/>
      <point x="267" y="560"/>
      <point x="181" y="439"/>
    </contour>
    <contour>
      <point x="120" y="551" type="line"/>
      <point x="23" y="0" type="line"/>
      <point x="137" y="0" type="line"/>
      <point x="234" y="551" type="line"/>
    </contour>
  </outline>
</glyph>
<glyph name="s" format="2">
  <advance width="534"/>
  <unicode hex="0073"/>
  <anchor x="215" y="0" name="bottom"/>
  <anchor x="312" y="551" name="top"/>
  <outline>
    <contour>
      <point x="226" y="-9" type="curve" smooth="yes"/>
      <point x="357" y="-9"/>
      <point x="455" y="52"/>
      <point x="455" y="152" type="curve" smooth="yes"/>
      <point x="455" y="323"/>
      <point x="184" y="299"/>
      <point x="184" y="403" type="curve" smooth="yes"/>
      <point x="184" y="444"/>
      <point x="223" y="470"/>
      <point x="280" y="470" type="curve" smooth="yes"/>
      <point x="346" y="470"/>
      <point x="383" y="435"/>
      <point x="378" y="383" type="curve"/>
      <point x="486" y="383" type="line"/>
      <point x="499" y="489"/>
      <point x="412" y="560"/>
      <point x="287" y="560" type="curve" smooth="yes"/>
      <point x="158" y="560"/>
      <point x="69" y="495"/>
      <point x="69" y="398" type="curve" smooth="yes"/>
      <point x="69" y="220"/>
      <point x="343" y="246"/>
      <point x="343" y="148" type="curve" smooth="yes"/>
      <point x="343" y="101"/>
      <point x="293" y="81"/>
      <point x="233" y="81" type="curve" smooth="yes"/>
      <point x="166" y="81"/>
      <point x="129" y="119"/>
      <point x="134" y="169" type="curve"/>
      <point x="23" y="169" type="line"/>
      <point x="8" y="64"/>
      <point x="102" y="-9"/>
    </contour>
  </outline>
</glyph>
<glyph name="t" format="2">
  <advance width="372"/>
  <unicode hex="0074"/>
  <anchor x="135" y="0" name="bottom"/>
  <anchor x="297" y="828" name="topright"/>
  <outline>
    <contour>
      <point x="163" y="688" type="line"/>
      <point x="68" y="153" type="line" smooth="yes"/>
      <point x="49" y="41"/>
      <point x="102" y="0"/>
      <point x="200" y="0" type="curve" smooth="yes"/>
      <point x="290" y="0" type="line"/>
      <point x="307" y="95" type="line"/>
      <point x="237" y="95" type="line" smooth="yes"/>
      <point x="189" y="95"/>
      <point x="176" y="112"/>
      <point x="183" y="153" type="curve" smooth="yes"/>
      <point x="278" y="688" type="line"/>
    </contour>
    <contour>
      <point x="57" y="458" type="line"/>
      <point x="371" y="458" type="line"/>
      <point x="387" y="551" type="line"/>
      <point x="73" y="551" type="line"/>
    </contour>
  </outline>
</glyph>
<glyph name="u" format="2">
  <advance width="649"/>
  <unicode hex="0075"/>
  <anchor x="522" y="-1" name="ogonek"/>
  <anchor x="370" y="551" name="top"/>
  <outline>
    <contour>
      <point x="522" y="0" type="line"/>
      <point x="619" y="551" type="line"/>
      <point x="505" y="551" type="line"/>
      <point x="408" y="0" type="line"/>
    </contour>
    <contour>
      <point x="174" y="244" type="curve" smooth="yes"/>
      <point x="228" y="551" type="line"/>
      <point x="115" y="551" type="line"/>
      <point x="58" y="227" type="line" smooth="yes"/>
      <point x="31" y="73"/>
      <point x="115" y="-8"/>
      <point x="244" y="-8" type="curve" smooth="yes"/>
      <point x="332" y="-8"/>
      <point x="422" y="42"/>
      <point x="457" y="120" type="curve"/>
      <point x="451" y="244" type="line"/>
      <point x="434" y="143"/>
      <point x="369" y="91"/>
      <point x="285" y="91" type="curve" smooth="yes"/>
      <point x="202" y="91"/>
      <point x="157" y="143"/>
    </contour>
  </outline>
</glyph>
<glyph name="v" format="2">
  <advance width="576"/>
  <unicode hex="0076"/>
  <outline>
    <contour>
      <point x="177" y="551" type="line"/>
      <point x="55" y="551" type="line"/>
      <point x="167" y="0" type="line"/>
      <point x="305" y="0" type="line"/>
      <point x="612" y="551" type="line"/>
      <point x="489" y="551" type="line"/>
      <point x="254" y="102" type="line"/>
    </contour>
  </outline>
</glyph>
<glyph name="w" format="2">
  <advance width="825"/>
  <unicode hex="0077"/>
  <outline>
    <contour>
      <point x="55" y="551" type="line"/>
      <point x="130" y="0" type="line"/>
      <point x="250" y="0" type="line"/>
      <point x="471" y="489" type="line"/>
      <point x="426" y="489" type="line"/>
      <point x="472" y="0" type="line"/>
      <point x="592" y="0" type="line"/>
      <point x="860" y="551" type="line"/>
      <point x="748" y="551" type="line"/>
      <point x="525" y="36" type="line"/>
      <point x="563" y="36" type="line"/>
      <point x="522" y="551" type="line"/>
      <point x="403" y="551" type="line"/>
      <point x="177" y="36" type="line"/>
      <point x="215" y="36" type="line"/>
      <point x="171" y="551" type="line"/>
    </contour>
  </outline>
</glyph>
<glyph name="x" format="2">
  <advance width="499"/>
  <unicode hex="0078"/>
  <outline>
    <contour>
      <point x="55" y="551" type="line"/>
      <point x="308" y="0" type="line"/>
      <point x="437" y="0" type="line"/>
      <point x="184" y="551" type="line"/>
    </contour>
    <contour>
      <point x="252" y="225" type="line"/>
      <point x="219" y="313" type="line"/>
      <point x="-42" y="0" type="line"/>
      <point x="77" y="0" type="line"/>
    </contour>
    <contour>
      <point x="241" y="327" type="line"/>
      <point x="275" y="239" type="line"/>
      <point x="534" y="551" type="line"/>
      <point x="415" y="551" type="line"/>
    </contour>
  </outline>
</glyph>
<glyph name="y" format="2">
  <advance width="582"/>
  <unicode hex="0079"/>
  <anchor x="336" y="551" name="top"/>
  <outline>
    <contour>
      <point x="55" y="551" type="line"/>
      <point x="177" y="9" type="line"/>
      <point x="18" y="-259" type="line"/>
      <point x="136" y="-259" type="line"/>
      <point x="616" y="551" type="line"/>
      <point x="498" y="551" type="line"/>
      <point x="263" y="131" type="line"/>
      <point x="182" y="551" type="line"/>
    </contour>
  </outline>
</glyph>
<glyph name="z" format="2">
  <advance width="471"/>
  <unicode hex="007A"/>
  <anchor x="281" y="551" name="top"/>
  <outline>
    <contour>
      <point x="455" y="458" type="line"/>
      <point x="471" y="551" type="line"/>
      <point x="89" y="551" type="line"/>
      <point x="73" y="458" type="line"/>
      <point x="324" y="458" type="line"/>
      <point x="9" y="93" type="line"/>
      <point x="-8" y="0" type="line"/>
      <point x="374" y="0" type="line"/>
      <point x="391" y="93" type="line"/>
      <point x="141" y="93" type="line"/>
    </contour>
  </outline>
</glyph>
<glyph name="braceleft" format="2">
  <advance width="516"/>
  <unicode hex="007B"/>
  <outline>
    <contour>
      <point x="136" y="331" type="line"/>
      <point x="191" y="325"/>
      <point x="221" y="304"/>
      <point x="221" y="262" type="curve" smooth="yes"/>
      <point x="221" y="212"/>
      <point x="150" y="1"/>
      <point x="150" y="-71" type="curve" smooth="yes"/>
      <point x="150" y="-147"/>
      <point x="200" y="-188"/>
      <point x="277" y="-188" type="curve" smooth="yes"/>
      <point x="344" y="-188" type="line"/>
      <point x="362" y="-89" type="line"/>
      <point x="318" y="-89" type="line" smooth="yes"/>
      <point x="282" y="-89"/>
      <point x="264" y="-76"/>
      <point x="264" y="-51" type="curve" smooth="yes"/>
      <point x="264" y="-8"/>
      <point x="332" y="220"/>
      <point x="332" y="283" type="curve" smooth="yes"/>
      <point x="332" y="332"/>
      <point x="307" y="361"/>
      <point x="248" y="373" type="curve"/>
      <point x="249" y="375" type="line"/>
      <point x="324" y="390"/>
      <point x="364" y="439"/>
      <point x="375" y="505" type="curve" smooth="yes"/>
      <point x="391" y="591"/>
      <point x="395" y="707"/>
      <point x="407" y="776" type="curve" smooth="yes"/>
      <point x="415" y="819"/>
      <point x="439" y="837"/>
      <point x="481" y="837" type="curve" smooth="yes"/>
      <point x="525" y="837" type="line"/>
      <point x="542" y="936" type="line"/>
      <point x="475" y="936" type="line" smooth="yes"/>
      <point x="387" y="936"/>
      <point x="315" y="882"/>
      <point x="298" y="785" type="curve" smooth="yes"/>
      <point x="283" y="702"/>
      <point x="280" y="585"/>
      <point x="266" y="509" type="curve" smooth="yes"/>
      <point x="257" y="457"/>
      <point x="216" y="424"/>
      <point x="151" y="417" type="curve"/>
    </contour>
  </outline>
</glyph>
<glyph name="bar" format="2">
  <advance width="324"/>
  <unicode hex="007C"/>
  <outline>
    <contour>
      <point x="309" y="801" type="line"/>
      <point x="195" y="801" type="line"/>
      <point x="33" y="-113" type="line"/>
      <point x="147" y="-113" type="line"/>
    </contour>
  </outline>
</glyph>
<glyph name="braceright" format="2">
  <advance width="516"/>
  <unicode hex="007D"/>
  <outline>
    <contour>
      <point x="400" y="331" type="curve"/>
      <point x="415" y="417" type="line"/>
      <point x="352" y="424"/>
      <point x="323" y="457"/>
      <point x="332" y="509" type="curve" smooth="yes"/>
      <point x="346" y="585"/>
      <point x="383" y="702"/>
      <point x="398" y="785" type="curve" smooth="yes"/>
      <point x="415" y="882"/>
      <point x="361" y="936"/>
      <point x="273" y="936" type="curve" smooth="yes"/>
      <point x="206" y="936" type="line"/>
      <point x="189" y="837" type="line"/>
      <point x="233" y="837" type="line" smooth="yes"/>
      <point x="275" y="837"/>
      <point x="293" y="819"/>
      <point x="285" y="776" type="curve" smooth="yes"/>
      <point x="273" y="707"/>
      <point x="237" y="591"/>
      <point x="221" y="505" type="curve" smooth="yes"/>
      <point x="210" y="439"/>
      <point x="232" y="390"/>
      <point x="303" y="375" type="curve"/>
      <point x="302" y="373" type="line"/>
      <point x="227" y="358"/>
      <point x="187" y="309"/>
      <point x="175" y="243" type="curve" smooth="yes"/>
      <point x="160" y="157"/>
      <point x="156" y="41"/>
      <point x="143" y="-28" type="curve" smooth="yes"/>
      <point x="136" y="-71"/>
      <point x="112" y="-89"/>
      <point x="70" y="-89" type="curve" smooth="yes"/>
      <point x="26" y="-89" type="line"/>
      <point x="8" y="-188" type="line"/>
      <point x="75" y="-188" type="line" smooth="yes"/>
      <point x="163" y="-188"/>
      <point x="236" y="-134"/>
      <point x="253" y="-37" type="curve" smooth="yes"/>
      <point x="268" y="46"/>
      <point x="271" y="163"/>
      <point x="285" y="239" type="curve" smooth="yes"/>
      <point x="294" y="291"/>
      <point x="335" y="324"/>
    </contour>
  </outline>
</glyph>
<glyph name="asciitilde" format="2">
  <advance width="553"/>
  <unicode hex="007E"/>
  <outline>
    <contour>
      <point x="67" y="354"/>
      <point x="26" y="238" type="curve"/>
      <point x="108" y="238" type="line"/>
      <point x="122" y="279"/>
      <point x="155" y="301"/>
      <point x="188" y="301" type="curve"/>
      <point x="247" y="301"/>
      <point x="268" y="236"/>
      <point x="347" y="236" type="curve" smooth="yes"/>
      <point x="427" y="236"/>
      <point x="496" y="285"/>
      <point x="536" y="401" type="curve"/>
      <point x="453" y="401" type="line"/>
      <point x="440" y="359"/>
      <point x="406" y="338"/>
      <point x="374" y="338" type="curve" smooth="yes"/>
      <point x="316" y="338"/>
      <point x="293" y="403"/>
      <point x="214" y="403" type="curve" smooth="yes"/>
      <point x="134" y="403"/>
    </contour>
  </outline>
</glyph>
<glyph name="cent" format="2">
  <advance width="690"/>
  <unicode hex="00A2"/>
  <outline>
    <contour>
      <point x="259" y="427"/>
      <point x="353" y="427" type="curve" smooth="yes"/>
      <point x="428" y="427"/>
      <point x="462" y="394"/>
      <point x="468" y="345" type="curve"/>
      <point x="574" y="345" type="line"/>
      <point x="581" y="446"/>
      <point x="502" y="521"/>
      <point x="369" y="521" type="curve" smooth="yes"/>
      <point x="194" y="521"/>
      <point x="86" y="404"/>
      <point x="60" y="259" type="curve" smooth="yes"/>
      <point x="35" y="115"/>
      <point x="102" y="-2"/>
      <point x="277" y="-2" type="curve" smooth="yes"/>
      <point x="410" y="-2"/>
      <point x="515" y="73"/>
      <point x="544" y="174" type="curve"/>
      <point x="438" y="174" type="line"/>
      <point x="414" y="125"/>
      <point x="369" y="92"/>
      <point x="294" y="92" type="curve" smooth="yes"/>
      <point x="200" y="92"/>
      <point x="149" y="154"/>
      <point x="168" y="259" type="curve"/>
      <point x="187" y="364"/>
    </contour>
    <contour>
      <point x="351" y="607" type="line"/>
      <point x="324" y="454" type="line"/>
      <point x="389" y="454" type="line"/>
      <point x="416" y="607" type="line"/>
    </contour>
    <contour>
      <point x="256" y="65" type="line"/>
      <point x="229" y="-88" type="line"/>
      <point x="294" y="-88" type="line"/>
      <point x="321" y="65" type="line"/>
    </contour>
  </outline>
</glyph>
<glyph name="sterling" format="2">
  <advance width="646"/>
  <unicode hex="00A3"/>
  <outline>
    <contour>
      <point x="408" y="721" type="curve" smooth="yes"/>
      <point x="275" y="721"/>
      <point x="167" y="639"/>
      <point x="143" y="503" type="curve" smooth="yes"/>
      <point x="123" y="387"/>
      <point x="166" y="342"/>
      <point x="151" y="260" type="curve" smooth="yes"/>
      <point x="135" y="166"/>
      <point x="95" y="115"/>
      <point x="34" y="60" type="curve"/>
      <point x="43" y="-2" type="line"/>
      <point x="506" y="-2" type="line"/>
      <point x="522" y="91" type="line"/>
      <point x="162" y="91" type="line"/>
      <point x="216" y="139"/>
      <point x="248" y="196"/>
      <point x="259" y="259" type="curve"/>
      <point x="272" y="335"/>
      <point x="234" y="405"/>
      <point x="250" y="497" type="curve" smooth="yes"/>
      <point x="266" y="589"/>
      <point x="325" y="625"/>
      <point x="392" y="625" type="curve" smooth="yes"/>
      <point x="475" y="625"/>
      <point x="498" y="575"/>
      <point x="486" y="508" type="curve"/>
      <point x="590" y="508" type="line"/>
      <point x="608" y="623"/>
      <point x="559" y="721"/>
    </contour>
    <contour>
      <point x="447" y="381" type="line"/>
      <point x="58" y="381" type="line"/>
      <point x="44" y="302" type="line"/>
      <point x="433" y="302" type="line"/>
    </contour>
  </outline>
</glyph>
<glyph name="currency" format="2">
  <advance width="548"/>
  <unicode hex="00A4"/>
  <outline>
    <contour>
      <point x="320" y="555" type="curve" smooth="yes"/>
      <point x="214" y="555"/>
      <point x="123" y="486"/>
      <point x="104" y="377" type="curve" smooth="yes"/>
      <point x="85" y="269"/>
      <point x="147" y="199"/>
      <point x="255" y="199" type="curve" smooth="yes"/>
      <point x="362" y="199"/>
      <point x="456" y="269"/>
      <point x="475" y="377" type="curve" smooth="yes"/>
      <point x="494" y="486"/>
      <point x="427" y="555"/>
    </contour>
    <contour>
      <point x="308" y="489" type="curve" smooth="yes"/>
      <point x="358" y="489"/>
      <point x="397" y="451"/>
      <point x="384" y="377" type="curve" smooth="yes"/>
      <point x="371" y="303"/>
      <point x="316" y="266"/>
      <point x="267" y="266" type="curve" smooth="yes"/>
      <point x="217" y="266"/>
      <point x="181" y="303"/>
      <point x="194" y="377" type="curve" smooth="yes"/>
      <point x="207" y="451"/>
      <point x="258" y="489"/>
    </contour>
    <contour>
      <point x="176" y="455" type="line"/>
      <point x="238" y="502" type="line"/>
      <point x="164" y="592" type="line"/>
      <point x="104" y="541" type="line"/>
    </contour>
    <contour>
      <point x="384" y="501" type="line"/>
      <point x="426" y="450" type="line"/>
      <point x="532" y="541" type="line"/>
      <point x="491" y="592" type="line"/>
    </contour>
    <contour>
      <point x="405" y="299" type="line"/>
      <point x="343" y="250" type="line"/>
      <point x="415" y="164" type="line"/>
      <point x="474" y="215" type="line"/>
    </contour>
    <contour>
      <point x="198" y="257" type="line"/>
      <point x="149" y="303" type="line"/>
      <point x="46" y="215" type="line"/>
      <point x="88" y="164" type="line"/>
    </contour>
  </outline>
</glyph>
<glyph name="yen" format="2">
  <advance width="605"/>
  <unicode hex="00A5"/>
  <outline>
    <contour>
      <point x="387" y="395" type="line"/>
      <point x="358" y="311" type="line"/>
      <point x="564" y="313" type="line"/>
      <point x="578" y="395" type="line"/>
    </contour>
    <contour>
      <point x="33" y="222" type="line"/>
      <point x="19" y="140" type="line"/>
      <point x="533" y="140" type="line"/>
      <point x="547" y="222" type="line"/>
    </contour>
    <contour>
      <point x="86" y="695" type="line"/>
      <point x="239" y="252" type="line"/>
      <point x="194" y="0" type="line"/>
      <point x="308" y="0" type="line"/>
      <point x="353" y="252" type="line"/>
      <point x="661" y="695" type="line"/>
      <point x="533" y="695" type="line"/>
      <point x="277" y="300" type="line"/>
      <point x="330" y="300" type="line"/>
      <point x="213" y="695" type="line"/>
    </contour>
    <contour>
      <point x="64" y="395" type="line"/>
      <point x="50" y="313" type="line"/>
      <point x="272" y="311" type="line"/>
      <point x="273" y="395" type="line"/>
    </contour>
  </outline>
</glyph>
<glyph name="brokenbar" format="2">
  <advance width="324"/>
  <unicode hex="00A6"/>
  <outline>
    <contour>
      <point x="216" y="275" type="line"/>
      <point x="102" y="275" type="line"/>
      <point x="33" y="-113" type="line"/>
      <point x="147" y="-113" type="line"/>
    </contour>
    <contour>
      <point x="126" y="413" type="line"/>
      <point x="240" y="413" type="line"/>
      <point x="309" y="801" type="line"/>
      <point x="195" y="801" type="line"/>
    </contour>
  </outline>
</glyph>
<glyph name="section" format="2">
  <advance width="578"/>
  <unicode hex="00A7"/>
  <outline>
    <contour>
      <point x="132" y="624"/>
      <point x="116" y="534" type="curve" smooth="yes"/>
      <point x="102" y="453"/>
      <point x="158" y="413"/>
      <point x="232" y="378" type="curve"/>
      <point x="251" y="421" type="line"/>
      <point x="123" y="401"/>
      <point x="48" y="331"/>
      <point x="32" y="244" type="curve" smooth="yes"/>
      <point x="16" y="151"/>
      <point x="75" y="100"/>
      <point x="191" y="56" type="curve" smooth="yes"/>
      <point x="308" y="11"/>
      <point x="337" y="-10"/>
      <point x="328" y="-56" type="curve" smooth="yes"/>
      <point x="319" y="-107"/>
      <point x="278" y="-133"/>
      <point x="215" y="-133" type="curve" smooth="yes"/>
      <point x="152" y="-133"/>
      <point x="129" y="-98"/>
      <point x="134" y="-47" type="curve"/>
      <point x="20" y="-47" type="line"/>
      <point x="1" y="-153"/>
      <point x="80" y="-212"/>
      <point x="201" y="-212" type="curve" smooth="yes"/>
      <point x="335" y="-212"/>
      <point x="428" y="-136"/>
      <point x="444" y="-46" type="curve" smooth="yes"/>
      <point x="459" y="35"/>
      <point x="403" y="75"/>
      <point x="329" y="110" type="curve"/>
      <point x="308" y="63" type="line"/>
      <point x="441" y="92"/>
      <point x="513" y="158"/>
      <point x="528" y="244" type="curve"/>
      <point x="545" y="337"/>
      <point x="486" y="388"/>
      <point x="370" y="432" type="curve" smooth="yes"/>
      <point x="252" y="477"/>
      <point x="224" y="498"/>
      <point x="232" y="544" type="curve" smooth="yes"/>
      <point x="241" y="595"/>
      <point x="283" y="621"/>
      <point x="346" y="621" type="curve" smooth="yes"/>
      <point x="409" y="621"/>
      <point x="432" y="586"/>
      <point x="427" y="535" type="curve"/>
      <point x="541" y="535" type="line"/>
      <point x="559" y="641"/>
      <point x="481" y="700"/>
      <point x="360" y="700" type="curve" smooth="yes"/>
      <point x="226" y="700"/>
    </contour>
    <contour>
      <point x="422" y="302"/>
      <point x="411" y="244" type="curve" smooth="yes"/>
      <point x="401" y="188"/>
      <point x="345" y="140"/>
      <point x="264" y="140" type="curve" smooth="yes"/>
      <point x="182" y="140"/>
      <point x="139" y="188"/>
      <point x="149" y="244" type="curve"/>
      <point x="159" y="300"/>
      <point x="216" y="348"/>
      <point x="298" y="348" type="curve" smooth="yes"/>
      <point x="378" y="348"/>
    </contour>
  </outline>
</glyph>
<glyph name="copyright" format="2">
  <advance width="789"/>
  <unicode hex="00A9"/>
  <outline>
    <contour>
      <point x="790" y="557"/>
      <point x="673" y="704"/>
      <point x="467" y="704" type="curve" smooth="yes"/>
      <point x="260" y="704"/>
      <point x="93" y="557"/>
      <point x="56" y="348" type="curve" smooth="yes"/>
      <point x="19" y="139"/>
      <point x="135" y="-9"/>
      <point x="342" y="-9" type="curve" smooth="yes"/>
      <point x="548" y="-9"/>
      <point x="716" y="139"/>
      <point x="753" y="348" type="curve" smooth="yes"/>
    </contour>
    <contour>
      <point x="139" y="537"/>
      <point x="276" y="659"/>
      <point x="460" y="659" type="curve" smooth="yes"/>
      <point x="643" y="659"/>
      <point x="736" y="537"/>
      <point x="703" y="348" type="curve" smooth="yes"/>
      <point x="670" y="161"/>
      <point x="533" y="36"/>
      <point x="350" y="36" type="curve" smooth="yes"/>
      <point x="166" y="36"/>
      <point x="73" y="161"/>
      <point x="106" y="348" type="curve" smooth="yes"/>
    </contour>
    <contour>
      <point x="209" y="489"/>
      <point x="320" y="578"/>
      <point x="442" y="578" type="curve" smooth="yes"/>
      <point x="546" y="578"/>
      <point x="613" y="524"/>
      <point x="621" y="431" type="curve"/>
      <point x="517" y="431" type="line"/>
      <point x="511" y="474"/>
      <point x="478" y="497"/>
      <point x="428" y="497" type="curve" smooth="yes"/>
      <point x="359" y="497"/>
      <point x="302" y="447"/>
      <point x="285" y="349" type="curve" smooth="yes"/>
      <point x="268" y="251"/>
      <point x="307" y="200"/>
      <point x="376" y="200" type="curve" smooth="yes"/>
      <point x="432" y="200"/>
      <point x="465" y="225"/>
      <point x="488" y="266" type="curve"/>
      <point x="592" y="266" type="line"/>
      <point x="552" y="180"/>
      <point x="465" y="119"/>
      <point x="361" y="119" type="curve" smooth="yes"/>
      <point x="239" y="119"/>
      <point x="159" y="209"/>
      <point x="184" y="349" type="curve" smooth="yes"/>
    </contour>
  </outline>
</glyph>
<glyph name="ordfeminine" format="2">
  <advance width="456"/>
  <unicode hex="00AA"/>
  <outline>
    <contour>
      <point x="91" y="636"/>
      <point x="73" y="530" type="curve" smooth="yes"/>
      <point x="54" y="424"/>
      <point x="116" y="347"/>
      <point x="209" y="347" type="curve" smooth="yes"/>
      <point x="271" y="347"/>
      <point x="319" y="376"/>
      <point x="346" y="414" type="curve"/>
      <point x="336" y="353" type="line"/>
      <point x="425" y="353" type="line"/>
      <point x="486" y="703" type="line"/>
      <point x="397" y="703" type="line"/>
      <point x="387" y="642" type="line"/>
      <point x="372" y="681"/>
      <point x="334" y="709"/>
      <point x="272" y="709" type="curve" smooth="yes"/>
      <point x="179" y="709"/>
    </contour>
    <contour>
      <point x="379" y="600"/>
      <point x="366" y="528" type="curve" smooth="yes"/>
      <point x="354" y="456"/>
      <point x="299" y="416"/>
      <point x="246" y="416" type="curve" smooth="yes"/>
      <point x="194" y="416"/>
      <point x="152" y="457"/>
      <point x="165" y="529" type="curve" smooth="yes"/>
      <point x="177" y="601"/>
      <point x="233" y="640"/>
      <point x="285" y="640" type="curve" smooth="yes"/>
      <point x="338" y="640"/>
    </contour>
  </outline>
</glyph>
<glyph name="guillemotleft" format="2">
  <advance width="489"/>
  <unicode hex="00AB"/>
  <outline>
    <contour>
      <point x="216" y="120" type="line"/>
      <point x="151" y="295" type="line"/>
      <point x="278" y="470" type="line"/>
      <point x="168" y="470" type="line"/>
      <point x="45" y="295" type="line"/>
      <point x="106" y="120" type="line"/>
    </contour>
    <contour>
      <point x="408" y="120" type="line"/>
      <point x="343" y="295" type="line"/>
      <point x="470" y="470" type="line"/>
      <point x="360" y="470" type="line"/>
      <point x="237" y="295" type="line"/>
      <point x="298" y="120" type="line"/>
    </contour>
  </outline>
</glyph>
<glyph name="logicalnot" format="2">
  <advance width="748"/>
  <unicode hex="00AC"/>
  <outline>
    <contour>
      <point x="66" y="435" type="line"/>
      <point x="50" y="346" type="line"/>
      <point x="589" y="346" type="line"/>
      <point x="565" y="208" type="line"/>
      <point x="679" y="208" type="line"/>
      <point x="719" y="435" type="line"/>
    </contour>
  </outline>
</glyph>
<glyph name="registered" format="2">
  <advance width="517"/>
  <unicode hex="00AE"/>
  <outline>
    <contour>
      <point x="89" y="496" type="curve" smooth="yes"/>
      <point x="67" y="374"/>
      <point x="139" y="287"/>
      <point x="261" y="287" type="curve" smooth="yes"/>
      <point x="382" y="287"/>
      <point x="484" y="374"/>
      <point x="506" y="496" type="curve" smooth="yes"/>
      <point x="527" y="618"/>
      <point x="456" y="705"/>
      <point x="335" y="705" type="curve" smooth="yes"/>
      <point x="213" y="705"/>
      <point x="110" y="618"/>
    </contour>
    <contour>
      <point x="139" y="496" type="curve" smooth="yes"/>
      <point x="156" y="593"/>
      <point x="229" y="659"/>
      <point x="327" y="659" type="curve" smooth="yes"/>
      <point x="424" y="659"/>
      <point x="474" y="593"/>
      <point x="457" y="496" type="curve" smooth="yes"/>
      <point x="440" y="399"/>
      <point x="366" y="333"/>
      <point x="269" y="333" type="curve" smooth="yes"/>
      <point x="171" y="333"/>
      <point x="122" y="399"/>
    </contour>
    <contour>
      <point x="332" y="606" type="line" smooth="yes"/>
      <point x="378" y="606"/>
      <point x="404" y="578"/>
      <point x="397" y="536" type="curve" smooth="yes"/>
      <point x="390" y="494"/>
      <point x="354" y="466"/>
      <point x="308" y="466" type="curve" smooth="yes"/>
      <point x="270" y="466" type="line"/>
      <point x="256" y="391" type="line"/>
      <point x="193" y="391" type="line"/>
      <point x="231" y="606" type="line"/>
    </contour>
    <contour>
      <point x="307" y="391" type="line"/>
      <point x="268" y="489" type="line"/>
      <point x="337" y="490" type="line"/>
      <point x="383" y="391" type="line"/>
    </contour>
    <contour>
      <point x="317" y="548" type="curve" smooth="yes"/>
      <point x="284" y="548" type="line"/>
      <point x="279" y="519" type="line"/>
      <point x="312" y="519" type="line" smooth="yes"/>
      <point x="322" y="519"/>
      <point x="330" y="524"/>
      <point x="332" y="534" type="curve" smooth="yes"/>
      <point x="333" y="543"/>
      <point x="327" y="548"/>
    </contour>
  </outline>
</glyph>
<glyph name="macroncomb" format="2">
  <advance width="386"/>
  <unicode hex="00AF"/>
  <anchor x="238" y="551" name="_top"/>
  <outline>
    <contour>
      <point x="85" y="720" type="line"/>
      <point x="70" y="635" type="line"/>
      <point x="436" y="635" type="line"/>
      <point x="451" y="720" type="line"/>
    </contour>
  </outline>
</glyph>
<glyph name="degree" format="2">
  <advance width="427"/>
  <unicode hex="00B0"/>
  <outline>
    <contour>
      <point x="88" y="634"/>
      <point x="69" y="525" type="curve" smooth="yes"/>
      <point x="50" y="417"/>
      <point x="113" y="347"/>
      <point x="221" y="347" type="curve" smooth="yes"/>
      <point x="328" y="347"/>
      <point x="421" y="417"/>
      <point x="440" y="525" type="curve" smooth="yes"/>
      <point x="459" y="634"/>
      <point x="392" y="702"/>
      <point x="286" y="702" type="curve" smooth="yes"/>
      <point x="179" y="702"/>
    </contour>
    <contour>
      <point x="362" y="599"/>
      <point x="349" y="525" type="curve" smooth="yes"/>
      <point x="336" y="450"/>
      <point x="281" y="414"/>
      <point x="232" y="414" type="curve" smooth="yes"/>
      <point x="182" y="414"/>
      <point x="146" y="450"/>
      <point x="159" y="525" type="curve" smooth="yes"/>
      <point x="172" y="599"/>
      <point x="224" y="637"/>
      <point x="273" y="637" type="curve" smooth="yes"/>
      <point x="323" y="637"/>
    </contour>
  </outline>
</glyph>
<glyph name="plusminus" format="2">
  <advance width="717"/>
  <unicode hex="00B1"/>
  <outline>
    <contour>
      <point x="471" y="621" type="line"/>
      <point x="362" y="621" type="line"/>
      <point x="282" y="166" type="line"/>
      <point x="391" y="166" type="line"/>
    </contour>
    <contour>
      <point x="135" y="471" type="line"/>
      <point x="117" y="369" type="line"/>
      <point x="626" y="369" type="line"/>
      <point x="644" y="471" type="line"/>
    </contour>
    <contour>
      <point x="92" y="225" type="line"/>
      <point x="74" y="124" type="line"/>
      <point x="583" y="124" type="line"/>
      <point x="601" y="225" type="line"/>
    </contour>
  </outline>
</glyph>
<glyph name="twosuperior" format="2">
  <advance width="340"/>
  <unicode hex="00B2"/>
  <outline>
    <contour>
      <point x="96" y="667"/>
      <point x="82" y="605" type="curve"/>
      <point x="172" y="605" type="line"/>
      <point x="179" y="628"/>
      <point x="196" y="643"/>
      <point x="221" y="643" type="curve" smooth="yes"/>
      <point x="246" y="643"/>
      <point x="261" y="624"/>
      <point x="256" y="593" type="curve" smooth="yes"/>
      <point x="249" y="556"/>
      <point x="218" y="528"/>
      <point x="173" y="497" type="curve"/>
      <point x="51" y="418" type="line"/>
      <point x="39" y="352" type="line"/>
      <point x="308" y="352" type="line"/>
      <point x="321" y="424" type="line"/>
      <point x="125" y="424" type="line"/>
      <point x="104" y="396" type="line"/>
      <point x="234" y="471" type="line"/>
      <point x="307" y="515"/>
      <point x="342" y="547"/>
      <point x="351" y="597" type="curve" smooth="yes"/>
      <point x="361" y="656"/>
      <point x="321" y="711"/>
      <point x="236" y="711" type="curve" smooth="yes"/>
      <point x="152" y="711"/>
    </contour>
  </outline>
</glyph>
<glyph name="threesuperior" format="2">
  <advance width="342"/>
  <unicode hex="00B3"/>
  <outline>
    <contour>
      <point x="93" y="669"/>
      <point x="78" y="609" type="curve"/>
      <point x="163" y="609" type="line"/>
      <point x="172" y="630"/>
      <point x="191" y="644"/>
      <point x="221" y="644" type="curve" smooth="yes"/>
      <point x="253" y="644"/>
      <point x="269" y="627"/>
      <point x="264" y="601" type="curve" smooth="yes"/>
      <point x="259" y="573"/>
      <point x="235" y="559"/>
      <point x="203" y="559" type="curve" smooth="yes"/>
      <point x="169" y="559" type="line"/>
      <point x="159" y="501" type="line"/>
      <point x="196" y="501" type="line" smooth="yes"/>
      <point x="228" y="501"/>
      <point x="247" y="485"/>
      <point x="242" y="458" type="curve" smooth="yes"/>
      <point x="237" y="430"/>
      <point x="212" y="413"/>
      <point x="182" y="413" type="curve" smooth="yes"/>
      <point x="152" y="413"/>
      <point x="135" y="428"/>
      <point x="135" y="457" type="curve"/>
      <point x="47" y="457" type="line"/>
      <point x="38" y="388"/>
      <point x="88" y="347"/>
      <point x="172" y="347" type="curve" smooth="yes"/>
      <point x="258" y="347"/>
      <point x="326" y="390"/>
      <point x="336" y="446" type="curve" smooth="yes"/>
      <point x="343" y="488"/>
      <point x="318" y="515"/>
      <point x="286" y="527" type="curve"/>
      <point x="287" y="529" type="line"/>
      <point x="322" y="539"/>
      <point x="354" y="564"/>
      <point x="361" y="606" type="curve" smooth="yes"/>
      <point x="371" y="664"/>
      <point x="318" y="711"/>
      <point x="240" y="711" type="curve" smooth="yes"/>
      <point x="157" y="711"/>
    </contour>
  </outline>
</glyph>
<glyph name="micro" format="2">
  <advance width="654"/>
  <unicode hex="00B5"/>
  <outline>
    <contour>
      <point x="527" y="0" type="line"/>
      <point x="624" y="551" type="line"/>
      <point x="510" y="551" type="line"/>
      <point x="413" y="0" type="line"/>
    </contour>
    <contour>
      <point x="464" y="152" type="curve"/>
      <point x="456" y="243" type="line"/>
      <point x="438" y="142"/>
      <point x="374" y="90"/>
      <point x="290" y="90" type="curve" smooth="yes"/>
      <point x="207" y="90"/>
      <point x="161" y="142"/>
      <point x="179" y="243" type="curve" smooth="yes"/>
      <point x="233" y="551" type="line"/>
      <point x="120" y="551" type="line"/>
      <point x="-23" y="-262" type="line"/>
      <point x="90" y="-262" type="line"/>
      <point x="143" y="39" type="line"/>
      <point x="134" y="30" type="line"/>
      <point x="158" y="4"/>
      <point x="195" y="-8"/>
      <point x="236" y="-8" type="curve" smooth="yes"/>
      <point x="335" y="-8"/>
      <point x="424" y="47"/>
    </contour>
  </outline>
</glyph>
<glyph name="paragraph" format="2">
  <advance width="630"/>
  <unicode hex="00B6"/>
  <outline>
    <contour>
      <point x="626" y="695" type="line"/>
      <point x="343" y="695" type="line" smooth="yes"/>
      <point x="179" y="695"/>
      <point x="89" y="601"/>
      <point x="69" y="488" type="curve" smooth="yes"/>
      <point x="49" y="375"/>
      <point x="105" y="282"/>
      <point x="270" y="282" type="curve" smooth="yes"/>
      <point x="284" y="282" type="line"/>
      <point x="234" y="0" type="line"/>
      <point x="335" y="0" type="line"/>
      <point x="442" y="606" type="line"/>
      <point x="509" y="606" type="line"/>
      <point x="402" y="0" type="line"/>
      <point x="503" y="0" type="line"/>
    </contour>
  </outline>
</glyph>
<glyph name="onesuperior" format="2">
  <advance width="209"/>
  <unicode hex="00B9"/>
  <outline>
    <contour>
      <point x="134" y="636" type="line"/>
      <point x="84" y="352" type="line"/>
      <point x="173" y="352" type="line"/>
      <point x="235" y="704" type="line"/>
      <point x="92" y="704" type="line"/>
      <point x="80" y="636" type="line"/>
    </contour>
  </outline>
</glyph>
<glyph name="ordmasculine" format="2">
  <advance width="444"/>
  <unicode hex="00BA"/>
  <outline>
    <contour>
      <point x="92" y="639"/>
      <point x="72" y="528" type="curve" smooth="yes"/>
      <point x="53" y="419"/>
      <point x="124" y="347"/>
      <point x="233" y="347" type="curve" smooth="yes"/>
      <point x="341" y="347"/>
      <point x="435" y="419"/>
      <point x="454" y="528" type="curve" smooth="yes"/>
      <point x="474" y="639"/>
      <point x="401" y="709"/>
      <point x="292" y="709" type="curve" smooth="yes"/>
      <point x="184" y="709"/>
    </contour>
    <contour>
      <point x="376" y="605"/>
      <point x="362" y="527" type="curve" smooth="yes"/>
      <point x="349" y="452"/>
      <point x="295" y="414"/>
      <point x="244" y="414" type="curve" smooth="yes"/>
      <point x="192" y="414"/>
      <point x="151" y="452"/>
      <point x="164" y="527" type="curve" smooth="yes"/>
      <point x="178" y="605"/>
      <point x="230" y="643"/>
      <point x="281" y="643" type="curve" smooth="yes"/>
      <point x="332" y="643"/>
    </contour>
  </outline>
</glyph>
<glyph name="guillemotright" format="2">
  <advance width="489"/>
  <unicode hex="00BB"/>
  <outline>
    <contour>
      <point x="211" y="120" type="line"/>
      <point x="320" y="120" type="line"/>
      <point x="444" y="295" type="line"/>
      <point x="382" y="470" type="line"/>
      <point x="273" y="470" type="line"/>
      <point x="337" y="295" type="line"/>
    </contour>
    <contour>
      <point x="19" y="120" type="line"/>
      <point x="128" y="120" type="line"/>
      <point x="252" y="295" type="line"/>
      <point x="190" y="470" type="line"/>
      <point x="81" y="470" type="line"/>
      <point x="145" y="295" type="line"/>
    </contour>
  </outline>
</glyph>
<glyph name="AE" format="2">
  <advance width="921"/>
  <unicode hex="00C6"/>
  <outline>
    <contour>
      <point x="191" y="231" type="line"/>
      <point x="125" y="142" type="line"/>
      <point x="498" y="142" type="line"/>
      <point x="514" y="231" type="line"/>
    </contour>
    <contour>
      <point x="641" y="607" type="line"/>
      <point x="910" y="607" type="line"/>
      <point x="926" y="696" type="line"/>
      <point x="466" y="696" type="line"/>
      <point x="-40" y="0" type="line"/>
      <point x="84" y="0" type="line"/>
      <point x="529" y="617" type="line"/>
      <point x="420" y="0" type="line"/>
      <point x="803" y="0" type="line"/>
      <point x="819" y="89" type="line"/>
      <point x="550" y="89" type="line"/>
      <point x="589" y="308" type="line"/>
      <point x="828" y="308" type="line"/>
      <point x="843" y="396" type="line"/>
      <point x="604" y="396" type="line"/>
    </contour>
  </outline>
</glyph>
<glyph name="Eth" format="2">
  <advance width="720"/>
  <unicode hex="00D0"/>
  <outline>
    <contour>
      <point x="28" y="398" type="line"/>
      <point x="9" y="293" type="line"/>
      <point x="379" y="293" type="line"/>
      <point x="398" y="398" type="line"/>
    </contour>
    <contour>
      <point x="608" y="695"/>
      <point x="385" y="695" type="curve" smooth="yes"/>
      <point x="157" y="695" type="line"/>
      <point x="34" y="0" type="line"/>
      <point x="262" y="0" type="line" smooth="yes"/>
      <point x="485" y="0"/>
      <point x="653" y="131"/>
      <point x="691" y="345" type="curve" smooth="yes"/>
      <point x="729" y="560"/>
    </contour>
    <contour>
      <point x="278" y="87" type="curve" smooth="yes"/>
      <point x="165" y="87" type="line"/>
      <point x="256" y="603" type="line"/>
      <point x="369" y="603" type="line" smooth="yes"/>
      <point x="532" y="603"/>
      <point x="602" y="504"/>
      <point x="574" y="345" type="curve" smooth="yes"/>
      <point x="546" y="187"/>
      <point x="441" y="87"/>
    </contour>
  </outline>
</glyph>
<glyph name="multiply" format="2">
  <advance width="699"/>
  <unicode hex="00D7"/>
  <outline>
    <contour>
      <point x="252" y="587" type="line"/>
      <point x="166" y="514" type="line"/>
      <point x="475" y="138" type="line"/>
      <point x="561" y="211" type="line"/>
    </contour>
    <contour>
      <point x="109" y="213" type="line"/>
      <point x="171" y="138" type="line"/>
      <point x="612" y="512" type="line"/>
      <point x="550" y="587" type="line"/>
    </contour>
  </outline>
</glyph>
<glyph name="Oslash" format="2">
  <advance width="784"/>
  <unicode hex="00D8"/>
  <outline>
    <contour>
      <point x="738" y="696" type="line"/>
      <point x="-26" y="0" type="line"/>
      <point x="65" y="0" type="line"/>
      <point x="829" y="696" type="line"/>
    </contour>
    <component base="O"/>
  </outline>
</glyph>
<glyph name="Thorn" format="2">
  <advance width="595"/>
  <unicode hex="00DE"/>
  <outline>
    <contour>
      <point x="304" y="231" type="curve" smooth="yes"/>
      <point x="178" y="231" type="line"/>
      <point x="220" y="466" type="line"/>
      <point x="346" y="466" type="line" smooth="yes"/>
      <point x="435" y="466"/>
      <point x="466" y="419"/>
      <point x="454" y="348" type="curve" smooth="yes"/>
      <point x="441" y="278"/>
      <point x="393" y="231"/>
    </contour>
    <contour>
      <point x="553" y="249"/>
      <point x="571" y="348" type="curve" smooth="yes"/>
      <point x="591" y="461"/>
      <point x="526" y="555"/>
      <point x="361" y="555" type="curve" smooth="yes"/>
      <point x="234" y="555" type="line"/>
      <point x="259" y="696" type="line"/>
      <point x="146" y="696" type="line"/>
      <point x="23" y="0" type="line"/>
      <point x="137" y="0" type="line"/>
      <point x="162" y="142" type="line"/>
      <point x="288" y="142" type="line" smooth="yes"/>
      <point x="469" y="142"/>
    </contour>
  </outline>
</glyph>
<glyph name="germandbls" format="2">
  <advance width="682"/>
  <unicode hex="00DF"/>
  <outline>
    <contour>
      <point x="105" y="562" type="curve" smooth="yes"/>
      <point x="6" y="0" type="line"/>
      <point x="120" y="0" type="line"/>
      <point x="216" y="547" type="line" smooth="yes"/>
      <point x="231" y="630"/>
      <point x="272" y="678"/>
      <point x="371" y="678" type="curve" smooth="yes"/>
      <point x="436" y="678"/>
      <point x="475" y="653"/>
      <point x="475" y="608" type="curve" smooth="yes"/>
      <point x="475" y="513"/>
      <point x="298" y="469"/>
      <point x="298" y="356" type="curve" smooth="yes"/>
      <point x="298" y="299"/>
      <point x="342" y="266"/>
      <point x="430" y="235" type="curve" smooth="yes"/>
      <point x="487" y="215"/>
      <point x="507" y="195"/>
      <point x="507" y="163" type="curve" smooth="yes"/>
      <point x="507" y="107"/>
      <point x="470" y="81"/>
      <point x="409" y="81" type="curve" smooth="yes"/>
      <point x="350" y="81"/>
      <point x="322" y="116"/>
      <point x="330" y="173" type="curve"/>
      <point x="214" y="173" type="line"/>
      <point x="200" y="62"/>
      <point x="272" y="-10"/>
      <point x="396" y="-10" type="curve" smooth="yes"/>
      <point x="527" y="-10"/>
      <point x="627" y="66"/>
      <point x="627" y="177" type="curve" smooth="yes"/>
      <point x="627" y="251"/>
      <point x="593" y="293"/>
      <point x="511" y="322" type="curve" smooth="yes"/>
      <point x="430" y="351"/>
      <point x="418" y="364"/>
      <point x="418" y="382" type="curve" smooth="yes"/>
      <point x="418" y="432"/>
      <point x="592" y="485"/>
      <point x="592" y="626" type="curve" smooth="yes"/>
      <point x="592" y="703"/>
      <point x="527" y="773"/>
      <point x="389" y="773" type="curve" smooth="yes"/>
      <point x="215" y="773"/>
      <point x="125" y="676"/>
    </contour>
  </outline>
</glyph>
<glyph name="ae" format="2">
  <advance width="1085"/>
  <unicode hex="00E6"/>
  <guideline x="908" y="453" angle="180"/>
  <outline>
    <contour>
      <point x="598" y="319" type="line"/>
      <point x="583" y="237" type="line"/>
      <point x="1034" y="237" type="line"/>
      <point x="1040" y="256"/>
      <point x="1045" y="274"/>
      <point x="1048" y="291" type="curve" smooth="yes"/>
      <point x="1075" y="447"/>
      <point x="989" y="560"/>
      <point x="836" y="560" type="curve" smooth="yes"/>
      <point x="758" y="560"/>
      <point x="692" y="536"/>
      <point x="628" y="473" type="curve"/>
      <point x="641" y="551" type="line"/>
      <point x="534" y="551" type="line"/>
      <point x="521" y="473" type="line"/>
      <point x="486" y="532"/>
      <point x="428" y="560"/>
      <point x="350" y="560" type="curve" smooth="yes"/>
      <point x="199" y="560"/>
      <point x="64" y="448"/>
      <point x="34" y="278" type="curve" smooth="yes"/>
      <point x="4" y="108"/>
      <point x="99" y="-9"/>
      <point x="244" y="-9" type="curve" smooth="yes"/>
      <point x="328" y="-9"/>
      <point x="402" y="32"/>
      <point x="452" y="83" type="curve"/>
      <point x="437" y="0" type="line"/>
      <point x="544" y="0" type="line"/>
      <point x="559" y="83" type="line"/>
      <point x="588" y="30"/>
      <point x="654" y="-9"/>
      <point x="736" y="-9" type="curve" smooth="yes"/>
      <point x="864" y="-9"/>
      <point x="962" y="68"/>
      <point x="1010" y="164" type="curve"/>
      <point x="886" y="164" type="line"/>
      <point x="860" y="120"/>
      <point x="809" y="87"/>
      <point x="733" y="87" type="curve" smooth="yes"/>
      <point x="654" y="87"/>
      <point x="577" y="147"/>
      <point x="598" y="265" type="curve" smooth="yes"/>
      <point x="602" y="290" type="line" smooth="yes"/>
      <point x="621" y="394"/>
      <point x="709" y="464"/>
      <point x="800" y="464" type="curve" smooth="yes"/>
      <point x="890" y="464"/>
      <point x="948" y="407"/>
      <point x="935" y="319" type="curve"/>
    </contour>
    <contour>
      <point x="130" y="159"/>
      <point x="151" y="278" type="curve" smooth="yes"/>
      <point x="172" y="397"/>
      <point x="266" y="461"/>
      <point x="351" y="461" type="curve" smooth="yes"/>
      <point x="437" y="461"/>
      <point x="506" y="394"/>
      <point x="485" y="276" type="curve" smooth="yes"/>
      <point x="464" y="157"/>
      <point x="371" y="90"/>
      <point x="285" y="90" type="curve" smooth="yes"/>
      <point x="200" y="90"/>
    </contour>
  </outline>
</glyph>
<glyph name="eth" format="2">
  <advance width="636"/>
  <unicode hex="00F0"/>
  <outline>
    <contour>
      <point x="630" y="743" type="line"/>
      <point x="327" y="649" type="line"/>
      <point x="316" y="588" type="line"/>
      <point x="620" y="682" type="line"/>
    </contour>
    <contour>
      <point x="354" y="560" type="curve" smooth="yes"/>
      <point x="205" y="560"/>
      <point x="65" y="449"/>
      <point x="34" y="276" type="curve" smooth="yes"/>
      <point x="3" y="103"/>
      <point x="103" y="-9"/>
      <point x="261" y="-9" type="curve" smooth="yes"/>
      <point x="423" y="-9"/>
      <point x="565" y="101"/>
      <point x="603" y="317" type="curve" smooth="yes"/>
      <point x="632" y="481"/>
      <point x="580" y="623"/>
      <point x="464" y="740" type="curve"/>
      <point x="348" y="740" type="line"/>
      <point x="433" y="658"/>
      <point x="482" y="587"/>
      <point x="503" y="503" type="curve"/>
      <point x="466" y="540"/>
      <point x="421" y="560"/>
    </contour>
    <contour>
      <point x="278" y="87" type="curve" smooth="yes"/>
      <point x="192" y="87"/>
      <point x="129" y="151"/>
      <point x="151" y="276" type="curve" smooth="yes"/>
      <point x="173" y="401"/>
      <point x="261" y="464"/>
      <point x="346" y="464" type="curve" smooth="yes"/>
      <point x="432" y="464"/>
      <point x="501" y="401"/>
      <point x="479" y="276" type="curve" smooth="yes"/>
      <point x="457" y="151"/>
      <point x="363" y="87"/>
    </contour>
  </outline>
</glyph>
<glyph name="divide" format="2">
  <advance width="679"/>
  <unicode hex="00F7"/>
  <outline>
    <contour>
      <point x="111" y="412" type="line"/>
      <point x="93" y="311" type="line"/>
      <point x="603" y="311" type="line"/>
      <point x="621" y="412" type="line"/>
    </contour>
    <component base="period" xOffset="226" yOffset="82"/>
    <component base="period" xOffset="306" yOffset="512"/>
  </outline>
</glyph>
<glyph name="oslash" format="2">
  <advance width="638"/>
  <unicode hex="00F8"/>
  <outline>
    <contour>
      <point x="576" y="551" type="line"/>
      <point x="-24" y="0" type="line"/>
      <point x="55" y="0" type="line"/>
      <point x="655" y="551" type="line"/>
    </contour>
    <component base="o"/>
  </outline>
</glyph>
<glyph name="Aogonek" format="2">
  <advance width="697"/>
  <unicode hex="0104"/>
  <outline>
    <contour>
      <point x="590" y="67" type="line"/>
      <point x="544" y="48" type="line" smooth="yes"/>
      <point x="443" y="6"/>
      <point x="403" y="-52"/>
      <point x="394" y="-102" type="curve" smooth="yes"/>
      <point x="380" y="-183"/>
      <point x="446" y="-211"/>
      <point x="509" y="-211" type="curve" smooth="yes"/>
      <point x="538" y="-211"/>
      <point x="568" y="-205"/>
      <point x="593" y="-196" type="curve"/>
      <point x="606" y="-123" type="line"/>
      <point x="581" y="-132"/>
      <point x="556" y="-137"/>
      <point x="537" y="-137" type="curve" smooth="yes"/>
      <point x="503" y="-137"/>
      <point x="485" y="-119"/>
      <point x="490" y="-91" type="curve" smooth="yes"/>
      <point x="495" y="-67"/>
      <point x="512" y="-47"/>
      <point x="559" y="-25" type="curve" smooth="yes"/>
      <point x="612" y="0" type="line"/>
    </contour>
    <component base="A"/>
  </outline>
</glyph>
<glyph name="dcaron" format="2">
  <advance width="781"/>
  <unicode hex="010F"/>
  <outline>
    <contour>
      <point x="836" y="740" type="curve"/>
      <point x="733" y="740" type="line"/>
      <point x="716" y="643" type="line"/>
      <point x="769" y="643" type="line"/>
      <point x="765" y="622" type="line" smooth="yes"/>
      <point x="758" y="585"/>
      <point x="740" y="566"/>
      <point x="706" y="566" type="curve"/>
      <point x="697" y="516" type="line"/>
      <point x="772" y="516"/>
      <point x="818" y="558"/>
      <point x="832" y="640" type="curve" smooth="yes"/>
      <point x="837" y="670"/>
      <point x="838" y="703"/>
    </contour>
    <component base="d"/>
  </outline>
</glyph>
<glyph name="dcroat" format="2">
  <advance width="678"/>
  <unicode hex="0111"/>
  <outline>
    <contour>
      <point x="470" y="656" type="line"/>
      <point x="458" y="590" type="line"/>
      <point x="714" y="590" type="line"/>
      <point x="726" y="656" type="line"/>
    </contour>
    <component base="d"/>
  </outline>
</glyph>
<glyph name="Gcommaaccent" format="2">
  <advance width="773"/>
  <unicode hex="0122"/>
  <outline>
    <contour>
      <point x="375" y="-46" type="curve"/>
      <point x="272" y="-46" type="line"/>
      <point x="255" y="-142" type="line"/>
      <point x="308" y="-142" type="line"/>
      <point x="305" y="-163" type="line" smooth="yes"/>
      <point x="298" y="-201"/>
      <point x="280" y="-220"/>
      <point x="246" y="-220" type="curve"/>
      <point x="237" y="-270" type="line"/>
      <point x="311" y="-270"/>
      <point x="357" y="-228"/>
      <point x="372" y="-145" type="curve" smooth="yes"/>
      <point x="377" y="-116"/>
      <point x="378" y="-83"/>
    </contour>
    <component base="G"/>
  </outline>
</glyph>
<glyph name="gcommaaccent" format="2">
  <advance width="678"/>
  <unicode hex="0123"/>
  <outline>
    <contour>
      <point x="344" y="597" type="curve"/>
      <point x="447" y="597" type="line"/>
      <point x="464" y="694" type="line"/>
      <point x="412" y="694" type="line"/>
      <point x="415" y="715" type="line" smooth="yes"/>
      <point x="422" y="752"/>
      <point x="440" y="771"/>
      <point x="473" y="771" type="curve"/>
      <point x="482" y="821" type="line"/>
      <point x="408" y="821"/>
      <point x="363" y="779"/>
      <point x="348" y="696" type="curve" smooth="yes"/>
      <point x="343" y="667"/>
      <point x="341" y="634"/>
    </contour>
    <component base="g"/>
  </outline>
</glyph>
<glyph name="dotlessi" format="2">
  <advance width="264"/>
  <unicode hex="0131"/>
  <anchor x="188" y="10" name="ogonek"/>
  <anchor x="177" y="551" name="top"/>
  <outline>
    <contour>
      <point x="120" y="551" type="line"/>
      <point x="23" y="0" type="line"/>
      <point x="137" y="0" type="line"/>
      <point x="234" y="551" type="line"/>
    </contour>
  </outline>
</glyph>
<glyph name="Kcommaaccent" format="2">
  <advance width="633"/>
  <unicode hex="0136"/>
  <anchor x="265" y="0" name="_bottom"/>
  <outline>
    <contour>
      <point x="305" y="-46" type="curve"/>
      <point x="202" y="-46" type="line"/>
      <point x="185" y="-142" type="line"/>
      <point x="238" y="-142" type="line"/>
      <point x="235" y="-163" type="line" smooth="yes"/>
      <point x="228" y="-201"/>
      <point x="210" y="-220"/>
      <point x="177" y="-220" type="curve"/>
      <point x="168" y="-270" type="line"/>
      <point x="242" y="-270"/>
      <point x="287" y="-228"/>
      <point x="302" y="-145" type="curve" smooth="yes"/>
      <point x="307" y="-116"/>
      <point x="309" y="-83"/>
    </contour>
    <component base="K"/>
  </outline>
</glyph>
<glyph name="kcommaaccent" format="2">
  <advance width="554"/>
  <unicode hex="0137"/>
  <outline>
    <contour>
      <point x="266" y="-46" type="curve"/>
      <point x="163" y="-46" type="line"/>
      <point x="146" y="-142" type="line"/>
      <point x="199" y="-142" type="line"/>
      <point x="196" y="-163" type="line" smooth="yes"/>
      <point x="189" y="-201"/>
      <point x="170" y="-220"/>
      <point x="137" y="-220" type="curve"/>
      <point x="128" y="-270" type="line"/>
      <point x="202" y="-270"/>
      <point x="247" y="-228"/>
      <point x="262" y="-145" type="curve" smooth="yes"/>
      <point x="267" y="-116"/>
      <point x="269" y="-83"/>
    </contour>
    <component base="k"/>
  </outline>
</glyph>
<glyph name="Lcommaaccent" format="2">
  <advance width="444"/>
  <unicode hex="013B"/>
  <outline>
    <contour>
      <point x="236" y="-46" type="curve"/>
      <point x="133" y="-46" type="line"/>
      <point x="116" y="-142" type="line"/>
      <point x="169" y="-142" type="line"/>
      <point x="166" y="-163" type="line" smooth="yes"/>
      <point x="159" y="-201"/>
      <point x="141" y="-220"/>
      <point x="107" y="-220" type="curve"/>
      <point x="98" y="-270" type="line"/>
      <point x="173" y="-270"/>
      <point x="218" y="-228"/>
      <point x="233" y="-145" type="curve" smooth="yes"/>
      <point x="238" y="-116"/>
      <point x="240" y="-83"/>
    </contour>
    <component base="L"/>
  </outline>
</glyph>
<glyph name="lcommaaccent" format="2">
  <advance width="264"/>
  <unicode hex="013C"/>
  <outline>
    <contour>
      <point x="121" y="-46" type="curve"/>
      <point x="18" y="-46" type="line"/>
      <point x="1" y="-142" type="line"/>
      <point x="54" y="-142" type="line"/>
      <point x="51" y="-163" type="line" smooth="yes"/>
      <point x="44" y="-201"/>
      <point x="26" y="-220"/>
      <point x="-8" y="-220" type="curve"/>
      <point x="-17" y="-270" type="line"/>
      <point x="57" y="-270"/>
      <point x="103" y="-228"/>
      <point x="118" y="-145" type="curve" smooth="yes"/>
      <point x="123" y="-116"/>
      <point x="124" y="-83"/>
    </contour>
    <component base="l"/>
  </outline>
</glyph>
<glyph name="Lcaron" format="2">
  <advance width="463"/>
  <unicode hex="013D"/>
  <anchor x="431" y="741" name="_bottom"/>
  <outline>
    <contour>
      <point x="471" y="695" type="curve"/>
      <point x="368" y="695" type="line"/>
      <point x="351" y="599" type="line"/>
      <point x="404" y="599" type="line"/>
      <point x="400" y="578" type="line" smooth="yes"/>
      <point x="394" y="540"/>
      <point x="375" y="521"/>
      <point x="342" y="521" type="curve"/>
      <point x="333" y="471" type="line"/>
      <point x="407" y="471"/>
      <point x="453" y="513"/>
      <point x="467" y="596" type="curve" smooth="yes"/>
      <point x="473" y="625"/>
      <point x="474" y="658"/>
    </contour>
    <component base="L"/>
  </outline>
</glyph>
<glyph name="lcaron" format="2">
  <advance width="427"/>
  <unicode hex="013E"/>
  <outline>
    <contour>
      <point x="449" y="740" type="curve"/>
      <point x="346" y="740" type="line"/>
      <point x="329" y="643" type="line"/>
      <point x="382" y="643" type="line"/>
      <point x="378" y="622" type="line" smooth="yes"/>
      <point x="371" y="585"/>
      <point x="353" y="566"/>
      <point x="320" y="566" type="curve"/>
      <point x="311" y="516" type="line"/>
      <point x="385" y="516"/>
      <point x="431" y="558"/>
      <point x="445" y="640" type="curve" smooth="yes"/>
      <point x="450" y="670"/>
      <point x="452" y="703"/>
    </contour>
    <component base="l"/>
  </outline>
</glyph>
<glyph name="Ldot" format="2">
  <advance width="444"/>
  <unicode hex="013F"/>
  <outline>
    <contour>
      <point x="23" y="0" type="line"/>
      <point x="372" y="0" type="line"/>
      <point x="388" y="87" type="line"/>
      <point x="153" y="87" type="line"/>
      <point x="260" y="695" type="line"/>
      <point x="146" y="695" type="line"/>
    </contour>
    <contour>
      <point x="355" y="305" type="curve" smooth="yes"/>
      <point x="388" y="305"/>
      <point x="419" y="331"/>
      <point x="425" y="365" type="curve" smooth="yes"/>
      <point x="431" y="398"/>
      <point x="409" y="425"/>
      <point x="376" y="425" type="curve" smooth="yes"/>
      <point x="342" y="425"/>
      <point x="311" y="398"/>
      <point x="305" y="365" type="curve" smooth="yes"/>
      <point x="299" y="331"/>
      <point x="321" y="305"/>
    </contour>
  </outline>
</glyph>
<glyph name="ldot" format="2">
  <advance width="321"/>
  <unicode hex="0140"/>
  <outline>
    <contour>
      <point x="23" y="0" type="line"/>
      <point x="137" y="0" type="line"/>
      <point x="268" y="740" type="line"/>
      <point x="154" y="740" type="line"/>
    </contour>
    <contour>
      <point x="297" y="309" type="curve" smooth="yes"/>
      <point x="330" y="309"/>
      <point x="362" y="335"/>
      <point x="368" y="369" type="curve" smooth="yes"/>
      <point x="374" y="402"/>
      <point x="351" y="429"/>
      <point x="318" y="429" type="curve" smooth="yes"/>
      <point x="284" y="429"/>
      <point x="254" y="402"/>
      <point x="248" y="369" type="curve" smooth="yes"/>
      <point x="242" y="335"/>
      <point x="263" y="309"/>
    </contour>
  </outline>
</glyph>
<glyph name="Lslash" format="2">
  <advance width="444"/>
  <unicode hex="0141"/>
  <outline>
    <contour>
      <point x="22" y="368" type="line"/>
      <point x="4" y="263" type="line"/>
      <point x="304" y="355" type="line"/>
      <point x="323" y="461" type="line"/>
    </contour>
    <contour>
      <point x="272" y="695" type="line"/>
      <point x="157" y="695" type="line"/>
      <point x="34" y="0" type="line"/>
      <point x="383" y="0" type="line"/>
      <point x="399" y="87" type="line"/>
      <point x="165" y="87" type="line"/>
    </contour>
  </outline>
</glyph>
<glyph name="lslash" format="2">
  <advance width="264"/>
  <unicode hex="0142"/>
  <outline>
    <contour>
      <point x="22" y="365" type="line"/>
      <point x="3" y="259" type="line"/>
      <point x="265" y="344" type="line"/>
      <point x="284" y="449" type="line"/>
    </contour>
    <contour>
      <point x="154" y="740" type="line"/>
      <point x="23" y="0" type="line"/>
      <point x="137" y="0" type="line"/>
      <point x="268" y="740" type="line"/>
    </contour>
  </outline>
</glyph>
<glyph name="Ncommaaccent" format="2">
  <advance width="721"/>
  <unicode hex="0145"/>
  <outline>
    <contour>
      <point x="349" y="-46" type="curve"/>
      <point x="246" y="-46" type="line"/>
      <point x="229" y="-142" type="line"/>
      <point x="282" y="-142" type="line"/>
      <point x="279" y="-163" type="line" smooth="yes"/>
      <point x="272" y="-201"/>
      <point x="254" y="-220"/>
      <point x="221" y="-220" type="curve"/>
      <point x="212" y="-270" type="line"/>
      <point x="286" y="-270"/>
      <point x="331" y="-228"/>
      <point x="346" y="-145" type="curve" smooth="yes"/>
      <point x="351" y="-116"/>
      <point x="353" y="-83"/>
    </contour>
    <component base="N"/>
  </outline>
</glyph>
<glyph name="ncommaaccent" format="2">
  <advance width="649"/>
  <unicode hex="0146"/>
  <outline>
    <contour>
      <point x="313" y="-46" type="curve"/>
      <point x="210" y="-46" type="line"/>
      <point x="193" y="-142" type="line"/>
      <point x="246" y="-142" type="line"/>
      <point x="243" y="-163" type="line" smooth="yes"/>
      <point x="236" y="-201"/>
      <point x="218" y="-220"/>
      <point x="185" y="-220" type="curve"/>
      <point x="176" y="-270" type="line"/>
      <point x="250" y="-270"/>
      <point x="295" y="-228"/>
      <point x="310" y="-145" type="curve" smooth="yes"/>
      <point x="315" y="-116"/>
      <point x="317" y="-83"/>
    </contour>
    <component base="n"/>
  </outline>
</glyph>
<glyph name="OE" format="2">
  <advance width="1083"/>
  <unicode hex="0152"/>
  <outline>
    <contour>
      <point x="803" y="606" type="line"/>
      <point x="1073" y="606" type="line"/>
      <point x="1089" y="695" type="line"/>
      <point x="705" y="695" type="line"/>
      <point x="686" y="589" type="line"/>
      <point x="642" y="665"/>
      <point x="563" y="704"/>
      <point x="458" y="704" type="curve" smooth="yes"/>
      <point x="273" y="704"/>
      <point x="88" y="559"/>
      <point x="51" y="349" type="curve" smooth="yes"/>
      <point x="14" y="140"/>
      <point x="147" y="-7"/>
      <point x="334" y="-7" type="curve" smooth="yes"/>
      <point x="438" y="-7"/>
      <point x="530" y="32"/>
      <point x="602" y="111" type="curve"/>
      <point x="582" y="0" type="line"/>
      <point x="966" y="0" type="line"/>
      <point x="982" y="89" type="line"/>
      <point x="712" y="89" type="line"/>
      <point x="750" y="307" type="line"/>
      <point x="990" y="307" type="line"/>
      <point x="1006" y="395" type="line"/>
      <point x="766" y="395" type="line"/>
    </contour>
    <contour>
      <point x="168" y="349" type="curve" smooth="yes"/>
      <point x="195" y="502"/>
      <point x="312" y="600"/>
      <point x="450" y="600" type="curve" smooth="yes"/>
      <point x="588" y="600"/>
      <point x="671" y="502"/>
      <point x="644" y="349" type="curve" smooth="yes"/>
      <point x="617" y="196"/>
      <point x="499" y="96"/>
      <point x="361" y="96" type="curve" smooth="yes"/>
      <point x="223" y="96"/>
      <point x="141" y="196"/>
    </contour>
  </outline>
</glyph>
<glyph name="oe" format="2">
  <advance width="1062"/>
  <unicode hex="0153"/>
  <outline>
    <contour>
      <point x="501" y="401"/>
      <point x="479" y="276" type="curve" smooth="yes"/>
      <point x="457" y="151"/>
      <point x="363" y="87"/>
      <point x="278" y="87" type="curve" smooth="yes"/>
      <point x="192" y="87"/>
      <point x="129" y="151"/>
      <point x="151" y="276" type="curve" smooth="yes"/>
      <point x="173" y="401"/>
      <point x="261" y="464"/>
      <point x="346" y="464" type="curve" smooth="yes"/>
      <point x="432" y="464"/>
    </contour>
    <contour>
      <point x="65" y="449"/>
      <point x="34" y="276" type="curve" smooth="yes"/>
      <point x="3" y="103"/>
      <point x="103" y="-9"/>
      <point x="261" y="-9" type="curve" smooth="yes"/>
      <point x="353" y="-9"/>
      <point x="442" y="33"/>
      <point x="505" y="107" type="curve"/>
      <point x="538" y="33"/>
      <point x="607" y="-9"/>
      <point x="699" y="-9" type="curve" smooth="yes"/>
      <point x="834" y="-9"/>
      <point x="935" y="68"/>
      <point x="983" y="164" type="curve"/>
      <point x="860" y="164" type="line"/>
      <point x="832" y="121"/>
      <point x="787" y="87"/>
      <point x="716" y="87" type="curve" smooth="yes"/>
      <point x="627" y="87"/>
      <point x="575" y="150"/>
      <point x="593" y="251" type="curve" smooth="yes"/>
      <point x="600" y="295" type="line" smooth="yes"/>
      <point x="619" y="400"/>
      <point x="696" y="464"/>
      <point x="782" y="464" type="curve" smooth="yes"/>
      <point x="867" y="464"/>
      <point x="924" y="407"/>
      <point x="910" y="315" type="curve"/>
      <point x="563" y="315" type="line"/>
      <point x="548" y="237" type="line"/>
      <point x="1011" y="237" type="line"/>
      <point x="1017" y="256"/>
      <point x="1022" y="274"/>
      <point x="1025" y="291" type="curve" smooth="yes"/>
      <point x="1053" y="451"/>
      <point x="961" y="560"/>
      <point x="804" y="560" type="curve" smooth="yes"/>
      <point x="709" y="560"/>
      <point x="625" y="518"/>
      <point x="566" y="446" type="curve"/>
      <point x="530" y="518"/>
      <point x="457" y="560"/>
      <point x="366" y="560" type="curve" smooth="yes"/>
      <point x="209" y="560"/>
    </contour>
  </outline>
</glyph>
<glyph name="Rcommaaccent" format="2">
  <advance width="632"/>
  <unicode hex="0156"/>
  <anchor x="264" y="0" name="_bottom"/>
  <outline>
    <contour>
      <point x="305" y="-46" type="curve"/>
      <point x="202" y="-46" type="line"/>
      <point x="185" y="-142" type="line"/>
      <point x="237" y="-142" type="line"/>
      <point x="234" y="-163" type="line" smooth="yes"/>
      <point x="227" y="-201"/>
      <point x="209" y="-220"/>
      <point x="176" y="-220" type="curve"/>
      <point x="167" y="-270" type="line"/>
      <point x="241" y="-270"/>
      <point x="286" y="-228"/>
      <point x="301" y="-145" type="curve" smooth="yes"/>
      <point x="306" y="-116"/>
      <point x="308" y="-83"/>
    </contour>
    <component base="R"/>
  </outline>
</glyph>
<glyph name="rcommaaccent" format="2">
  <advance width="384"/>
  <unicode hex="0157"/>
  <outline>
    <contour>
      <point x="120" y="-46" type="curve"/>
      <point x="17" y="-46" type="line"/>
      <point x="0" y="-142" type="line"/>
      <point x="53" y="-142" type="line"/>
      <point x="50" y="-163" type="line" smooth="yes"/>
      <point x="43" y="-201"/>
      <point x="25" y="-220"/>
      <point x="-8" y="-220" type="curve"/>
      <point x="-17" y="-270" type="line"/>
      <point x="57" y="-270"/>
      <point x="102" y="-228"/>
      <point x="117" y="-145" type="curve" smooth="yes"/>
      <point x="122" y="-116"/>
      <point x="124" y="-83"/>
    </contour>
    <component base="r"/>
  </outline>
</glyph>
<glyph name="tcedilla" format="2">
  <advance width="372"/>
  <unicode hex="0163"/>
  <outline>
    <contour>
      <point x="163" y="688" type="line"/>
      <point x="68" y="153" type="line" smooth="yes"/>
      <point x="49" y="41"/>
      <point x="102" y="0"/>
      <point x="200" y="0" type="curve" smooth="yes"/>
      <point x="290" y="0" type="line"/>
      <point x="307" y="95" type="line"/>
      <point x="237" y="95" type="line" smooth="yes"/>
      <point x="189" y="95"/>
      <point x="176" y="112"/>
      <point x="183" y="153" type="curve" smooth="yes"/>
      <point x="278" y="688" type="line"/>
    </contour>
    <contour>
      <point x="57" y="458" type="line"/>
      <point x="371" y="458" type="line"/>
      <point x="387" y="551" type="line"/>
      <point x="73" y="551" type="line"/>
    </contour>
    <contour>
      <point x="168" y="-48" type="curve"/>
      <point x="187" y="60" type="line"/>
      <point x="112" y="60" type="line"/>
      <point x="81" y="-116" type="line"/>
      <point x="136" y="-116" type="line" smooth="yes"/>
      <point x="171" y="-116"/>
      <point x="191" y="-123"/>
      <point x="185" y="-153" type="curve" smooth="yes"/>
      <point x="180" y="-183"/>
      <point x="158" y="-190"/>
      <point x="123" y="-190" type="curve" smooth="yes"/>
      <point x="14" y="-190" type="line"/>
      <point x="1" y="-262" type="line"/>
      <point x="133" y="-262" type="line" smooth="yes"/>
      <point x="204" y="-262"/>
      <point x="267" y="-221"/>
      <point x="279" y="-153" type="curve" smooth="yes"/>
      <point x="292" y="-84"/>
      <point x="242" y="-48"/>
    </contour>
  </outline>
</glyph>
<glyph name="tcaron" format="2">
  <advance width="377"/>
  <unicode hex="0165"/>
  <outline>
    <contour>
      <point x="471" y="784" type="curve"/>
      <point x="368" y="784" type="line"/>
      <point x="350" y="687" type="line"/>
      <point x="403" y="687" type="line"/>
      <point x="401" y="672" type="line" smooth="yes"/>
      <point x="397" y="649"/>
      <point x="379" y="640"/>
      <point x="346" y="640" type="curve"/>
      <point x="337" y="590" type="line"/>
      <point x="411" y="590"/>
      <point x="456" y="623"/>
      <point x="469" y="694" type="curve" smooth="yes"/>
      <point x="474" y="724"/>
      <point x="473" y="747"/>
    </contour>
    <component base="t"/>
  </outline>
</glyph>
<glyph name="Schwa" format="2">
  <advance width="738"/>
  <unicode hex="018F"/>
  <outline>
    <contour>
      <point x="591" y="370" type="curve" smooth="yes"/>
      <point x="580" y="305" type="line" smooth="yes"/>
      <point x="557" y="175"/>
      <point x="452" y="96"/>
      <point x="327" y="96" type="curve" smooth="yes"/>
      <point x="213" y="96"/>
      <point x="137" y="161"/>
      <point x="154" y="284" type="curve"/>
      <point x="597" y="284" type="line"/>
      <point x="616" y="391" type="line"/>
      <point x="58" y="391" type="line"/>
      <point x="45" y="347"/>
      <point x="36" y="298"/>
      <point x="36" y="257" type="curve" smooth="yes"/>
      <point x="36" y="90"/>
      <point x="154" y="-7"/>
      <point x="314" y="-7" type="curve" smooth="yes"/>
      <point x="554" y="-7"/>
      <point x="718" y="194"/>
      <point x="718" y="430" type="curve" smooth="yes"/>
      <point x="718" y="591"/>
      <point x="605" y="704"/>
      <point x="437" y="704" type="curve" smooth="yes"/>
      <point x="277" y="704"/>
      <point x="146" y="619"/>
      <point x="79" y="485" type="curve"/>
      <point x="211" y="485" type="line"/>
      <point x="252" y="557"/>
      <point x="327" y="600"/>
      <point x="419" y="600" type="curve" smooth="yes"/>
      <point x="545" y="600"/>
      <point x="614" y="507"/>
    </contour>
  </outline>
</glyph>
<glyph name="florin" format="2">
  <advance width="332"/>
  <unicode hex="0192"/>
  <outline>
    <contour>
      <point x="66" y="551" type="line"/>
      <point x="41" y="458" type="line"/>
      <point x="323" y="458" type="line"/>
      <point x="348" y="551" type="line"/>
    </contour>
    <contour>
      <point x="180" y="717"/>
      <point x="143" y="590" type="curve" smooth="yes"/>
      <point x="-41" y="-64" type="line" smooth="yes"/>
      <point x="-52" y="-106"/>
      <point x="-71" y="-123"/>
      <point x="-103" y="-123" type="curve" smooth="yes"/>
      <point x="-119" y="-123" type="line"/>
      <point x="-146" y="-217" type="line"/>
      <point x="-124" y="-217" type="line" smooth="yes"/>
      <point x="-26" y="-217"/>
      <point x="42" y="-177"/>
      <point x="73" y="-64" type="curve" smooth="yes"/>
      <point x="258" y="590" type="line" smooth="yes"/>
      <point x="275" y="653"/>
      <point x="307" y="677"/>
      <point x="377" y="677" type="curve"/>
      <point x="403" y="772" type="line"/>
      <point x="259" y="772"/>
    </contour>
  </outline>
</glyph>
<glyph name="Scommaaccent" format="2">
  <advance width="604"/>
  <unicode hex="0218"/>
  <outline>
    <contour>
      <point x="291" y="-46" type="curve"/>
      <point x="188" y="-46" type="line"/>
      <point x="171" y="-142" type="line"/>
      <point x="224" y="-142" type="line"/>
      <point x="221" y="-163" type="line" smooth="yes"/>
      <point x="214" y="-201"/>
      <point x="196" y="-220"/>
      <point x="162" y="-220" type="curve"/>
      <point x="153" y="-270" type="line"/>
      <point x="228" y="-270"/>
      <point x="273" y="-228"/>
      <point x="288" y="-145" type="curve" smooth="yes"/>
      <point x="293" y="-116"/>
      <point x="295" y="-83"/>
    </contour>
    <component base="S"/>
  </outline>
</glyph>
<glyph name="scommaaccent" format="2">
  <advance width="534"/>
  <unicode hex="0219"/>
  <outline>
    <contour>
      <point x="256" y="-46" type="curve"/>
      <point x="153" y="-46" type="line"/>
      <point x="136" y="-142" type="line"/>
      <point x="189" y="-142" type="line"/>
      <point x="186" y="-163" type="line" smooth="yes"/>
      <point x="179" y="-201"/>
      <point x="161" y="-220"/>
      <point x="127" y="-220" type="curve"/>
      <point x="118" y="-270" type="line"/>
      <point x="192" y="-270"/>
      <point x="238" y="-228"/>
      <point x="253" y="-145" type="curve" smooth="yes"/>
      <point x="258" y="-116"/>
      <point x="259" y="-83"/>
    </contour>
    <component base="s"/>
  </outline>
</glyph>
<glyph name="Tcommaaccent" format="2">
  <advance width="564"/>
  <unicode hex="021A"/>
  <outline>
    <contour>
      <point x="271" y="-46" type="curve"/>
      <point x="168" y="-46" type="line"/>
      <point x="151" y="-142" type="line"/>
      <point x="204" y="-142" type="line"/>
      <point x="201" y="-163" type="line" smooth="yes"/>
      <point x="194" y="-201"/>
      <point x="175" y="-220"/>
      <point x="142" y="-220" type="curve"/>
      <point x="133" y="-270" type="line"/>
      <point x="207" y="-270"/>
      <point x="252" y="-228"/>
      <point x="267" y="-145" type="curve" smooth="yes"/>
      <point x="272" y="-116"/>
      <point x="274" y="-83"/>
    </contour>
    <component base="T"/>
  </outline>
</glyph>
<glyph name="tcommaaccent" format="2">
  <advance width="372"/>
  <unicode hex="021B"/>
  <outline>
    <contour>
      <point x="175" y="-46" type="curve"/>
      <point x="72" y="-46" type="line"/>
      <point x="55" y="-142" type="line"/>
      <point x="108" y="-142" type="line"/>
      <point x="105" y="-163" type="line" smooth="yes"/>
      <point x="98" y="-201"/>
      <point x="80" y="-220"/>
      <point x="46" y="-220" type="curve"/>
      <point x="37" y="-270" type="line"/>
      <point x="112" y="-270"/>
      <point x="157" y="-228"/>
      <point x="172" y="-145" type="curve" smooth="yes"/>
      <point x="177" y="-116"/>
      <point x="179" y="-83"/>
    </contour>
    <component base="t"/>
  </outline>
</glyph>
<glyph name="caroncomb" format="2">
  <advance width="306"/>
  <unicode hex="02C7"/>
  <anchor x="198" y="551" name="_top"/>
  <outline>
    <contour>
      <point x="380" y="768" type="line"/>
      <point x="222" y="682" type="line"/>
      <point x="94" y="768" type="line"/>
      <point x="78" y="679" type="line"/>
      <point x="206" y="596" type="line"/>
      <point x="364" y="679" type="line"/>
    </contour>
  </outline>
</glyph>
<glyph name="breve" format="2">
  <advance width="321"/>
  <unicode hex="02D8"/>
  <anchor x="205" y="551" name="_top"/>
  <outline>
    <contour>
      <point x="376" y="664"/>
      <point x="391" y="747" type="curve" smooth="yes"/>
      <point x="395" y="769" type="line"/>
      <point x="329" y="769" type="line"/>
      <point x="321" y="724"/>
      <point x="296" y="697"/>
      <point x="231" y="697" type="curve" smooth="yes"/>
      <point x="166" y="697"/>
      <point x="151" y="724"/>
      <point x="159" y="769" type="curve"/>
      <point x="94" y="769" type="line"/>
      <point x="90" y="748" type="line" smooth="yes"/>
      <point x="76" y="665"/>
      <point x="122" y="608"/>
      <point x="216" y="608" type="curve" smooth="yes"/>
      <point x="311" y="608"/>
    </contour>
  </outline>
</glyph>
<glyph name="ogonek" format="2">
  <advance width="234"/>
  <unicode hex="02DB"/>
  <anchor x="157" y="0" name="_ogonek"/>
  <outline>
    <contour>
      <point x="138" y="58" type="line"/>
      <point x="92" y="39" type="line" smooth="yes"/>
      <point x="-9" y="-4"/>
      <point x="-51" y="-52"/>
      <point x="-60" y="-103" type="curve" smooth="yes"/>
      <point x="-74" y="-183"/>
      <point x="-9" y="-211"/>
      <point x="54" y="-211" type="curve" smooth="yes"/>
      <point x="83" y="-211"/>
      <point x="113" y="-205"/>
      <point x="138" y="-196" type="curve"/>
      <point x="151" y="-123" type="line"/>
      <point x="126" y="-132"/>
      <point x="101" y="-137"/>
      <point x="82" y="-137" type="curve" smooth="yes"/>
      <point x="48" y="-137"/>
      <point x="30" y="-119"/>
      <point x="35" y="-91" type="curve" smooth="yes"/>
      <point x="40" y="-67"/>
      <point x="57" y="-47"/>
      <point x="104" y="-25" type="curve" smooth="yes"/>
      <point x="157" y="0" type="line"/>
    </contour>
  </outline>
</glyph>
<glyph name="hungarumlaut" format="2">
  <advance width="365"/>
  <unicode hex="02DD"/>
  <anchor x="183" y="551" name="_top"/>
  <outline>
    <contour>
      <point x="439" y="771" type="line"/>
      <point x="341" y="771" type="line"/>
      <point x="227" y="601" type="line"/>
      <point x="301" y="601" type="line"/>
    </contour>
    <contour>
      <point x="262" y="771" type="line"/>
      <point x="163" y="771" type="line"/>
      <point x="64" y="601" type="line"/>
      <point x="138" y="601" type="line"/>
    </contour>
  </outline>
</glyph>
<glyph name="acutecomb" format="2">
  <advance width="241"/>
  <unicode hex="0301"/>
  <anchor x="173" y="551" name="_top"/>
  <outline>
    <contour>
      <point x="320" y="796" type="line"/>
      <point x="77" y="674" type="line"/>
      <point x="62" y="590" type="line"/>
      <point x="303" y="699" type="line"/>
    </contour>
  </outline>
</glyph>
<glyph name="circumflexcomb" format="2">
  <advance width="306"/>
  <unicode hex="0302"/>
  <anchor x="198" y="551" name="_top"/>
  <outline>
    <contour>
      <point x="349" y="596" type="line"/>
      <point x="365" y="685" type="line"/>
      <point x="237" y="768" type="line"/>
      <point x="79" y="685" type="line"/>
      <point x="63" y="596" type="line"/>
      <point x="222" y="682" type="line"/>
    </contour>
  </outline>
</glyph>
<glyph name="tildecomb" format="2">
  <advance width="356"/>
  <unicode hex="0303"/>
  <anchor x="218" y="551" name="_top"/>
  <outline>
    <contour>
      <point x="90" y="687"/>
      <point x="66" y="608" type="curve"/>
      <point x="130" y="608" type="line"/>
      <point x="139" y="637"/>
      <point x="158" y="651"/>
      <point x="180" y="651" type="curve" smooth="yes"/>
      <point x="220" y="651"/>
      <point x="234" y="606"/>
      <point x="288" y="606" type="curve" smooth="yes"/>
      <point x="346" y="606"/>
      <point x="397" y="644"/>
      <point x="422" y="723" type="curve"/>
      <point x="358" y="723" type="line"/>
      <point x="349" y="694"/>
      <point x="329" y="681"/>
      <point x="307" y="681" type="curve" smooth="yes"/>
      <point x="267" y="681"/>
      <point x="253" y="725"/>
      <point x="199" y="725" type="curve" smooth="yes"/>
      <point x="141" y="725"/>
    </contour>
  </outline>
</glyph>
<glyph name="dotaccentcomb" format="2">
  <advance width="140"/>
  <unicode hex="0307"/>
  <anchor x="115" y="551" name="_top"/>
  <outline>
    <contour>
      <point x="94" y="620"/>
      <point x="128" y="620" type="curve" smooth="yes"/>
      <point x="161" y="620"/>
      <point x="192" y="646"/>
      <point x="198" y="680" type="curve" smooth="yes"/>
      <point x="204" y="713"/>
      <point x="182" y="740"/>
      <point x="149" y="740" type="curve" smooth="yes"/>
      <point x="115" y="740"/>
      <point x="84" y="713"/>
      <point x="78" y="680" type="curve" smooth="yes"/>
      <point x="72" y="646"/>
    </contour>
  </outline>
</glyph>
<glyph name="dieresiscomb" format="2">
  <advance width="312"/>
  <unicode hex="0308"/>
  <anchor x="201" y="551" name="_top"/>
  <outline>
    <contour>
      <point x="98" y="620"/>
      <point x="128" y="620" type="curve" smooth="yes"/>
      <point x="164" y="620"/>
      <point x="199" y="652"/>
      <point x="199" y="691" type="curve" smooth="yes"/>
      <point x="199" y="719"/>
      <point x="178" y="740"/>
      <point x="149" y="740" type="curve" smooth="yes"/>
      <point x="111" y="740"/>
      <point x="77" y="707"/>
      <point x="77" y="669" type="curve" smooth="yes"/>
      <point x="77" y="641"/>
    </contour>
    <contour>
      <point x="270" y="620"/>
      <point x="300" y="620" type="curve" smooth="yes"/>
      <point x="336" y="620"/>
      <point x="371" y="652"/>
      <point x="371" y="691" type="curve" smooth="yes"/>
      <point x="371" y="719"/>
      <point x="350" y="740"/>
      <point x="321" y="740" type="curve" smooth="yes"/>
      <point x="283" y="740"/>
      <point x="249" y="707"/>
      <point x="249" y="669" type="curve" smooth="yes"/>
      <point x="249" y="641"/>
    </contour>
  </outline>
</glyph>
<glyph name="ringcomb" format="2">
  <advance width="238"/>
  <unicode hex="030A"/>
  <anchor x="164" y="551" name="_top"/>
  <outline>
    <contour>
      <point x="96" y="782"/>
      <point x="84" y="714" type="curve" smooth="yes"/>
      <point x="72" y="647"/>
      <point x="114" y="605"/>
      <point x="174" y="605" type="curve" smooth="yes"/>
      <point x="235" y="605"/>
      <point x="290" y="647"/>
      <point x="302" y="714" type="curve" smooth="yes"/>
      <point x="314" y="782"/>
      <point x="274" y="824"/>
      <point x="213" y="824" type="curve" smooth="yes"/>
      <point x="153" y="824"/>
    </contour>
    <contour>
      <point x="251" y="746"/>
      <point x="245" y="715" type="curve" smooth="yes"/>
      <point x="240" y="685"/>
      <point x="213" y="664"/>
      <point x="184" y="664" type="curve" smooth="yes"/>
      <point x="156" y="664"/>
      <point x="137" y="685"/>
      <point x="142" y="715" type="curve" smooth="yes"/>
      <point x="148" y="746"/>
      <point x="174" y="766"/>
      <point x="202" y="766" type="curve" smooth="yes"/>
      <point x="231" y="766"/>
    </contour>
  </outline>
</glyph>
<glyph name="cedillacomb" format="2">
  <advance width="279"/>
  <unicode hex="0327"/>
  <anchor x="46" y="0" name="_bottom"/>
  <outline>
    <contour>
      <point x="79" y="-48" type="curve"/>
      <point x="89" y="7" type="line"/>
      <point x="14" y="7" type="line"/>
      <point x="-8" y="-116" type="line"/>
      <point x="47" y="-116" type="line" smooth="yes"/>
      <point x="82" y="-116"/>
      <point x="102" y="-123"/>
      <point x="96" y="-153" type="curve" smooth="yes"/>
      <point x="91" y="-183"/>
      <point x="69" y="-190"/>
      <point x="34" y="-190" type="curve" smooth="yes"/>
      <point x="-75" y="-190" type="line"/>
      <point x="-88" y="-262" type="line"/>
      <point x="44" y="-262" type="line" smooth="yes"/>
      <point x="115" y="-262"/>
      <point x="178" y="-221"/>
      <point x="190" y="-153" type="curve" smooth="yes"/>
      <point x="203" y="-84"/>
      <point x="153" y="-48"/>
    </contour>
  </outline>
</glyph>
<glyph name="pi" format="2">
  <advance width="706"/>
  <unicode hex="03C0"/>
  <outline>
    <contour>
      <point x="76" y="551" type="line"/>
      <point x="61" y="462" type="line"/>
      <point x="137" y="462" type="line"/>
      <point x="55" y="0" type="line"/>
      <point x="169" y="0" type="line"/>
      <point x="251" y="462" type="line"/>
      <point x="510" y="462" type="line"/>
      <point x="428" y="0" type="line"/>
      <point x="541" y="0" type="line"/>
      <point x="623" y="462" type="line"/>
      <point x="700" y="462" type="line"/>
      <point x="715" y="551" type="line"/>
    </contour>
  </outline>
</glyph>
<glyph name="dvCandrabindu" format="2">
  <unicode hex="0901"/>
  <anchor x="-29" y="740" name="_abvm.e"/>
  <outline>
    <contour>
      <point x="-67" y="816" type="curve" smooth="yes"/>
      <point x="75" y="816"/>
      <point x="155" y="897"/>
      <point x="174" y="1002" type="curve"/>
      <point x="89" y="1002" type="line"/>
      <point x="79" y="947"/>
      <point x="27" y="892"/>
      <point x="-60" y="892" type="curve" smooth="yes"/>
      <point x="-147" y="892"/>
      <point x="-179" y="947"/>
      <point x="-170" y="1002" type="curve"/>
      <point x="-254" y="1002" type="line"/>
      <point x="-273" y="897"/>
      <point x="-201" y="816"/>
    </contour>
    <contour>
      <point x="-44" y="983" type="curve" smooth="yes"/>
      <point x="-16" y="983"/>
      <point x="7" y="1004"/>
      <point x="12" y="1030" type="curve" smooth="yes"/>
      <point x="17" y="1056"/>
      <point x="1" y="1077"/>
      <point x="-27" y="1077" type="curve" smooth="yes"/>
      <point x="-53" y="1077"/>
      <point x="-78" y="1056"/>
      <point x="-82" y="1030" type="curve" smooth="yes"/>
      <point x="-87" y="1004"/>
      <point x="-70" y="983"/>
    </contour>
  </outline>
</glyph>
<glyph name="dvAnusvara" format="2">
  <unicode hex="0902"/>
  <anchor x="-34" y="740" name="_abvm.e"/>
  <outline>
    <contour>
      <point x="-71" y="829" type="curve" smooth="yes"/>
      <point x="-34" y="829"/>
      <point x="1" y="858"/>
      <point x="7" y="895" type="curve" smooth="yes"/>
      <point x="13" y="932"/>
      <point x="-10" y="961"/>
      <point x="-49" y="961" type="curve" smooth="yes"/>
      <point x="-86" y="961"/>
      <point x="-120" y="932"/>
      <point x="-126" y="895" type="curve" smooth="yes"/>
      <point x="-132" y="858"/>
      <point x="-108" y="829"/>
    </contour>
  </outline>
</glyph>
<glyph name="dvVisarga" format="2">
  <advance width="245"/>
  <unicode hex="0903"/>
  <outline>
    <contour>
      <point x="138" y="419" type="curve" smooth="yes"/>
      <point x="175" y="419"/>
      <point x="209" y="448"/>
      <point x="216" y="485" type="curve" smooth="yes"/>
      <point x="222" y="522"/>
      <point x="198" y="551"/>
      <point x="161" y="551" type="curve" smooth="yes"/>
      <point x="124" y="551"/>
      <point x="89" y="522"/>
      <point x="83" y="485" type="curve" smooth="yes"/>
      <point x="76" y="448"/>
      <point x="101" y="419"/>
    </contour>
    <contour>
      <point x="85" y="119" type="curve" smooth="yes"/>
      <point x="122" y="119"/>
      <point x="157" y="148"/>
      <point x="163" y="185" type="curve" smooth="yes"/>
      <point x="170" y="222"/>
      <point x="145" y="251"/>
      <point x="108" y="251" type="curve" smooth="yes"/>
      <point x="71" y="251"/>
      <point x="37" y="222"/>
      <point x="30" y="185" type="curve" smooth="yes"/>
      <point x="24" y="148"/>
      <point x="48" y="119"/>
    </contour>
  </outline>
</glyph>
<glyph name="dvA" format="2">
  <advance width="829"/>
  <unicode hex="0905"/>
  <outline>
    <contour>
      <point x="616" y="308" type="line"/>
      <point x="562" y="0" type="line"/>
      <point x="666" y="0" type="line"/>
      <point x="782" y="652" type="line"/>
      <point x="904" y="652" type="line"/>
      <point x="918" y="740" type="line"/>
      <point x="692" y="740" type="line"/>
      <point x="632" y="395" type="line"/>
      <point x="388" y="395" type="line"/>
      <point x="380" y="309" type="line"/>
    </contour>
    <contour>
      <point x="292" y="456" type="curve" smooth="yes"/>
      <point x="251" y="456" type="line"/>
      <point x="236" y="371" type="line"/>
      <point x="277" y="371" type="line" smooth="yes"/>
      <point x="368" y="371"/>
      <point x="393" y="313"/>
      <point x="383" y="258" type="curve" smooth="yes"/>
      <point x="372" y="191"/>
      <point x="320" y="145"/>
      <point x="248" y="145" type="curve" smooth="yes"/>
      <point x="177" y="145"/>
      <point x="136" y="194"/>
      <point x="148" y="260" type="curve"/>
      <point x="49" y="260" type="line"/>
      <point x="27" y="138"/>
      <point x="106" y="55"/>
      <point x="239" y="55" type="curve" smooth="yes"/>
      <point x="362" y="55"/>
      <point x="457" y="131"/>
      <point x="478" y="248" type="curve" smooth="yes"/>
      <point x="490" y="322"/>
      <point x="462" y="398"/>
      <point x="378" y="415" type="curve"/>
      <point x="379" y="417" type="line"/>
      <point x="459" y="438"/>
      <point x="510" y="496"/>
      <point x="523" y="570" type="curve" smooth="yes"/>
      <point x="542" y="679"/>
      <point x="472" y="749"/>
      <point x="353" y="749" type="curve" smooth="yes"/>
      <point x="230" y="749"/>
      <point x="130" y="675"/>
      <point x="110" y="559" type="curve"/>
      <point x="207" y="559" type="line"/>
      <point x="217" y="621"/>
      <point x="274" y="660"/>
      <point x="337" y="660" type="curve" smooth="yes"/>
      <point x="397" y="660"/>
      <point x="438" y="621"/>
      <point x="427" y="556" type="curve" smooth="yes"/>
      <point x="417" y="505"/>
      <point x="370" y="456"/>
    </contour>
  </outline>
</glyph>
<glyph name="dvI" format="2">
  <advance width="583"/>
  <unicode hex="0907"/>
  <anchor x="414" y="740" name="abvm.e"/>
  <outline>
    <contour>
      <point x="19" y="-79" type="line"/>
      <point x="118" y="-79" type="line"/>
      <point x="143" y="66" type="line"/>
      <point x="153" y="39"/>
      <point x="192" y="-14"/>
      <point x="287" y="-15" type="curve" smooth="yes"/>
      <point x="405" y="-16"/>
      <point x="477" y="54"/>
      <point x="494" y="147" type="curve" smooth="yes"/>
      <point x="518" y="280"/>
      <point x="420" y="326"/>
      <point x="319" y="326" type="curve" smooth="yes"/>
      <point x="303" y="326"/>
      <point x="287" y="326"/>
      <point x="275" y="326" type="curve" smooth="yes"/>
      <point x="223" y="326"/>
      <point x="183" y="345"/>
      <point x="193" y="397" type="curve" smooth="yes"/>
      <point x="203" y="457"/>
      <point x="262" y="470"/>
      <point x="311" y="470" type="curve" smooth="yes"/>
      <point x="490" y="470" type="line"/>
      <point x="504" y="546" type="line"/>
      <point x="297" y="546" type="line" smooth="yes"/>
      <point x="203" y="546"/>
      <point x="107" y="510"/>
      <point x="89" y="401" type="curve" smooth="yes"/>
      <point x="71" y="299"/>
      <point x="147" y="254"/>
      <point x="231" y="251" type="curve" smooth="yes"/>
      <point x="250" y="251"/>
      <point x="268" y="251"/>
      <point x="286" y="251" type="curve" smooth="yes"/>
      <point x="351" y="251"/>
      <point x="408" y="229"/>
      <point x="395" y="155" type="curve" smooth="yes"/>
      <point x="386" y="106"/>
      <point x="344" y="64"/>
      <point x="272" y="64" type="curve" smooth="yes"/>
      <point x="191" y="64"/>
      <point x="153" y="111"/>
      <point x="158" y="177" type="curve"/>
      <point x="64" y="177" type="line"/>
    </contour>
    <contour>
      <point x="25" y="652" type="line"/>
      <point x="669" y="652" type="line"/>
      <point x="684" y="740" type="line"/>
      <point x="40" y="740" type="line"/>
    </contour>
    <contour>
      <point x="398" y="520" type="line"/>
      <point x="499" y="520" type="line"/>
      <point x="536" y="726" type="line"/>
      <point x="434" y="726" type="line"/>
    </contour>
  </outline>
</glyph>
<glyph name="dvII" format="2">
  <advance width="579"/>
  <unicode hex="0908"/>
  <anchor x="403" y="740" name="abvm.e"/>
  <outline>
    <contour>
      <point x="19" y="-79" type="line"/>
      <point x="118" y="-79" type="line"/>
      <point x="143" y="66" type="line"/>
      <point x="153" y="39"/>
      <point x="192" y="-14"/>
      <point x="287" y="-15" type="curve" smooth="yes"/>
      <point x="405" y="-16"/>
      <point x="477" y="54"/>
      <point x="494" y="147" type="curve" smooth="yes"/>
      <point x="518" y="280"/>
      <point x="420" y="326"/>
      <point x="319" y="326" type="curve" smooth="yes"/>
      <point x="303" y="326"/>
      <point x="287" y="326"/>
      <point x="275" y="326" type="curve" smooth="yes"/>
      <point x="223" y="326"/>
      <point x="183" y="345"/>
      <point x="193" y="397" type="curve" smooth="yes"/>
      <point x="203" y="457"/>
      <point x="262" y="470"/>
      <point x="311" y="470" type="curve" smooth="yes"/>
      <point x="490" y="470" type="line"/>
      <point x="504" y="546" type="line"/>
      <point x="297" y="546" type="line" smooth="yes"/>
      <point x="203" y="546"/>
      <point x="107" y="510"/>
      <point x="89" y="401" type="curve" smooth="yes"/>
      <point x="71" y="299"/>
      <point x="147" y="254"/>
      <point x="231" y="251" type="curve" smooth="yes"/>
      <point x="250" y="251"/>
      <point x="268" y="251"/>
      <point x="286" y="251" type="curve" smooth="yes"/>
      <point x="351" y="251"/>
      <point x="407" y="229"/>
      <point x="395" y="155" type="curve" smooth="yes"/>
      <point x="387" y="106"/>
      <point x="344" y="64"/>
      <point x="272" y="64" type="curve" smooth="yes"/>
      <point x="191" y="64"/>
      <point x="153" y="111"/>
      <point x="158" y="177" type="curve"/>
      <point x="64" y="177" type="line"/>
    </contour>
    <contour>
      <point x="26" y="652" type="line"/>
      <point x="670" y="652" type="line"/>
      <point x="685" y="740" type="line"/>
      <point x="41" y="740" type="line"/>
    </contour>
    <contour>
      <point x="398" y="520" type="line"/>
      <point x="500" y="520" type="line"/>
      <point x="537" y="726" type="line"/>
      <point x="435" y="726" type="line"/>
    </contour>
    <contour>
      <point x="436" y="722" type="line"/>
      <point x="533" y="722" type="line"/>
      <point x="548" y="812" type="line" smooth="yes"/>
      <point x="561" y="885"/>
      <point x="594" y="923"/>
      <point x="649" y="923" type="curve" smooth="yes"/>
      <point x="697" y="923"/>
      <point x="720" y="887"/>
      <point x="709" y="832" type="curve"/>
      <point x="801" y="832" type="line"/>
      <point x="824" y="939"/>
      <point x="774" y="1011"/>
      <point x="663" y="1011" type="curve" smooth="yes"/>
      <point x="533" y="1011"/>
      <point x="471" y="920"/>
      <point x="452" y="811" type="curve" smooth="yes"/>
    </contour>
  </outline>
</glyph>
<glyph name="dvU" format="2">
  <advance width="572"/>
  <unicode hex="0909"/>
  <anchor x="411" y="740" name="abvm.e"/>
  <outline>
    <contour>
      <point x="226" y="3" type="curve" smooth="yes"/>
      <point x="366" y="3"/>
      <point x="464" y="93"/>
      <point x="487" y="219" type="curve" smooth="yes"/>
      <point x="502" y="312"/>
      <point x="464" y="389"/>
      <point x="385" y="408" type="curve"/>
      <point x="386" y="410" type="line"/>
      <point x="448" y="422"/>
      <point x="503" y="478"/>
      <point x="518" y="561" type="curve" smooth="yes"/>
      <point x="546" y="719" type="line"/>
      <point x="444" y="719" type="line"/>
      <point x="418" y="567" type="line" smooth="yes"/>
      <point x="406" y="498"/>
      <point x="356" y="452"/>
      <point x="279" y="452" type="curve" smooth="yes"/>
      <point x="243" y="452" type="line"/>
      <point x="227" y="360" type="line"/>
      <point x="277" y="360" type="line" smooth="yes"/>
      <point x="375" y="360"/>
      <point x="400" y="290"/>
      <point x="389" y="227" type="curve" smooth="yes"/>
      <point x="375" y="151"/>
      <point x="316" y="97"/>
      <point x="238" y="97" type="curve" smooth="yes"/>
      <point x="159" y="97"/>
      <point x="109" y="154"/>
      <point x="123" y="230" type="curve"/>
      <point x="23" y="230" type="line"/>
      <point x="-1" y="94"/>
      <point x="84" y="3"/>
    </contour>
    <contour>
      <point x="26" y="652" type="line"/>
      <point x="645" y="652" type="line"/>
      <point x="661" y="740" type="line"/>
      <point x="41" y="740" type="line"/>
    </contour>
  </outline>
</glyph>
<glyph name="dvUU" format="2">
  <advance width="860"/>
  <unicode hex="090A"/>
  <anchor x="549" y="740" name="abvm.e"/>
  <outline>
    <contour>
      <point x="226" y="3" type="curve" smooth="yes"/>
      <point x="365" y="3"/>
      <point x="463" y="93"/>
      <point x="484" y="214" type="curve" smooth="yes"/>
      <point x="500" y="307"/>
      <point x="462" y="384"/>
      <point x="384" y="403" type="curve"/>
      <point x="386" y="410" type="line"/>
      <point x="448" y="422"/>
      <point x="503" y="478"/>
      <point x="518" y="561" type="curve" smooth="yes"/>
      <point x="545" y="716" type="line"/>
      <point x="444" y="716" type="line"/>
      <point x="418" y="567" type="line" smooth="yes"/>
      <point x="406" y="498"/>
      <point x="356" y="452"/>
      <point x="279" y="452" type="curve" smooth="yes"/>
      <point x="243" y="452" type="line"/>
      <point x="227" y="360" type="line"/>
      <point x="277" y="360" type="line" smooth="yes"/>
      <point x="375" y="360"/>
      <point x="400" y="290"/>
      <point x="389" y="227" type="curve" smooth="yes"/>
      <point x="375" y="151"/>
      <point x="316" y="97"/>
      <point x="238" y="97" type="curve" smooth="yes"/>
      <point x="159" y="97"/>
      <point x="109" y="154"/>
      <point x="123" y="230" type="curve"/>
      <point x="23" y="230" type="line"/>
      <point x="-1" y="94"/>
      <point x="84" y="3"/>
    </contour>
    <contour>
      <point x="556" y="25" type="curve" smooth="yes"/>
      <point x="669" y="25"/>
      <point x="760" y="88"/>
      <point x="782" y="211" type="curve" smooth="yes"/>
      <point x="806" y="351"/>
      <point x="715" y="408"/>
      <point x="584" y="408" type="curve" smooth="yes"/>
      <point x="380" y="408" type="line"/>
      <point x="390" y="324" type="line"/>
      <point x="571" y="324" type="line" smooth="yes"/>
      <point x="642" y="324"/>
      <point x="696" y="294"/>
      <point x="682" y="215" type="curve" smooth="yes"/>
      <point x="668" y="137"/>
      <point x="613" y="108"/>
      <point x="553" y="108" type="curve" smooth="yes"/>
      <point x="543" y="108"/>
      <point x="532" y="108"/>
      <point x="521" y="109" type="curve"/>
      <point x="506" y="29" type="line"/>
      <point x="523" y="27"/>
      <point x="540" y="25"/>
    </contour>
    <contour>
      <point x="26" y="652" type="line"/>
      <point x="934" y="652" type="line"/>
      <point x="949" y="740" type="line"/>
      <point x="41" y="740" type="line"/>
    </contour>
  </outline>
</glyph>
<glyph name="dvvR" format="2">
  <advance width="1030"/>
  <unicode hex="090B"/>
  <anchor x="656" y="740" name="abvm.e"/>
  <outline>
    <contour>
      <point x="427" y="0" type="line"/>
      <point x="524" y="0" type="line"/>
      <point x="639" y="652" type="line"/>
      <point x="1104" y="652" type="line"/>
      <point x="1119" y="740" type="line"/>
      <point x="41" y="740" type="line"/>
      <point x="26" y="652" type="line"/>
      <point x="542" y="652" type="line"/>
    </contour>
    <contour>
      <point x="47" y="0" type="line"/>
      <point x="179" y="0" type="line"/>
      <point x="538" y="301" type="line"/>
      <point x="511" y="368" type="line"/>
      <point x="48" y="6" type="line"/>
    </contour>
    <contour>
      <point x="524" y="281" type="line"/>
      <point x="552" y="432"/>
      <point x="505" y="556"/>
      <point x="345" y="556" type="curve" smooth="yes"/>
      <point x="198" y="556"/>
      <point x="84" y="450"/>
      <point x="56" y="293" type="curve"/>
      <point x="161" y="293" type="line"/>
      <point x="179" y="399"/>
      <point x="258" y="467"/>
      <point x="359" y="467" type="curve" smooth="yes"/>
      <point x="453" y="467"/>
      <point x="501" y="398"/>
      <point x="486" y="312" type="curve"/>
    </contour>
    <contour>
      <point x="820" y="-62" type="curve" smooth="yes"/>
      <point x="843" y="-62"/>
      <point x="873" y="-58"/>
      <point x="891" y="-54" type="curve"/>
      <point x="906" y="30" type="line"/>
      <point x="890" y="26"/>
      <point x="868" y="22"/>
      <point x="848" y="22" type="curve" smooth="yes"/>
      <point x="788" y="22"/>
      <point x="742" y="47"/>
      <point x="754" y="115" type="curve" smooth="yes"/>
      <point x="763" y="168"/>
      <point x="807" y="210"/>
      <point x="878" y="210" type="curve" smooth="yes"/>
      <point x="894" y="210" type="line"/>
      <point x="906" y="276" type="line"/>
      <point x="879" y="276" type="line" smooth="yes"/>
      <point x="761" y="276"/>
      <point x="671" y="211"/>
      <point x="652" y="106" type="curve" smooth="yes"/>
      <point x="632" y="-6"/>
      <point x="709" y="-62"/>
    </contour>
    <contour>
      <point x="564" y="358" type="line"/>
      <point x="741" y="358" type="line" smooth="yes"/>
      <point x="836" y="358"/>
      <point x="920" y="408"/>
      <point x="939" y="513" type="curve" smooth="yes"/>
      <point x="945" y="546" type="line"/>
      <point x="867" y="546" type="line"/>
      <point x="861" y="511" type="line" smooth="yes"/>
      <point x="854" y="468"/>
      <point x="826" y="442"/>
      <point x="771" y="442" type="curve" smooth="yes"/>
      <point x="578" y="442" type="line"/>
    </contour>
    <contour>
      <point x="808" y="210" type="line"/>
      <point x="899" y="210" type="line"/>
      <point x="961" y="563" type="line"/>
      <point x="870" y="563" type="line"/>
    </contour>
  </outline>
</glyph>
<glyph name="dvvL" format="2">
  <advance width="901"/>
  <unicode hex="090C"/>
  <anchor x="743" y="740" name="abvm.e"/>
  <outline>
    <contour>
      <point x="713" y="-64" type="curve" smooth="yes"/>
      <point x="737" y="-64"/>
      <point x="764" y="-61"/>
      <point x="785" y="-56" type="curve"/>
      <point x="800" y="28" type="line"/>
      <point x="783" y="23"/>
      <point x="761" y="20"/>
      <point x="741" y="20" type="curve" smooth="yes"/>
      <point x="680" y="20"/>
      <point x="633" y="46"/>
      <point x="645" y="112" type="curve" smooth="yes"/>
      <point x="654" y="166"/>
      <point x="698" y="208"/>
      <point x="781" y="208" type="curve" smooth="yes"/>
      <point x="784" y="208"/>
      <point x="786" y="208"/>
      <point x="788" y="208" type="curve"/>
      <point x="805" y="238"/>
      <point x="816" y="272"/>
      <point x="822" y="308" type="curve" smooth="yes"/>
      <point x="847" y="455"/>
      <point x="775" y="541"/>
      <point x="658" y="541" type="curve" smooth="yes"/>
      <point x="551" y="541"/>
      <point x="486" y="473"/>
      <point x="454" y="404" type="curve"/>
      <point x="451" y="404" type="line"/>
      <point x="444" y="472"/>
      <point x="404" y="541"/>
      <point x="303" y="541" type="curve" smooth="yes"/>
      <point x="181" y="541"/>
      <point x="76" y="458"/>
      <point x="50" y="308" type="curve" smooth="yes"/>
      <point x="25" y="163"/>
      <point x="90" y="61"/>
      <point x="250" y="61" type="curve" smooth="yes"/>
      <point x="260" y="61"/>
      <point x="271" y="61"/>
      <point x="285" y="62" type="curve"/>
      <point x="302" y="154" type="line"/>
      <point x="290" y="153"/>
      <point x="280" y="152"/>
      <point x="272" y="152" type="curve" smooth="yes"/>
      <point x="180" y="152"/>
      <point x="139" y="211"/>
      <point x="156" y="307" type="curve" smooth="yes"/>
      <point x="171" y="388"/>
      <point x="222" y="448"/>
      <point x="303" y="448" type="curve" smooth="yes"/>
      <point x="383" y="448"/>
      <point x="403" y="378"/>
      <point x="390" y="284" type="curve" smooth="yes"/>
      <point x="387" y="263" type="line"/>
      <point x="474" y="263" type="line"/>
      <point x="478" y="284" type="line" smooth="yes"/>
      <point x="492" y="379"/>
      <point x="545" y="448"/>
      <point x="628" y="448" type="curve" smooth="yes"/>
      <point x="704" y="448"/>
      <point x="732" y="387"/>
      <point x="718" y="309" type="curve" smooth="yes"/>
      <point x="713" y="283"/>
      <point x="707" y="260"/>
      <point x="694" y="238" type="curve"/>
      <point x="734" y="268" type="line"/>
      <point x="641" y="264"/>
      <point x="560" y="197"/>
      <point x="544" y="107" type="curve" smooth="yes"/>
      <point x="524" y="-8"/>
      <point x="601" y="-64"/>
    </contour>
    <contour>
      <point x="603" y="495" type="line"/>
      <point x="708" y="512" type="line"/>
      <point x="736" y="670" type="line"/>
      <point x="634" y="670" type="line"/>
    </contour>
    <contour>
      <point x="22" y="652" type="line"/>
      <point x="971" y="652" type="line"/>
      <point x="987" y="740" type="line"/>
      <point x="38" y="740" type="line"/>
    </contour>
  </outline>
</glyph>
<glyph name="dvEcandra" format="2">
  <advance width="651"/>
  <unicode hex="090D"/>
  <anchor x="455" y="933" name="abvm.e"/>
  <outline>
    <contour>
      <point x="384" y="832" type="curve" smooth="yes"/>
      <point x="532" y="832"/>
      <point x="613" y="918"/>
      <point x="630" y="1019" type="curve"/>
      <point x="540" y="1019" type="line"/>
      <point x="530" y="965"/>
      <point x="484" y="911"/>
      <point x="398" y="911" type="curve" smooth="yes"/>
      <point x="310" y="911"/>
      <point x="283" y="965"/>
      <point x="293" y="1019" type="curve"/>
      <point x="203" y="1019" type="line"/>
      <point x="185" y="918"/>
      <point x="235" y="832"/>
    </contour>
    <component base="dvE" xOffset="-25"/>
  </outline>
</glyph>
<glyph name="dvE" format="2">
  <advance width="650"/>
  <unicode hex="090F"/>
  <anchor x="460" y="740" name="abvm.e"/>
  <outline>
    <contour>
      <point x="289" y="19" type="curve" smooth="yes"/>
      <point x="433" y="19"/>
      <point x="527" y="103"/>
      <point x="551" y="247" type="curve"/>
      <point x="449" y="247" type="line"/>
      <point x="434" y="160"/>
      <point x="380" y="109"/>
      <point x="298" y="109" type="curve" smooth="yes"/>
      <point x="207" y="109"/>
      <point x="163" y="168"/>
      <point x="182" y="269" type="curve" smooth="yes"/>
      <point x="258" y="701" type="line"/>
      <point x="153" y="701" type="line"/>
      <point x="78" y="272" type="line" smooth="yes"/>
      <point x="51" y="122"/>
      <point x="123" y="19"/>
    </contour>
    <contour>
      <point x="350" y="343" type="line"/>
      <point x="504" y="325"/>
      <point x="575" y="398"/>
      <point x="601" y="547" type="curve" smooth="yes"/>
      <point x="628" y="701" type="line"/>
      <point x="526" y="701" type="line"/>
      <point x="500" y="550" type="line" smooth="yes"/>
      <point x="484" y="464"/>
      <point x="445" y="429"/>
      <point x="366" y="437" type="curve"/>
    </contour>
    <contour>
      <point x="25" y="652" type="line"/>
      <point x="724" y="652" type="line"/>
      <point x="740" y="740" type="line"/>
      <point x="40" y="740" type="line"/>
    </contour>
  </outline>
</glyph>
<glyph name="dvAI" format="2">
  <advance width="651"/>
  <unicode hex="0910"/>
  <anchor x="752" y="740" name="abvm.e"/>
  <outline>
    <contour>
      <point x="532" y="736" type="curve"/>
      <point x="631" y="736" type="line"/>
      <point x="539" y="966"/>
      <point x="490" y="986"/>
      <point x="352" y="987" type="curve" smooth="yes"/>
      <point x="309" y="987" type="line"/>
      <point x="294" y="901" type="line"/>
      <point x="338" y="901" type="line" smooth="yes"/>
      <point x="434" y="901"/>
      <point x="462" y="887"/>
    </contour>
    <component base="dvE"/>
  </outline>
</glyph>
<glyph name="dvKA" format="2">
  <advance width="985"/>
  <unicode hex="0915"/>
  <anchor x="615" y="740" name="abvm.e"/>
  <anchor x="485" y="0" name="blwm.u"/>
  <anchor x="485" y="0" name="blwm.virama"/>
  <outline>
    <contour>
      <point x="384" y="0" type="line"/>
      <point x="485" y="0" type="line"/>
      <point x="599" y="652" type="line"/>
      <point x="1059" y="652" type="line"/>
      <point x="1074" y="740" type="line"/>
      <point x="41" y="740" type="line"/>
      <point x="26" y="652" type="line"/>
      <point x="499" y="652" type="line"/>
    </contour>
    <contour>
      <point x="232" y="88" type="curve" smooth="yes"/>
      <point x="365" y="88"/>
      <point x="445" y="187"/>
      <point x="459" y="291" type="curve"/>
      <point x="439" y="313" type="line"/>
      <point x="426" y="251"/>
      <point x="372" y="177"/>
      <point x="277" y="176" type="curve" smooth="yes"/>
      <point x="198" y="176"/>
      <point x="146" y="230"/>
      <point x="163" y="320" type="curve" smooth="yes"/>
      <point x="178" y="407"/>
      <point x="250" y="461"/>
      <point x="326" y="461" type="curve" smooth="yes"/>
      <point x="423" y="461"/>
      <point x="452" y="387"/>
      <point x="440" y="319" type="curve"/>
      <point x="469" y="348" type="line"/>
      <point x="492" y="449"/>
      <point x="448" y="551"/>
      <point x="310" y="551" type="curve" smooth="yes"/>
      <point x="183" y="551"/>
      <point x="81" y="462"/>
      <point x="57" y="323" type="curve" smooth="yes"/>
      <point x="31" y="181"/>
      <point x="110" y="88"/>
    </contour>
    <contour>
      <point x="664" y="94" type="curve" smooth="yes"/>
      <point x="784" y="94"/>
      <point x="885" y="173"/>
      <point x="912" y="319" type="curve" smooth="yes"/>
      <point x="936" y="453"/>
      <point x="864" y="551"/>
      <point x="742" y="551" type="curve" smooth="yes"/>
      <point x="614" y="551"/>
      <point x="539" y="453"/>
      <point x="524" y="354" type="curve"/>
      <point x="539" y="311" type="line"/>
      <point x="553" y="386"/>
      <point x="605" y="461"/>
      <point x="699" y="461" type="curve" smooth="yes"/>
      <point x="775" y="461"/>
      <point x="821" y="404"/>
      <point x="807" y="321" type="curve" smooth="yes"/>
      <point x="791" y="231"/>
      <point x="725" y="180"/>
      <point x="653" y="180" type="curve" smooth="yes"/>
      <point x="640" y="180"/>
      <point x="626" y="181"/>
      <point x="616" y="184" type="curve"/>
      <point x="602" y="101" type="line"/>
      <point x="621" y="96"/>
      <point x="642" y="94"/>
    </contour>
  </outline>
</glyph>
<glyph name="dvKHA" format="2">
  <advance width="941"/>
  <unicode hex="0916"/>
  <outline>
    <contour>
      <point x="674" y="0" type="line"/>
      <point x="779" y="0" type="line"/>
      <point x="893" y="652" type="line"/>
      <point x="1014" y="652" type="line"/>
      <point x="1030" y="740" type="line"/>
      <point x="42" y="740" type="line"/>
      <point x="26" y="652" type="line"/>
      <point x="788" y="652" type="line"/>
    </contour>
    <contour>
      <point x="271" y="-4" type="curve" smooth="yes"/>
      <point x="405" y="-4"/>
      <point x="504" y="85"/>
      <point x="550" y="183" type="curve"/>
      <point x="468" y="208" type="line"/>
      <point x="444" y="152"/>
      <point x="385" y="86"/>
      <point x="290" y="86" type="curve" smooth="yes"/>
      <point x="191" y="86"/>
      <point x="144" y="150"/>
      <point x="160" y="241" type="curve" smooth="yes"/>
      <point x="184" y="379" type="line"/>
      <point x="139" y="324" type="line"/>
      <point x="147" y="324"/>
      <point x="155" y="324"/>
      <point x="163" y="324" type="curve" smooth="yes"/>
      <point x="266" y="324"/>
      <point x="358" y="380"/>
      <point x="385" y="531" type="curve" smooth="yes"/>
      <point x="407" y="661" type="line"/>
      <point x="302" y="661" type="line"/>
      <point x="282" y="544" type="line" smooth="yes"/>
      <point x="263" y="433"/>
      <point x="196" y="400"/>
      <point x="116" y="400" type="curve" smooth="yes"/>
      <point x="106" y="400"/>
      <point x="94" y="400"/>
      <point x="84" y="400" type="curve"/>
      <point x="58" y="253" type="line" smooth="yes"/>
      <point x="29" y="90"/>
      <point x="114" y="-4"/>
    </contour>
    <contour>
      <point x="556" y="129" type="curve" smooth="yes"/>
      <point x="675" y="129"/>
      <point x="739" y="217"/>
      <point x="754" y="299" type="curve"/>
      <point x="755" y="334" type="line"/>
      <point x="732" y="334" type="line"/>
      <point x="722" y="275"/>
      <point x="674" y="210"/>
      <point x="591" y="210" type="curve" smooth="yes"/>
      <point x="524" y="210"/>
      <point x="476" y="255"/>
      <point x="490" y="336" type="curve" smooth="yes"/>
      <point x="504" y="413"/>
      <point x="565" y="458"/>
      <point x="632" y="458" type="curve" smooth="yes"/>
      <point x="718" y="458"/>
      <point x="743" y="392"/>
      <point x="732" y="334" type="curve"/>
      <point x="755" y="333" type="line"/>
      <point x="766" y="368" type="line"/>
      <point x="781" y="451"/>
      <point x="746" y="537"/>
      <point x="624" y="539" type="curve" smooth="yes"/>
      <point x="516" y="541"/>
      <point x="420" y="466"/>
      <point x="400" y="346" type="curve" smooth="yes"/>
      <point x="378" y="220"/>
      <point x="447" y="129"/>
    </contour>
  </outline>
</glyph>
<glyph name="dvGA" format="2">
  <advance width="765"/>
  <unicode hex="0917"/>
  <outline>
    <contour>
      <point x="498" y="0" type="line"/>
      <point x="602" y="0" type="line"/>
      <point x="717" y="652" type="line"/>
      <point x="839" y="652" type="line"/>
      <point x="854" y="740" type="line"/>
      <point x="41" y="740" type="line"/>
      <point x="26" y="652" type="line"/>
      <point x="612" y="652" type="line"/>
    </contour>
    <contour>
      <point x="200" y="208" type="curve"/>
      <point x="324" y="208"/>
      <point x="387" y="292"/>
      <point x="404" y="395" type="curve" smooth="yes"/>
      <point x="454" y="680" type="line"/>
      <point x="347" y="666" type="line"/>
      <point x="298" y="391" type="line" smooth="yes"/>
      <point x="291" y="346"/>
      <point x="268" y="298"/>
      <point x="208" y="298" type="curve" smooth="yes"/>
      <point x="152" y="298"/>
      <point x="142" y="343"/>
      <point x="150" y="389" type="curve" smooth="yes"/>
      <point x="156" y="420" type="line"/>
      <point x="54" y="420" type="line"/>
      <point x="52" y="410"/>
      <point x="50" y="399"/>
      <point x="48" y="389" type="curve" smooth="yes"/>
      <point x="28" y="280"/>
      <point x="87" y="208"/>
    </contour>
  </outline>
</glyph>
<glyph name="dvGHA" format="2">
  <advance width="706"/>
  <unicode hex="0918"/>
  <outline>
    <contour>
      <point x="252" y="102" type="curve" smooth="yes"/>
      <point x="381" y="102"/>
      <point x="491" y="181"/>
      <point x="527" y="304" type="curve"/>
      <point x="502" y="359" type="line"/>
      <point x="484" y="257"/>
      <point x="392" y="188"/>
      <point x="291" y="188" type="curve" smooth="yes"/>
      <point x="212" y="188"/>
      <point x="158" y="223"/>
      <point x="171" y="295" type="curve" smooth="yes"/>
      <point x="180" y="351"/>
      <point x="226" y="395"/>
      <point x="317" y="395" type="curve" smooth="yes"/>
      <point x="370" y="395" type="line"/>
      <point x="385" y="480" type="line"/>
      <point x="340" y="480" type="line" smooth="yes"/>
      <point x="252" y="480"/>
      <point x="225" y="520"/>
      <point x="236" y="589" type="curve" smooth="yes"/>
      <point x="255" y="692" type="line"/>
      <point x="150" y="692" type="line"/>
      <point x="131" y="584" type="line" smooth="yes"/>
      <point x="114" y="491"/>
      <point x="156" y="449"/>
      <point x="215" y="437" type="curve"/>
      <point x="215" y="435" type="line"/>
      <point x="147" y="422"/>
      <point x="78" y="370"/>
      <point x="62" y="285" type="curve" smooth="yes"/>
      <point x="42" y="167"/>
      <point x="130" y="102"/>
    </contour>
    <contour>
      <point x="439" y="0" type="line"/>
      <point x="545" y="0" type="line"/>
      <point x="662" y="667" type="line"/>
      <point x="556" y="667" type="line"/>
    </contour>
    <contour>
      <point x="26" y="652" type="line"/>
      <point x="780" y="652" type="line"/>
      <point x="796" y="740" type="line"/>
      <point x="41" y="740" type="line"/>
    </contour>
  </outline>
</glyph>
<glyph name="dvNGA" format="2">
  <advance width="673"/>
  <unicode hex="0919"/>
  <anchor x="534.99" y="740" name="abvm.e"/>
  <anchor x="295" y="-110" name="blwm.u"/>
  <anchor x="305" y="-16" name="blwm.virama"/>
  <outline>
    <contour>
      <point x="587" y="326" type="curve" smooth="yes"/>
      <point x="621" y="326"/>
      <point x="653" y="353"/>
      <point x="659" y="386" type="curve" smooth="yes"/>
      <point x="665" y="420"/>
      <point x="643" y="447"/>
      <point x="609" y="447" type="curve" smooth="yes"/>
      <point x="575" y="447"/>
      <point x="543" y="420"/>
      <point x="537" y="386" type="curve" smooth="yes"/>
      <point x="531" y="353"/>
      <point x="553" y="326"/>
    </contour>
    <contour>
      <point x="251" y="-16" type="curve" smooth="yes"/>
      <point x="392" y="-16"/>
      <point x="474" y="52"/>
      <point x="492" y="152" type="curve" smooth="yes"/>
      <point x="514" y="276"/>
      <point x="422" y="326"/>
      <point x="316" y="326" type="curve" smooth="yes"/>
      <point x="300" y="326"/>
      <point x="284" y="326"/>
      <point x="272" y="326" type="curve" smooth="yes"/>
      <point x="223" y="326"/>
      <point x="182" y="344"/>
      <point x="191" y="398" type="curve" smooth="yes"/>
      <point x="202" y="457"/>
      <point x="260" y="470"/>
      <point x="309" y="470" type="curve" smooth="yes"/>
      <point x="488" y="470" type="line"/>
      <point x="501" y="545" type="line"/>
      <point x="293" y="545" type="line" smooth="yes"/>
      <point x="200" y="545"/>
      <point x="105" y="506"/>
      <point x="87" y="401" type="curve" smooth="yes"/>
      <point x="67" y="286"/>
      <point x="167" y="251"/>
      <point x="246" y="251" type="curve" smooth="yes"/>
      <point x="258" y="251"/>
      <point x="272" y="251"/>
      <point x="285" y="251" type="curve" smooth="yes"/>
      <point x="350" y="251"/>
      <point x="405" y="228"/>
      <point x="392" y="156" type="curve" smooth="yes"/>
      <point x="383" y="103"/>
      <point x="333" y="64"/>
      <point x="258" y="64" type="curve" smooth="yes"/>
      <point x="169" y="64"/>
      <point x="126" y="110"/>
      <point x="136" y="177" type="curve"/>
      <point x="32" y="177" type="line"/>
      <point x="14" y="61"/>
      <point x="103" y="-16"/>
    </contour>
    <contour>
      <point x="28" y="652" type="line"/>
      <point x="747" y="652" type="line"/>
      <point x="762" y="740" type="line"/>
      <point x="43" y="740" type="line"/>
    </contour>
    <contour>
      <point x="395" y="520" type="line"/>
      <point x="496" y="520" type="line"/>
      <point x="533" y="726" type="line"/>
      <point x="431" y="726" type="line"/>
    </contour>
  </outline>
</glyph>
<glyph name="dvCA" format="2">
  <advance width="740"/>
  <unicode hex="091A"/>
  <outline>
    <contour>
      <point x="26" y="652" type="line"/>
      <point x="813" y="652" type="line"/>
      <point x="829" y="740" type="line"/>
      <point x="41" y="740" type="line"/>
    </contour>
    <contour>
      <point x="301" y="95" type="curve" smooth="yes"/>
      <point x="429" y="95"/>
      <point x="538" y="183"/>
      <point x="558" y="311" type="curve"/>
      <point x="534" y="353" type="line"/>
      <point x="516" y="257"/>
      <point x="442" y="183"/>
      <point x="347" y="182" type="curve" smooth="yes"/>
      <point x="270" y="182"/>
      <point x="213" y="227"/>
      <point x="228" y="309" type="curve" smooth="yes"/>
      <point x="242" y="385"/>
      <point x="306" y="440"/>
      <point x="390" y="440" type="curve"/>
      <point x="364" y="475" type="line"/>
      <point x="238" y="475"/>
      <point x="145" y="400"/>
      <point x="126" y="292" type="curve" smooth="yes"/>
      <point x="104" y="168"/>
      <point x="186" y="95"/>
    </contour>
    <contour>
      <point x="62" y="440" type="line"/>
      <point x="427" y="440" type="line"/>
      <point x="442" y="523" type="line"/>
      <point x="77" y="523" type="line"/>
    </contour>
    <contour>
      <point x="472" y="0" type="line"/>
      <point x="577" y="0" type="line"/>
      <point x="695" y="670" type="line"/>
      <point x="590" y="670" type="line"/>
    </contour>
  </outline>
</glyph>
<glyph name="dvJA" format="2">
  <advance width="846"/>
  <unicode hex="091C"/>
  <outline>
    <contour>
      <point x="231" y="122" type="curve" smooth="yes"/>
      <point x="359" y="121"/>
      <point x="447" y="208"/>
      <point x="468" y="330" type="curve" smooth="yes"/>
      <point x="498" y="496" type="line"/>
      <point x="395" y="496" type="line"/>
      <point x="366" y="332" type="line" smooth="yes"/>
      <point x="353" y="261"/>
      <point x="308" y="214"/>
      <point x="245" y="214" type="curve" smooth="yes"/>
      <point x="183" y="214"/>
      <point x="154" y="261"/>
      <point x="167" y="332" type="curve" smooth="yes"/>
      <point x="196" y="496" type="line"/>
      <point x="91" y="496" type="line"/>
      <point x="62" y="333" type="line" smooth="yes"/>
      <point x="40" y="209"/>
      <point x="108" y="122"/>
    </contour>
    <contour>
      <point x="429" y="406" type="line"/>
      <point x="662" y="406" type="line"/>
      <point x="678" y="496" type="line"/>
      <point x="445" y="496" type="line"/>
    </contour>
    <contour>
      <point x="578" y="0" type="line"/>
      <point x="683" y="0" type="line"/>
      <point x="802" y="675" type="line"/>
      <point x="697" y="675" type="line"/>
    </contour>
    <contour>
      <point x="26" y="652" type="line"/>
      <point x="919" y="652" type="line"/>
      <point x="935" y="740" type="line"/>
      <point x="41" y="740" type="line"/>
    </contour>
  </outline>
</glyph>
<glyph name="dvTTA" format="2">
  <advance width="646"/>
  <unicode hex="091F"/>
  <anchor x="533" y="740" name="abvm.e"/>
  <anchor x="323" y="-58" name="blwm.u"/>
  <anchor x="333" y="36" name="blwm.virama"/>
  <outline>
    <contour>
      <point x="284" y="36" type="curve" smooth="yes"/>
      <point x="448" y="36"/>
      <point x="565" y="141"/>
      <point x="592" y="297" type="curve"/>
      <point x="492" y="297" type="line"/>
      <point x="475" y="197"/>
      <point x="398" y="127"/>
      <point x="295" y="127" type="curve" smooth="yes"/>
      <point x="195" y="127"/>
      <point x="135" y="194"/>
      <point x="152" y="289" type="curve" smooth="yes"/>
      <point x="173" y="404"/>
      <point x="267" y="459"/>
      <point x="373" y="459" type="curve" smooth="yes"/>
      <point x="484" y="459" type="line"/>
      <point x="521" y="668" type="line"/>
      <point x="418" y="668" type="line"/>
      <point x="388" y="498" type="line"/>
      <point x="456" y="548" type="line"/>
      <point x="382" y="548" type="line" smooth="yes"/>
      <point x="210" y="548"/>
      <point x="77" y="462"/>
      <point x="47" y="293" type="curve" smooth="yes"/>
      <point x="21" y="140"/>
      <point x="124" y="36"/>
    </contour>
    <contour>
      <point x="23" y="652" type="line"/>
      <point x="719" y="652" type="line"/>
      <point x="735" y="740" type="line"/>
      <point x="39" y="740" type="line"/>
    </contour>
  </outline>
</glyph>
<glyph name="dvTTHA" format="2">
  <advance width="671"/>
  <unicode hex="0920"/>
  <anchor x="452" y="740" name="abvm.e"/>
  <anchor x="320" y="-52" name="blwm.u"/>
  <anchor x="330" y="42" name="blwm.virama"/>
  <outline>
    <contour>
      <point x="280" y="42" type="curve" smooth="yes"/>
      <point x="433" y="42"/>
      <point x="565" y="135"/>
      <point x="592" y="289" type="curve" smooth="yes"/>
      <point x="621" y="449"/>
      <point x="507" y="547"/>
      <point x="360" y="547" type="curve" smooth="yes"/>
      <point x="214" y="547"/>
      <point x="77" y="460"/>
      <point x="49" y="300" type="curve" smooth="yes"/>
      <point x="21" y="145"/>
      <point x="129" y="42"/>
    </contour>
    <contour>
      <point x="291" y="130" type="curve" smooth="yes"/>
      <point x="193" y="130"/>
      <point x="136" y="201"/>
      <point x="153" y="297" type="curve" smooth="yes"/>
      <point x="170" y="393"/>
      <point x="253" y="458"/>
      <point x="349" y="458" type="curve" smooth="yes"/>
      <point x="449" y="458"/>
      <point x="505" y="388"/>
      <point x="488" y="292" type="curve" smooth="yes"/>
      <point x="471" y="197"/>
      <point x="388" y="130"/>
    </contour>
    <contour>
      <point x="309" y="529" type="line"/>
      <point x="412" y="529" type="line"/>
      <point x="434" y="652" type="line"/>
      <point x="744" y="652" type="line"/>
      <point x="760" y="740" type="line"/>
      <point x="38" y="740" type="line"/>
      <point x="22" y="652" type="line"/>
      <point x="331" y="652" type="line"/>
    </contour>
  </outline>
</glyph>
<glyph name="dvDDA" format="2">
  <advance width="573"/>
  <unicode hex="0921"/>
  <anchor x="531" y="740" name="abvm.e"/>
  <anchor x="293" y="-111" name="blwm.u"/>
  <anchor x="303" y="-16" name="blwm.virama"/>
  <outline>
    <contour>
      <point x="251" y="-16" type="curve" smooth="yes"/>
      <point x="392" y="-16"/>
      <point x="474" y="52"/>
      <point x="492" y="152" type="curve" smooth="yes"/>
      <point x="514" y="276"/>
      <point x="422" y="326"/>
      <point x="316" y="326" type="curve" smooth="yes"/>
      <point x="300" y="326"/>
      <point x="284" y="326"/>
      <point x="272" y="326" type="curve" smooth="yes"/>
      <point x="223" y="326"/>
      <point x="182" y="344"/>
      <point x="191" y="398" type="curve" smooth="yes"/>
      <point x="202" y="457"/>
      <point x="260" y="470"/>
      <point x="309" y="470" type="curve" smooth="yes"/>
      <point x="483" y="470" type="line"/>
      <point x="491" y="545" type="line"/>
      <point x="293" y="545" type="line" smooth="yes"/>
      <point x="200" y="545"/>
      <point x="105" y="506"/>
      <point x="87" y="401" type="curve" smooth="yes"/>
      <point x="67" y="286"/>
      <point x="167" y="251"/>
      <point x="246" y="251" type="curve" smooth="yes"/>
      <point x="258" y="251"/>
      <point x="272" y="251"/>
      <point x="285" y="251" type="curve" smooth="yes"/>
      <point x="350" y="251"/>
      <point x="405" y="228"/>
      <point x="392" y="156" type="curve" smooth="yes"/>
      <point x="383" y="103"/>
      <point x="333" y="64"/>
      <point x="258" y="64" type="curve" smooth="yes"/>
      <point x="169" y="64"/>
      <point x="126" y="110"/>
      <point x="136" y="177" type="curve"/>
      <point x="32" y="177" type="line"/>
      <point x="14" y="61"/>
      <point x="103" y="-16"/>
    </contour>
    <contour>
      <point x="28" y="652" type="line"/>
      <point x="647" y="652" type="line"/>
      <point x="662" y="740" type="line"/>
      <point x="43" y="740" type="line"/>
    </contour>
    <contour>
      <point x="390" y="520" type="line"/>
      <point x="483" y="470" type="line"/>
      <point x="529" y="726" type="line"/>
      <point x="427" y="726" type="line"/>
    </contour>
  </outline>
</glyph>
<glyph name="dvDDHA" format="2">
  <advance width="644"/>
  <unicode hex="0922"/>
  <anchor x="554" y="740" name="abvm.e"/>
  <anchor x="350" y="-91" name="blwm.u"/>
  <anchor x="361" y="3" name="blwm.virama"/>
  <outline>
    <contour>
      <point x="312" y="3" type="curve" smooth="yes"/>
      <point x="464" y="3"/>
      <point x="568" y="81"/>
      <point x="589" y="198" type="curve" smooth="yes"/>
      <point x="606" y="297"/>
      <point x="545" y="366"/>
      <point x="446" y="366" type="curve" smooth="yes"/>
      <point x="352" y="366"/>
      <point x="277" y="316"/>
      <point x="262" y="228" type="curve" smooth="yes"/>
      <point x="260" y="218"/>
      <point x="259" y="206"/>
      <point x="259" y="195" type="curve"/>
      <point x="335" y="195" type="line"/>
      <point x="335" y="201"/>
      <point x="336" y="209"/>
      <point x="337" y="215" type="curve" smooth="yes"/>
      <point x="345" y="261"/>
      <point x="384" y="290"/>
      <point x="429" y="290" type="curve" smooth="yes"/>
      <point x="479" y="290"/>
      <point x="509" y="253"/>
      <point x="500" y="201" type="curve" smooth="yes"/>
      <point x="486" y="127"/>
      <point x="412" y="80"/>
      <point x="323" y="80" type="curve" smooth="yes"/>
      <point x="193" y="80"/>
      <point x="130" y="163"/>
      <point x="150" y="277" type="curve" smooth="yes"/>
      <point x="173" y="412"/>
      <point x="285" y="479"/>
      <point x="409" y="479" type="curve" smooth="yes"/>
      <point x="510" y="479" type="line"/>
      <point x="543" y="668" type="line"/>
      <point x="444" y="668" type="line"/>
      <point x="415" y="502" type="line"/>
      <point x="488" y="553" type="line"/>
      <point x="390" y="553" type="line" smooth="yes"/>
      <point x="226" y="553"/>
      <point x="82" y="464"/>
      <point x="50" y="285" type="curve" smooth="yes"/>
      <point x="20" y="116"/>
      <point x="137" y="3"/>
    </contour>
    <contour>
      <point x="25" y="652" type="line"/>
      <point x="718" y="652" type="line"/>
      <point x="734" y="740" type="line"/>
      <point x="41" y="740" type="line"/>
    </contour>
  </outline>
</glyph>
